<?xml version="1.0" standalone="no"?>
<!DOCTYPE svg PUBLIC "-//W3C//DTD SVG 1.1//EN" "http://www.w3.org/Graphics/SVG/1.1/DTD/svg11.dtd" >
<svg>
<metadata>
Created by FontForge 20090622 at Fri Mar 13 09:23:34 2020
 By deploy user
Copyright 1990-1999 as an unpublished work by Bitstream Inc.  All rights reserved.  Confidential.
</metadata>
<defs>
<font id="BaskervilleBT-Bold" horiz-adv-x="500" >
  <font-face 
    font-family="Baskerville"
    font-weight="700"
    font-stretch="normal"
    units-per-em="1000"
    panose-1="0 0 0 0 0 0 0 0 0 0"
    ascent="800"
    descent="-200"
    x-height="440"
    cap-height="671"
    bbox="-167 -280 1219 959"
    underline-thickness="93"
    underline-position="-94"
    unicode-range="U+0020-U+FB02"
  />
<missing-glyph horiz-adv-x="275" 
 />
    <glyph glyph-name=".notdef" horiz-adv-x="275" 
 />
    <glyph glyph-name=".null" horiz-adv-x="0" 
 />
    <glyph glyph-name="nonmarkingreturn" horiz-adv-x="333" 
 />
    <glyph glyph-name="space" unicode=" " horiz-adv-x="275" 
 />
    <glyph glyph-name="exclam" unicode="!" horiz-adv-x="331" 
d="M82 69q0 35 24.5 59t59.5 24t59 -24t24 -59q0 -34 -24.5 -58.5t-59.5 -24.5t-59 24t-24 59zM146 205q-1 97 -30 222t-29 157q0 47 21 74t57 27t57 -27t21 -74q0 -34 -28.5 -158t-30.5 -221h-38z" />
    <glyph glyph-name="quotedbl" unicode="&#x22;" horiz-adv-x="345" 
d="M99 416h-20l-39 225q-1 7 -1 18q0 25 13.5 40.5t36.5 15.5t36.5 -14.5t13.5 -39.5q0 -13 -1 -20zM265 416h-20l-39 225q-2 12 -2 18q0 26 14 41t37 15t37 -14.5t14 -39.5q0 -6 -2 -20z" />
    <glyph glyph-name="numbersign" unicode="#" horiz-adv-x="769" 
d="M347 715h105l-72 -203h124l73 203h104l-72 -203h138l-36 -96h-136l-43 -122h143l-35 -96h-142l-72 -203h-105l72 203h-124l-73 -203h-105l72 203h-141l36 96h140l43 122h-148l36 96h146zM344 416l-44 -122h129l43 122h-128z" />
    <glyph glyph-name="dollar" unicode="$" horiz-adv-x="551" 
d="M244 -142v137q-95 3 -151 39t-56 86q0 25 15.5 40.5t40.5 15.5q8 0 15 -1.5t12.5 -5l9.5 -6t8 -9.5l6 -10.5t5 -13t4 -13l4 -14.5t4 -15q13 -50 74 -50h9v245q-99 45 -144.5 93t-45.5 115q0 76 51.5 126t138.5 54v70h47v-69q88 -4 139 -37.5t51 -82.5q0 -23 -15 -38
t-40 -15q-27 0 -37.5 15.5t-19.5 53.5q-8 34 -24.5 48t-53.5 15v-212q104 -47 152.5 -100t48.5 -126q0 -80 -53 -132.5t-148 -63.5v-139h-47zM244 442v187q-39 -3 -64 -29t-25 -62q0 -57 89 -96zM291 41q44 6 69 34t25 72q0 73 -94 113v-219z" />
    <glyph glyph-name="percent" unicode="%" horiz-adv-x="883" 
d="M488 142q0 84 51 153q62 82 152 82q60 0 94.5 -38.5t34.5 -106.5q0 -93 -53 -170q-55 -80 -140 -80q-62 0 -100.5 44t-38.5 116zM732 330q-46 0 -86 -81q-38 -74 -38 -146q0 -36 17 -57t44 -21q43 0 82 65.5t39 147.5q0 43 -16 67.5t-42 24.5zM185 -50l393 661
q-57 -30 -116 -30q-45 0 -76 19q9 -40 9 -61q0 -92 -51 -167q-57 -82 -141 -82q-63 0 -101.5 43.5t-38.5 117.5q0 82 48 148q61 86 154 86q42 0 77 -23q2 -1 14 -9.5t14.5 -10l13.5 -8t16 -8.5t15 -6.5t17.5 -5.5t17.5 -2.5t20 -1.5q45 0 95 28t94 80h37l-456 -768h-55z
M308 638q-44 0 -85 -76q-41 -77 -41 -150q0 -36 17 -58t43 -22q47 0 83 64q41 72 41 152q0 41 -16.5 65.5t-41.5 24.5z" />
    <glyph glyph-name="ampersand" unicode="&#x26;" horiz-adv-x="879" 
d="M446 81q-110 -96 -227 -96q-71 0 -114.5 39t-43.5 102q0 115 172 214q-64 94 -64 172q0 75 50.5 124.5t125.5 49.5q68 0 110.5 -38.5t42.5 -95.5q0 -100 -118 -167q47 -62 128 -154l38 58.5t32 45.5t34 40.5t31 25.5t37 19.5t39 4.5q44 0 70.5 -24.5t26.5 -64.5
q0 -34 -21.5 -55.5t-56.5 -21.5q-48 0 -63 34q-3 7 -4 19.5t-4.5 19t-13.5 6.5q-7 0 -14.5 -5.5t-18 -20t-19.5 -28.5l-26.5 -41.5l-31.5 -48.5q56 -60 91.5 -85.5t71.5 -25.5q54 0 89 50l36 -28q-45 -63 -93 -91.5t-111 -28.5q-93 0 -181 96zM408 115q-66 60 -150 184
q-62 -40 -62 -112q0 -47 33.5 -83t76.5 -36q63 0 102 47zM351 422q57 55 57 124q0 44 -19 70t-50 26q-28 0 -46 -19.5t-18 -48.5q0 -57 76 -152z" />
    <glyph glyph-name="quotesingle" unicode="'" horiz-adv-x="178" 
d="M99 416h-20l-39 225q-2 12 -2 18q0 26 14 41t37 15t36.5 -14.5t13.5 -39.5q0 -13 -1 -20z" />
    <glyph glyph-name="parenleft" unicode="(" horiz-adv-x="329" 
d="M282 -215q-223 196 -223 450t223 450l24 -21q-135 -172 -135 -420q0 -266 135 -439z" />
    <glyph glyph-name="parenright" unicode=")" horiz-adv-x="329" 
d="M47 -215l-24 20q134 172 134 439q0 248 -135 420l24 21q223 -196 223 -450q0 -255 -222 -450z" />
    <glyph glyph-name="asterisk" unicode="*" 
d="M258 459q2 -43 24.5 -89.5t22.5 -58.5q0 -21 -15 -35t-40 -14t-39.5 13.5t-14.5 36.5q0 11 22 58t25 89q-37 -22 -69 -70l-7 -10.5t-6.5 -10t-6 -8.5t-7 -8l-7 -5.5t-9 -5t-10 -2.5t-12.5 -1q-20 0 -36 18.5t-16 40.5q0 21 15 34.5t42 15.5q3 0 19 1t21 1.5t18.5 2.5
t21.5 4.5t19 6.5t21 9q-43 23 -124 27q-24 1 -38.5 15t-14.5 35q0 24 16.5 41.5t39.5 17.5q6 0 11.5 -1t10.5 -4t8 -5t8 -8.5l7 -9t8 -12l8 -12.5q33 -48 68 -69q-2 43 -24.5 89t-22.5 59q0 22 15 36t40 14t39.5 -14t14.5 -37q0 -10 -21.5 -56.5t-25.5 -90.5q37 21 69 69
l8 11.5l8 11.5t7 9.5t8.5 8.5t9 5.5t11 4.5t12.5 1q20 0 36 -18t16 -41q0 -28 -17 -38t-56 -13q-67 -6 -103 -24q36 -21 104 -26q38 -2 55 -13t17 -39q0 -23 -16 -40.5t-38 -17.5q-14 0 -25.5 8t-17.5 15.5t-20 28.5q-34 50 -67 69z" />
    <glyph glyph-name="plus" unicode="+" horiz-adv-x="833" 
d="M367 596h99v-249h243v-97h-243v-250h-99v250h-243v97h243v249z" />
    <glyph glyph-name="comma" unicode="," horiz-adv-x="275" 
d="M50 -156q124 60 125 155q-23 -9 -43 -9q-36 0 -56.5 21.5t-20.5 59.5q0 35 24 58t60 23q43 0 69 -32.5t26 -88.5q0 -150 -170 -219z" />
    <glyph glyph-name="hyphen" unicode="-" horiz-adv-x="330" 
d="M45 162v119h240v-119h-240z" />
    <glyph glyph-name="period" unicode="." horiz-adv-x="275" 
d="M54 69q0 35 24.5 59t59.5 24t59 -24t24 -59q0 -34 -24 -58.5t-59 -24.5t-59.5 24.5t-24.5 58.5z" />
    <glyph glyph-name="slash" unicode="/" horiz-adv-x="272" 
d="M-31 -93l253 778h49l-253 -778h-49z" />
    <glyph glyph-name="zero" unicode="0" horiz-adv-x="551" 
d="M42 334q0 154 75 259q66 92 158 92q85 0 150 -80q84 -103 84 -265t-80 -271q-63 -85 -154 -85q-90 0 -152 83q-81 109 -81 267zM196 367q0 -190 15.5 -265t65.5 -75q47 0 62.5 74t15.5 255q0 153 -17 218.5t-64 65.5q-45 0 -61.5 -62.5t-16.5 -210.5z" />
    <glyph glyph-name="one" unicode="1" horiz-adv-x="551" 
d="M108 -3v39q60 0 77.5 14.5t17.5 63.5v419q0 39 -15.5 50t-65.5 11h-14v36q134 14 210 55h35q-3 -59 -3 -84v-489q0 -47 18 -61.5t79 -14.5v-39q-103 3 -168 3q-85 0 -171 -3z" />
    <glyph glyph-name="two" unicode="2" horiz-adv-x="551" 
d="M33 0q17 42 45 87.5t44 66t62 75l52 61.5q87 105 87 213q0 64 -27 100.5t-71 36.5q-38 0 -60.5 -24t-22.5 -67q0 -31 15.5 -51t37.5 -20q24 0 45 15q2 -16 2 -18q0 -33 -22.5 -54.5t-60.5 -21.5q-50 0 -82.5 34.5t-32.5 88.5q0 69 60 116t155 47q96 0 155.5 -52
t59.5 -137q0 -63 -26.5 -104.5t-88.5 -94.5q-28 -24 -74 -59.5t-75 -60.5t-48 -49h312l-40 -186h-38q5 27 5 35q0 16 -9.5 19.5t-39.5 3.5h-319z" />
    <glyph glyph-name="three" unicode="3" horiz-adv-x="551" 
d="M294 388v-8h7q82 0 130.5 -45t48.5 -118q0 -84 -64 -146q-88 -87 -211 -87q-80 0 -127 31.5t-47 79.5q0 21 17.5 37t42.5 16q22 0 37.5 -14.5t29.5 -45.5q15 -32 29.5 -46t38.5 -14q47 0 74 43.5t27 122.5q0 76 -16.5 112.5t-54.5 36.5q-33 0 -58 -40q-19 -30 -39 -30
q-14 0 -22.5 8.5t-8.5 20.5q0 11 6.5 20.5t14 14.5t25.5 15t28 17q104 67 104 170q0 43 -23 69.5t-59 26.5q-33 0 -55.5 -20.5t-22.5 -49.5q0 -20 11.5 -33t27.5 -13q19 0 38 13q0 -2 0.5 -7t0.5 -8q0 -33 -22.5 -53t-61.5 -20q-36 0 -58.5 24t-22.5 63q0 61 61 108t150 47
q78 0 124.5 -36.5t46.5 -94.5q0 -104 -147 -167z" />
    <glyph glyph-name="four" unicode="4" horiz-adv-x="551" 
d="M180 -2v40q63 2 80.5 14t17.5 55v95h-260v61l332 422h71v-424h104v-59h-104v-98q0 -41 19 -52.5t78 -13.5v-40q-60 2 -168 2q-120 0 -170 -2zM78 261h200l8 269z" />
    <glyph glyph-name="five" unicode="5" horiz-adv-x="551" 
d="M107 685h33q55 -44 149 -44q95 0 125 44h37q-16 -74 -73 -116.5t-143 -42.5q-37 0 -86 6l-4 -158q61 54 143 54q86 0 141.5 -54t55.5 -139q0 -109 -79 -180t-206 -71q-76 0 -124 32t-48 72q0 25 16 42t41 17q44 0 64 -41q3 -5 8.5 -17.5t8 -17l7.5 -13.5t9 -12.5t10.5 -8
t14 -6t17.5 -1.5q106 0 106 179q0 80 -22.5 116.5t-76.5 36.5q-50 0 -81 -48q1 -17 1 -35q0 -32 -29 -32q-33 0 -33 38q0 4 1.5 20t3.5 44.5t3 58.5z" />
    <glyph glyph-name="six" unicode="6" horiz-adv-x="551" 
d="M197 326q-4 -114 -4 -123q0 -90 20 -132.5t64 -42.5q46 0 64 41t18 133q0 94 -17 134.5t-64 40.5q-26 0 -48 -14t-33 -37zM201 394q60 42 119 42q83 0 138.5 -58t55.5 -149q0 -107 -67.5 -176t-170.5 -69q-105 0 -169 83.5t-64 225.5q0 183 76.5 289t204.5 106
q72 0 114.5 -28.5t42.5 -71.5q0 -24 -17 -40t-42 -16q-35 0 -61 43q-4 7 -14.5 28t-18.5 28t-24 7q-58 0 -79.5 -55.5t-23.5 -188.5z" />
    <glyph glyph-name="seven" unicode="7" horiz-adv-x="551" 
d="M49 443l58 290h37q-5 -28 -5 -36q0 -21 10 -25.5t44 -4.5h306v-38q-127 -220 -167 -508q-10 -76 -27.5 -107t-66.5 -31q-34 0 -52.5 20t-18.5 57q0 43 23.5 96t74.5 141l144 248h-222q-46 0 -64.5 -18.5t-35.5 -83.5h-38z" />
    <glyph glyph-name="eight" unicode="8" horiz-adv-x="551" 
d="M185 327q-54 24 -83 68t-29 100q0 85 57.5 138t152.5 53q88 0 141.5 -44t53.5 -112q0 -84 -101 -140q124 -55 124 -194q0 -95 -63.5 -153.5t-167.5 -58.5q-99 0 -159.5 49.5t-60.5 126.5q0 112 135 167zM222 302q-63 -51 -63 -139q0 -63 31.5 -98.5t87.5 -35.5
q57 0 89.5 30.5t32.5 85.5q0 54 -41.5 88.5t-136.5 68.5zM339 410q43 43 43 110q0 57 -30 90.5t-80 33.5q-44 0 -71.5 -25.5t-27.5 -66.5q0 -48 34 -73.5t132 -68.5z" />
    <glyph glyph-name="nine" unicode="9" horiz-adv-x="551" 
d="M345 276q-55 -39 -117 -39q-87 0 -141.5 57t-54.5 155q0 101 68 169t170 68q105 0 169 -83.5t64 -225.5q0 -186 -77 -290t-212 -104q-67 0 -108 28.5t-41 70.5q0 24 17 40t42 16q35 0 61 -43q4 -7 14.5 -28t18.5 -28t24 -7q58 0 79.5 55.5t23.5 188.5zM350 344
q3 86 3 123q0 90 -20 133t-64 43q-46 0 -64 -41.5t-18 -133.5q0 -93 15.5 -133t60.5 -40q66 0 87 49z" />
    <glyph glyph-name="colon" unicode=":" horiz-adv-x="331" 
d="M82 69q0 35 24.5 59t59.5 24t59 -24t24 -59q0 -34 -24.5 -58.5t-59.5 -24.5t-59 24t-24 59zM82 368q0 35 24.5 59t59.5 24t59 -24t24 -59q0 -34 -24.5 -58.5t-59.5 -24.5t-59 24.5t-24 58.5z" />
    <glyph glyph-name="semicolon" unicode=";" horiz-adv-x="331" 
d="M82 368q0 35 24.5 59t59.5 24t59 -24t24 -59q0 -34 -24.5 -58.5t-59.5 -24.5t-59 24.5t-24 58.5zM77 -156q123 60 124 155q-23 -9 -42 -9q-36 0 -56.5 21.5t-20.5 59.5q0 35 24 58t60 23q43 0 69 -32.5t26 -88.5q0 -150 -170 -219z" />
    <glyph glyph-name="less" unicode="&#x3c;" horiz-adv-x="833" 
d="M704 583v-107l-436 -178l436 -178v-107l-575 237v97z" />
    <glyph glyph-name="equal" unicode="=" horiz-adv-x="833" 
d="M124 452h585v-97h-585v97zM124 242h585v-97h-585v97z" />
    <glyph glyph-name="greater" unicode="&#x3e;" horiz-adv-x="833" 
d="M129 583l575 -236v-97l-575 -237v107l437 178l-437 178v107z" />
    <glyph glyph-name="question" unicode="?" horiz-adv-x="438" 
d="M143 218v203q14 -2 49 -2q78 0 113.5 17.5t35.5 61.5q0 40 -25 66t-67 26q-20 0 -55.5 -6.5t-52.5 -6.5q-32 0 -49 14.5t-17 40.5q0 53 82 53q62 0 124 -36q54 -31 87.5 -86.5t33.5 -112.5q0 -151 -185 -151q-20 0 -31 1v-82h-43zM81 69q0 35 24 59t59 24t59 -24t24 -59
q0 -34 -24 -58.5t-59 -24.5q-34 0 -58.5 24t-24.5 59z" />
    <glyph glyph-name="at" unicode="@" horiz-adv-x="986" 
d="M546 463q-58 0 -104 -92q-57 -113 -57 -194q0 -39 17 -61.5t45 -22.5q63 0 117 119q42 95 42 170q0 39 -15.5 60t-44.5 21zM574 156q-59 -96 -144 -96q-69 0 -108.5 44.5t-39.5 122.5q0 115 95 204q69 64 151 64q92 0 108 -89l24 80h93l-85 -302q-8 -32 -8 -46
q0 -23 10 -36t27 -13q38 0 89 43q104 88 104 245q0 135 -92 218t-239 83q-136 0 -239 -73q-85 -59 -130.5 -150.5t-45.5 -203.5q0 -164 103 -260t276 -96q159 0 306 101l19 -25q-148 -110 -325 -110q-187 0 -305 87q-74 55 -113.5 136t-39.5 177q0 155 100 275
q71 85 169.5 130.5t212.5 45.5q171 0 273 -92.5t102 -245.5q0 -162 -112 -263q-59 -53 -129 -53q-47 0 -75 25.5t-32 72.5z" />
    <glyph glyph-name="A" unicode="A" horiz-adv-x="711" 
d="M212 256h184l-88 233zM-4 -3v41q69 6 100 78l241 568h50l225 -566q17 -41 38 -59t63 -21v-41q-87 3 -173 3q-85 0 -172 -3v41q50 2 68.5 9.5t18.5 30.5q0 25 -20 76l-20 53h-224l-17 -39q-20 -47 -20 -75q0 -55 82 -55v-41q-63 3 -123 3q-59 0 -117 -3z" />
    <glyph glyph-name="B" unicode="B" horiz-adv-x="712" 
d="M38 -4v43q56 1 75 20t19 72v415q0 51 -18 68t-76 18v41q78 -6 124 -6q32 0 90 3t83 3q276 0 276 -161q0 -127 -183 -153q226 -28 226 -181q0 -89 -75 -135.5t-221 -46.5q-26 0 -87.5 2.5t-97.5 2.5q-53 0 -135 -5zM287 330v-168q0 -63 17 -88.5t61 -25.5q112 0 112 142
q0 73 -38 107t-119 34q-21 0 -33 -1zM287 378q4 0 12 -0.5t11 -0.5q74 0 105 30.5t31 101.5q0 115 -123 115q-24 0 -30 -3.5t-6 -15.5v-227z" />
    <glyph glyph-name="C" unicode="C" horiz-adv-x="711" 
d="M617 234h42v-234h-41l-22 57q-100 -75 -218 -75q-152 0 -247 94.5t-95 245.5q0 129 67 220q105 142 285 142q114 0 196 -63l17 56h44l6 -216h-42q-22 83 -72 128t-116 45q-93 0 -149.5 -80t-56.5 -220q0 -139 54.5 -215.5t149.5 -76.5q155 0 198 192z" />
    <glyph glyph-name="D" unicode="D" horiz-adv-x="767" 
d="M41 -3v42q56 1 73.5 19t17.5 73v405q0 57 -16.5 76t-74.5 19v40q38 -2 117 -2q28 0 83.5 1t82.5 1q200 0 303 -91t103 -264q0 -154 -102 -244q-50 -44 -112.5 -59.5t-156.5 -15.5q-29 0 -89.5 1.5t-91.5 1.5q-25 0 -75 -1.5t-62 -1.5zM292 150q0 -55 21 -78.5t73 -23.5
q87 0 127.5 68.5t40.5 212.5q0 156 -51.5 226t-172.5 70q-21 0 -29.5 -6t-8.5 -20v-449z" />
    <glyph glyph-name="E" unicode="E" horiz-adv-x="661" 
d="M35 -5v42q61 0 77.5 26t16.5 105v370q0 54 -18.5 75.5t-67.5 21.5h-8v39q105 -6 205 -6q155 0 347 6v-175h-41q-18 79 -59.5 101.5t-144.5 22.5q-38 0 -47 -5t-9 -26v-220h17q59 0 85.5 24.5t38.5 87.5h42q-5 -54 -5 -131q0 -69 5 -139h-40q-11 63 -39.5 87.5t-90.5 24.5
h-13v-179q0 -53 26.5 -75.5t87.5 -22.5q89 0 131.5 32t58.5 118h37v-203q-150 4 -366 4h-59q-113 0 -167 -5z" />
    <glyph glyph-name="F" unicode="F" horiz-adv-x="606" 
d="M32 -4v41q64 2 81.5 24t17.5 88v384q0 58 -20 78t-79 21v41q105 -5 289 -5q155 0 266 4l6 -175h-41q-12 74 -59.5 99.5t-155.5 25.5q-32 0 -42.5 -7t-10.5 -29v-219h17q57 0 86 27t37 86h43q-2 -104 -2 -141q0 -65 2 -133h-43q-9 64 -36 90t-85 26q-3 0 -9 -0.5t-10 -0.5
v-175q0 -66 17 -86t88 -23v-41q-47 4 -128 4q-192 0 -229 -4z" />
    <glyph glyph-name="G" unicode="G" horiz-adv-x="778" 
d="M459 287h314v-39q-42 0 -57.5 -12.5t-15.5 -46.5v-136h-7q-49 0 -105 -20l-39.5 -15t-50 -18t-51.5 -12t-66 -6q-152 0 -248 93t-96 242q0 126 62 218q102 150 279 150q118 0 209 -65l16 54h46l6 -210h-44q-19 82 -69.5 125t-125.5 43q-95 0 -148.5 -81.5t-53.5 -229.5
q0 -133 52 -208.5t140 -75.5q64 0 99 27t35 76v45q0 63 -70 63h-11v39z" />
    <glyph glyph-name="H" unicode="H" horiz-adv-x="874" 
d="M37 -3v40q60 1 76.5 20t16.5 78v406q0 53 -15 71t-72 18h-6v41q101 -3 172 -3t173 3v-41h-11q-45 0 -63.5 -20.5t-18.5 -68.5v-173h296v173q0 54 -15.5 71t-77.5 18v41q89 -3 217 -3q92 0 128 3v-41h-4q-52 0 -70.5 -19.5t-18.5 -69.5v-406q0 -55 19 -76t74 -22v-40
q-113 3 -173 3q-67 0 -172 -3v40q60 1 76.5 20t16.5 78v182h-296v-182q0 -54 19.5 -75t73.5 -23v-40q-118 3 -173 3q-70 0 -172 -3z" />
    <glyph glyph-name="I" unicode="I" horiz-adv-x="437" 
d="M43 -3v40q61 1 78 20t17 78v406q0 53 -16 71t-69 18h-10v41q97 -3 176 -3q83 0 176 3v-41h-11q-47 0 -65.5 -20t-18.5 -69v-406q0 -55 19 -75.5t76 -22.5v-40q-120 3 -176 3q-73 0 -176 -3z" />
    <glyph glyph-name="J" unicode="J" horiz-adv-x="438" 
d="M153 -109v623q0 71 -16 92.5t-85 24.5v41q51 -4 165 -4q121 0 186 4v-41q-56 -1 -73.5 -20.5t-17.5 -76.5v-512q0 -158 -49.5 -226.5t-176.5 -68.5q-77 0 -121.5 28t-44.5 72q0 26 17 42.5t44 16.5q42 0 65 -58q14 -38 24 -45q9 -6 24 -6q33 0 46 27t13 87z" />
    <glyph glyph-name="K" unicode="K" horiz-adv-x="770" 
d="M35 -4v42q57 1 75 19.5t18 69.5v419q0 50 -19.5 69t-73.5 20v37q72 -4 172 -4q85 0 164 4v-39h-7q-49 0 -64 -21.5t-15 -80.5v-219l92 105q128 145 128 180q0 37 -72 37v38q74 -5 146 -5q49 0 109 5v-38q-40 -1 -67 -17.5t-58 -52.5l-124 -144l251 -325q41 -54 87 -56
v-43q-96 4 -166 4q-97 0 -172 -4v42h13q58 0 58 31q0 19 -16 39l-152 202l-57 -67v-111q0 -57 14.5 -74.5t76.5 -19.5v-42q-56 4 -168 4q-114 0 -173 -4z" />
    <glyph glyph-name="L" unicode="L" horiz-adv-x="661" 
d="M34 -4v42h8q49 0 66.5 21.5t17.5 78.5v414q0 45 -18.5 62t-68.5 17h-5v40q97 -3 173 -3q57 0 174 3v-40h-6q-54 0 -72 -17.5t-18 -67.5v-366q0 -76 25.5 -104t100.5 -28q84 0 130.5 36t61.5 114h41l-4 -200q-200 2 -306 2q-66 0 -300 -4z" />
    <glyph glyph-name="M" unicode="M" horiz-adv-x="934" 
d="M41 -3v41q55 1 72 32t17 112v419q-23 30 -89 33v37q29 -3 97 -3t139 3l196 -465l185 465q46 -3 93 -3q39 0 149 4v-39q-62 -1 -80.5 -21.5t-18.5 -78.5v-408q0 -50 20 -68.5t79 -20.5v-40q-127 5 -187 5q-70 0 -154 -4v40q61 6 75.5 24t14.5 75v367l-205 -505h-47
l-214 518v-334q0 -79 18 -110.5t74 -34.5v-41q-95 5 -119 5q-54 0 -115 -4z" />
    <glyph glyph-name="N" unicode="N" horiz-adv-x="824" 
d="M40 -4v42q55 7 73 32.5t18 88.5v421l-12 15q-16 19 -34.5 27t-50.5 10v39q28 -3 98 -3q71 0 114 3l399 -456v299q0 63 -20.5 90t-72.5 28v39q72 -3 115 -3q37 0 123 3v-39q-56 -4 -74 -30.5t-18 -92.5v-525h-56l-456 533v-358q0 -62 22 -91t70 -30v-41q-67 3 -150 3
q-52 0 -88 -4z" />
    <glyph glyph-name="O" unicode="O" horiz-adv-x="833" 
d="M409 -17q-167 0 -269.5 98t-102.5 253t105 253.5t276 98.5q169 0 276 -101q103 -98 103 -249q0 -154 -108 -253q-109 -100 -280 -100zM218 331q0 -148 52 -223.5t152 -75.5t147 74t47 228q0 150 -52 226.5t-152 76.5q-101 0 -147.5 -75t-46.5 -231z" />
    <glyph glyph-name="P" unicode="P" horiz-adv-x="662" 
d="M41 -3v41q52 4 70 20.5t18 60.5v430q0 47 -16.5 62.5t-71.5 19.5v39q41 -3 109 -3q17 0 74.5 1t97.5 1q161 0 236.5 -42t75.5 -137q0 -97 -73 -143t-225 -46q-32 0 -49 1v-178q0 -49 19.5 -67.5t75.5 -18.5h6v-41q-90 3 -230 3q-85 0 -117 -3zM287 351q9 -1 27 -1
q80 0 114.5 33.5t34.5 109.5q0 128 -123 128q-31 0 -42 -5.5t-11 -21.5v-243z" />
    <glyph glyph-name="Q" unicode="Q" horiz-adv-x="833" 
d="M341 -80q13 1 39 1q88 0 153 -23l38.5 -15t40.5 -15t36.5 -10t41.5 -5q52 0 77 24q9 8 18 18l13 14.5t8 4.5q15 0 15 -21q0 -68 -48.5 -119t-125.5 -51q-15 0 -30 2.5t-25.5 4.5t-26 9.5l-21 10t-23 14.5t-20 13.5t-22 17t-20.5 16.5q-45 35 -78.5 52t-72.5 17
q-35 0 -65.5 -11t-50 -21.5t-26.5 -10.5q-12 0 -20.5 8.5t-8.5 20.5t11 20.5t34 16.5t50.5 16t70 25t82.5 39q-157 10 -252.5 106.5t-95.5 241.5q0 148 105 250q51 49 124 76.5t154 27.5q168 0 277 -106q48 -47 75 -112.5t27 -134.5q0 -146 -114 -248q-33 -29 -90.5 -58.5
t-104.5 -48.5t-149 -57zM218 335q0 -145 54 -227.5t148 -82.5q197 0 197 308q0 150 -50.5 227.5t-146.5 77.5q-95 0 -148.5 -79t-53.5 -224z" />
    <glyph glyph-name="R" unicode="R" horiz-adv-x="727" 
d="M27 -3v42q63 0 83 19.5t20 77.5v414q0 50 -19.5 65.5t-83.5 16.5v40q52 -2 130 -2q31 0 99.5 1.5t106.5 1.5q140 0 207.5 -41t67.5 -129q0 -67 -43 -111.5t-124 -57.5q4 -2 8.5 -4.5t8 -5.5t8 -7.5t8 -7.5t9 -10t8.5 -10.5t9 -12l9 -12.5l10.5 -14t10.5 -15l97 -136
q42 -60 93 -66v-37q-34 3 -128 3q-52 0 -77 -2l-161 231q-29 42 -47 58.5t-44 16.5q-1 0 -4.5 -0.5t-5.5 -0.5v-172q0 -52 20 -71.5t73 -19.5h5v-42q-167 3 -222 3q-82 0 -132 -3zM283 348q12 -1 34 -1q78 0 115 33.5t37 105.5q0 74 -34 107.5t-107 33.5q-28 0 -36.5 -7
t-8.5 -32v-240z" />
    <glyph glyph-name="S" unicode="S" horiz-adv-x="549" 
d="M40 0q3 48 3 97q0 65 -3 115h46q42 -179 176 -179q57 0 89.5 29t32.5 79q0 46 -30.5 71.5t-107.5 60.5q-103 46 -149 95t-46 129q0 85 55.5 137t146.5 52q100 0 163 -52l12 43h47q0 -97 4 -188h-45q-15 70 -60 109.5t-108 39.5q-45 0 -72 -25t-27 -65q0 -21 6.5 -35.5
t25 -28t32.5 -21t50 -23.5q130 -59 183.5 -108t53.5 -135q0 -96 -65 -154.5t-174 -58.5q-112 0 -180 65l-12 -49h-47z" />
    <glyph glyph-name="T" unicode="T" horiz-adv-x="715" 
d="M277 119v496q-15 1 -41 1q-83 0 -120.5 -29.5t-50.5 -108.5h-40l8 193q101 -5 261 -5q234 0 387 4l9 -192h-39q-13 77 -51 108t-116 31q-14 0 -48 -2v-496q0 -47 21 -63.5t82 -18.5v-41q-79 4 -168 4q-84 0 -192 -4v41q60 3 79 19t19 63z" />
    <glyph glyph-name="U" unicode="U" horiz-adv-x="826" 
d="M124 271v244q0 68 -17 90.5t-77 26.5v39q90 -3 168 -3q93 0 180 4v-40q-61 -4 -79 -25.5t-18 -84.5v-260q0 -113 38 -162t134 -49q116 0 163 66q34 49 34 173v230q0 60 -19.5 84.5t-73.5 29.5v37q55 -3 118 -3q75 0 120 3v-39q-52 -6 -71.5 -30t-19.5 -82v-230
q0 -143 -44 -207q-70 -101 -243 -101q-157 0 -236 80q-57 58 -57 209z" />
    <glyph glyph-name="V" unicode="V" horiz-adv-x="709" 
d="M0 671q81 -4 153 -4q12 0 194 4v-41h-7q-42 0 -60.5 -10t-18.5 -35q0 -13 15 -54l131 -348l109 276q31 80 31 119q0 30 -18.5 40.5t-66.5 11.5v41q63 -3 130 -3q66 0 124 3v-41q-52 -3 -73.5 -26t-45.5 -82l-220 -538h-49l-228 573q-15 40 -34.5 55.5t-65.5 16.5v42z" />
    <glyph glyph-name="W" unicode="W" horiz-adv-x="991" 
d="M14 672q99 -6 160 -6q8 0 173 5v-38q-45 -2 -63.5 -12.5t-18.5 -38.5q0 -14 13 -53l98 -315l149 457h49l155 -457l81 259q21 70 21 100t-19.5 43t-62.5 15v40q67 -3 111 -3t110 4v-41q-21 -3 -34.5 -8.5t-23.5 -22t-13 -25.5l-13 -39l-182 -552h-51l-153 451l-148 -451
h-52l-193 575q-15 47 -41 60q-16 9 -52 14v39z" />
    <glyph glyph-name="X" unicode="X" horiz-adv-x="767" 
d="M33 -3v40q74 9 148 99l138 166l-166 226q-74 101 -130 105v39q71 -5 170 -5q74 0 179 4v-38q-72 -1 -72 -32q0 -21 15 -40l102 -140l85 104q34 42 34 67q0 38 -75 41v39q54 -5 128 -5q43 0 128 4v-38q-31 0 -59.5 -18t-45 -35.5t-54.5 -65.5q-7 -8 -10 -12l-101 -123
l212 -285q22 -29 43 -41.5t51 -13.5v-42q-107 3 -166 3q-89 0 -191 -3v42h11q39 0 56 7t17 24t-23 48l-107 143l-105 -129q-26 -32 -26 -56q0 -35 75 -38v-41q-63 3 -163 3q-65 0 -98 -3z" />
    <glyph glyph-name="Y" unicode="Y" horiz-adv-x="716" 
d="M180 -3v41q58 1 78 18.5t20 69.5v135l-159 288q-24 44 -41 61q-18 17 -58 23v38q87 -3 159 -3q85 0 169 3v-39q-75 -1 -75 -37q0 -20 38 -91l98 -179l99 163q39 64 39 96q0 26 -16.5 35.5t-56.5 11.5v39q35 -2 106 -2q26 0 116 2v-39q-48 -7 -77 -55l-184 -303v-143
q0 -54 20.5 -73t79.5 -19v-41q-77 3 -174 3q-130 0 -181 -3z" />
    <glyph glyph-name="Z" unicode="Z" horiz-adv-x="604" 
d="M18 43l367 575h-100q-97 0 -139.5 -27t-54.5 -105h-38v182h514v-43l-367 -572h132q88 0 134.5 35.5t59.5 115.5h39l-10 -204h-537v43z" />
    <glyph glyph-name="bracketleft" unicode="[" horiz-adv-x="326" 
d="M65 -198v866h228v-40h-126v-786h126v-40h-228z" />
    <glyph glyph-name="backslash" unicode="\" horiz-adv-x="272" 
d="M2 685h49l252 -778h-48z" />
    <glyph glyph-name="bracketright" unicode="]" horiz-adv-x="326" 
d="M261 -198h-228v40h126v786h-126v40h228v-866z" />
    <glyph glyph-name="asciicircum" unicode="^" horiz-adv-x="1000" 
d="M442 714h115l240 -276h-55l-243 182l-243 -182h-55z" />
    <glyph glyph-name="underscore" unicode="_" 
d="M0 -136h500v-100h-500v100z" />
    <glyph glyph-name="grave" unicode="`" 
d="M334 506h-36l-147 89q-22 14 -31.5 24.5t-9.5 24.5q0 16 11 27t26 11q25 0 52 -30z" />
    <glyph glyph-name="a" unicode="a" horiz-adv-x="496" 
d="M285 50q-71 -64 -142 -64q-54 0 -85 30.5t-31 82.5q0 57 37.5 90t128.5 67l71 26q25 9 25 34v34q0 62 -56 62q-43 0 -62 -40q-1 -3 -8.5 -20t-10.5 -21.5t-11 -15t-17.5 -13.5t-23.5 -3q-24 0 -40 15.5t-16 40.5q0 43 49.5 69.5t137.5 26.5q190 0 190 -130v-236
q0 -28 18 -28q11 0 33 15l21 -27q-18 -26 -51 -42.5t-65 -16.5q-72 0 -92 64zM284 135v110q-61 -19 -89 -46.5t-28 -69.5q0 -28 13.5 -44.5t34.5 -16.5q27 0 48 19t21 48z" />
    <glyph glyph-name="b" unicode="b" horiz-adv-x="556" 
d="M201 407q50 44 123 44q85 0 142.5 -62t57.5 -162q0 -109 -61 -175t-162 -66q-86 0 -132 50l-105 -50v615q0 23 -12.5 31t-46.5 10v37q135 12 196 32v-304zM197 126q0 -85 73 -85q109 0 109 181q0 82 -26.5 125.5t-73.5 43.5q-48 0 -65 -31.5t-17 -102.5v-131z" />
    <glyph glyph-name="c" unicode="c" horiz-adv-x="494" 
d="M424 115l32 -31q-69 -98 -200 -98q-99 0 -160.5 62t-61.5 163q0 106 70 173t181 67q78 0 123 -27.5t45 -72.5q0 -25 -15 -39t-40 -14q-39 0 -59 44q-2 4 -7 16l-7 16.5t-8 13t-11 12t-14 6.5t-20 3q-41 0 -64.5 -46.5t-23.5 -133.5q0 -181 120 -181q68 0 120 67z" />
    <glyph glyph-name="d" unicode="d" horiz-adv-x="610" 
d="M400 -13l-11 81q-52 -81 -150 -81q-95 0 -150.5 63t-55.5 169q0 101 61 167t151 66q89 0 142 -59v202q0 32 -14.5 41.5t-62.5 11.5v36q137 5 214 27v-608q0 -23 15.5 -32t51.5 -10v-35q-94 -10 -191 -39zM384 285q0 49 -25 75.5t-70 26.5q-50 0 -77 -43t-27 -125
q0 -160 95 -160q50 0 77 30.5t27 88.5v107z" />
    <glyph glyph-name="e" unicode="e" horiz-adv-x="502" 
d="M436 115l34 -30q-68 -99 -200 -99q-106 0 -172.5 64t-66.5 165q0 104 68.5 170.5t179.5 66.5q94 0 146.5 -53.5t52.5 -151.5v-8h-294q0 -4 -0.5 -10.5t-0.5 -9.5q0 -83 34.5 -127t97.5 -44q40 0 73 21q19 13 48 46zM184 286h164v12q0 112 -76 112q-78 0 -88 -124z" />
    <glyph glyph-name="f" unicode="f" horiz-adv-x="345" 
d="M17 -3v34q45 1 60.5 16.5t15.5 55.5v291h-73v46h73v32q0 117 28 162q48 77 168 77q69 0 105 -21t36 -59q0 -25 -14.5 -40.5t-37.5 -15.5t-36 10.5t-25 36.5q-1 3 -3.5 8.5t-3.5 7.5t-3 6.5t-3.5 6.5t-3.5 5t-3.5 4.5t-4 3t-5 2.5t-5.5 1.5t-7 0.5q-45 0 -45 -98v-130h123
v-46h-121v-291q0 -42 21 -56.5t77 -15.5v-34q-63 3 -166 3q-57 0 -147 -3z" />
    <glyph glyph-name="g" unicode="g" horiz-adv-x="548" 
d="M150 151q-46 17 -71.5 53t-25.5 87q0 70 54 115t143 45q75 0 130 -34q52 44 97 44q64 0 64 -61q0 -16 -12 -27t-32 -11q-14 0 -33.5 18.5t-32.5 18.5q-8 0 -23 -10q36 -41 36 -98q0 -77 -49.5 -113t-158.5 -44q-41 -3 -60 -12.5t-19 -30.5q0 -27 28 -32q9 -2 78 -4
q125 -3 180 -37t55 -119q0 -84 -64.5 -129.5t-186.5 -45.5q-101 0 -156 32t-55 86q0 32 19 53t45 21q39 0 52 -31q-14 -4 -22.5 -15t-8.5 -25q0 -36 35 -57t98 -21q67 0 108.5 27.5t41.5 69.5q0 68 -106 68q-131 0 -174 15q-31 11 -49 36.5t-18 58.5q0 39 24 67.5t69 41.5z
M188 294q0 -63 12.5 -91t46.5 -28q38 0 50 26t12 91q0 64 -12.5 93.5t-46.5 29.5q-62 0 -62 -121z" />
    <glyph glyph-name="h" unicode="h" horiz-adv-x="605" 
d="M25 -2v34q34 0 49.5 13.5t15.5 45.5v490q0 36 -11 47.5t-48 12.5v35q117 12 198 35v-338q66 78 157 78q138 0 138 -168v-210q0 -24 10.5 -31t45.5 -10v-34q-41 2 -96 2q-58 0 -158 -3v35q39 3 47.5 13.5t8.5 47.5v190q0 51 -13 73.5t-52 22.5t-63.5 -32t-24.5 -88v-156
q0 -41 10 -55.5t43 -15.5v-35q-56 3 -199 3q-12 0 -58 -2z" />
    <glyph glyph-name="i" unicode="i" horiz-adv-x="327" 
d="M31 -3v38q40 2 51.5 12t11.5 41v236q0 36 -12 47t-51 13v35q128 13 190 35h15v-366q0 -31 11.5 -41t51.5 -12v-38q-96 3 -125 3q-77 0 -143 -3zM83 632q0 32 22 54t54 22t54 -22t22 -54t-22.5 -54t-53.5 -22t-53.5 22t-22.5 54z" />
    <glyph glyph-name="j" unicode="j" horiz-adv-x="301" 
d="M87 -154v449q0 48 -13.5 64.5t-62.5 18.5v34q120 12 198 39h16v-520q0 -99 -54 -153t-155 -54q-60 0 -95.5 22.5t-35.5 58.5q0 23 15 38.5t38 15.5q25 0 39 -11.5t26 -38.5l10.5 -22.5t10 -11.5t18.5 -6q21 0 33 20t12 57zM64 632q0 32 22.5 54t54.5 22t54 -22t22 -54
q0 -31 -22.5 -53.5t-54.5 -22.5t-54 22t-22 54z" />
    <glyph glyph-name="k" unicode="k" horiz-adv-x="546" 
d="M24 -3v36q39 4 50.5 14.5t11.5 40.5v488q0 33 -12 45.5t-45 12.5h-5v37q103 4 199 40v-489l90 90l8 8q17 16 24 24t13 18t6 18q0 28 -59 29v33q62 -3 122 -3q51 0 99 3v-33q-66 -10 -110 -54l-74 -76l171 -225q14 -19 36 -19h2v-38q-59 3 -94 3q-42 0 -60 -3l-140 197
l-34 -32v-74q0 -30 11.5 -40t49.5 -15v-36q-30 3 -78 3q-146 0 -182 -3z" />
    <glyph glyph-name="l" unicode="l" horiz-adv-x="329" 
d="M28 -3v37q44 3 55.5 13t11.5 41v511q0 19 -14 27t-48 10v36q99 6 200 39v-623q0 -30 15 -41t52 -13v-37q-31 3 -97 3h-97q-54 0 -78 -3z" />
    <glyph glyph-name="m" unicode="m" horiz-adv-x="877" 
d="M27 -3v38q38 4 48.5 15.5t10.5 46.5v219q0 39 -10.5 53t-47.5 15v35q83 8 171 34h13l6 -90q59 90 158 90q97 0 128 -86q62 86 156 86q72 0 102.5 -38t30.5 -119v-195q0 -42 9.5 -53.5t49.5 -12.5v-38q-59 3 -116 3q-77 0 -135 -3v37q34 1 45.5 14.5t11.5 52.5v202
q0 78 -55 78q-42 0 -68.5 -35.5t-26.5 -95.5v-146q0 -41 9.5 -54.5t42.5 -14.5v-38q-62 3 -118 3q-70 0 -126 -3v38q34 1 45 13t11 49v211q0 38 -13 55.5t-43 17.5q-41 0 -67.5 -36t-26.5 -95v-146q0 -39 9.5 -53t43.5 -16v-38q-61 3 -125 3q-70 0 -123 -3z" />
    <glyph glyph-name="n" unicode="n" horiz-adv-x="602" 
d="M27 -3v36q42 4 52 14t10 43v223q0 40 -12.5 53t-49.5 13v37q84 6 170 35h17l6 -88q69 88 163 88q141 0 141 -159v-202q0 -34 9.5 -44t49.5 -13v-36q-69 3 -130 3q-53 0 -125 -3v36q35 0 46 11.5t11 45.5v202q0 86 -60 86q-43 0 -70 -34.5t-27 -92.5v-156q0 -35 12 -48
t47 -14v-36q-89 3 -139 3q-56 0 -121 -3z" />
    <glyph glyph-name="o" unicode="o" horiz-adv-x="547" 
d="M25 217q0 102 70.5 168t183.5 66q107 0 175 -63.5t68 -162.5q0 -107 -69.5 -173t-182.5 -66q-107 0 -176 65t-69 166zM176 215q0 -100 21.5 -143.5t77.5 -43.5q53 0 75 47t22 151q0 93 -23 138t-73 45q-53 0 -76.5 -47t-23.5 -147z" />
    <glyph glyph-name="p" unicode="p" horiz-adv-x="610" 
d="M17 -280v35q46 4 60 16.5t14 52.5v450q0 63 -11.5 85t-56.5 22v39q100 8 176 31h19v-85q67 85 153 85q88 0 146.5 -65.5t58.5 -167.5t-59.5 -167.5t-149.5 -65.5q-74 0 -141 58v-211q0 -45 14 -59.5t63 -17.5v-35q-92 5 -146 5q-20 0 -140 -5zM226 156q0 -106 91 -106
q57 0 83.5 41.5t26.5 128.5q0 159 -103 159q-43 0 -70.5 -33t-27.5 -88v-102z" />
    <glyph glyph-name="q" unicode="q" horiz-adv-x="556" 
d="M281 -280v37q51 4 64.5 14t13.5 45v231q-59 -62 -130 -62q-87 0 -142 62.5t-55 161.5q0 104 65 173.5t162 69.5q84 0 146 -49l72 48h19v-635q0 -34 11.5 -46t46.5 -13v-37q-117 5 -150 5q-50 0 -123 -5zM359 172v121q0 59 -17 86t-60 27q-104 0 -104 -189q0 -166 90 -166
q50 0 70.5 28.5t20.5 92.5z" />
    <glyph glyph-name="r" unicode="r" horiz-adv-x="439" 
d="M30 -2v37q38 4 50.5 14t12.5 38v204q0 51 -12 70.5t-50 20.5v35q112 13 169 35h17l8 -87q55 82 126 82q39 0 60.5 -18.5t21.5 -52.5q0 -28 -17 -44.5t-45 -16.5q-20 0 -34.5 13t-25 26t-19.5 13q-20 0 -39 -29.5t-19 -65.5v-188q0 -30 15 -39.5t55 -9.5v-37q-92 2 -142 2
q-73 0 -132 -2z" />
    <glyph glyph-name="s" unicode="s" horiz-adv-x="438" 
d="M48 -8q2 30 2 74q0 45 -2 75h36q15 -51 54.5 -81.5t84.5 -30.5q32 0 53.5 16.5t21.5 40.5q0 15 -5 25t-18.5 19t-25.5 14t-37 14q-88 32 -122.5 61t-34.5 89q0 65 40.5 104.5t108.5 39.5q73 0 118 -38l19 33h38q-1 -23 -1 -65t1 -67h-38q-18 45 -52 70t-74 25
q-30 0 -48 -14.5t-18 -36.5q0 -9 2 -16.5t8 -13.5t11 -9.5t16.5 -8.5t19.5 -7.5l25 -8t28 -9.5q74 -25 108.5 -61.5t34.5 -92.5q0 -65 -45.5 -105.5t-122.5 -40.5q-91 0 -133 44l-15 -38h-38z" />
    <glyph glyph-name="t" unicode="t" horiz-adv-x="328" 
d="M74 123v271h-50v40q102 18 149 146h39v-140h103v-46h-103v-288q0 -28 6.5 -39.5t26.5 -11.5q30 0 55 38l34 -28q-51 -79 -145 -79q-65 0 -90 32t-25 105z" />
    <glyph glyph-name="u" unicode="u" horiz-adv-x="604" 
d="M84 128v197q0 47 -10 63t-49 18v34q40 1 105.5 1.5t90.5 1.5v-304q0 -78 57 -78q98 0 98 159v111q0 44 -11 59t-50 16v34q31 1 97.5 1.5t101.5 1.5v-340q0 -24 10.5 -33t38.5 -9h12v-35q-88 -10 -172 -34h-15l-8 83q-63 -88 -161 -88q-69 0 -102 34.5t-33 106.5z" />
    <glyph glyph-name="v" unicode="v" horiz-adv-x="498" 
d="M224 -7l-155 348q-14 33 -29 48t-40 17v35q46 -2 55 -2q109 0 202 3v-35q-54 -4 -54 -27q0 -11 6 -26l85 -199l36 79q46 101 46 141q0 17 -10.5 22.5t-42.5 9.5v35q22 -2 67 -2q26 0 108 2v-35q-46 -6 -71 -62l-160 -352h-43z" />
    <glyph glyph-name="w" unicode="w" horiz-adv-x="714" 
d="M201 -6l-131 339q-15 40 -29.5 56.5t-40.5 18.5v34q80 -2 122 -2q5 0 22 0.5t50.5 1t66.5 0.5v-34q-34 -1 -47.5 -7.5t-13.5 -25.5t6 -35l63 -166l112 268h39l104 -284l57 143q18 46 18 70q0 18 -14 26.5t-48 12.5v33q53 -3 88 -3q16 0 49 1.5t40 1.5v-35
q-13 -1 -23 -6.5t-16.5 -10.5t-13.5 -18l-10.5 -20t-11 -26.5t-11.5 -28.5l-126 -304h-42l-109 261l-105 -261h-45z" />
    <glyph glyph-name="x" unicode="x" horiz-adv-x="599" 
d="M34 -3v37q63 5 107 55l91 104l-144 176q-9 12 -14.5 17t-16.5 10.5t-27 6.5v38q6 0 15.5 -0.5t12.5 -0.5h137q90 0 105 2v-36q-47 -2 -47 -19q0 -10 10 -21l66 -77l46 49q26 26 26 46q0 19 -51 22v35q18 -1 43 -1h73q58 0 76 1v-34q-23 -2 -43 -12t-32.5 -21.5
t-32.5 -34.5l-78 -85l143 -180q24 -31 71 -40v-37q-69 3 -139 3q-71 0 -141 -3v37q41 2 46 9q2 4 2 9q0 13 -11 26l-68 79l-44 -49q-29 -32 -29 -50q0 -13 11 -18.5t38 -8.5v-34q-25 0 -48.5 1l-36 1.5t-16.5 0.5q-16 0 -100 -3z" />
    <glyph glyph-name="y" unicode="y" horiz-adv-x="545" 
d="M245 -4l-150 346q-1 3 -3 7q-10 24 -15.5 33.5t-17.5 17t-31 7.5v36q54 -3 142 -3q60 0 115 3v-36q-29 0 -41 -5t-12 -21q0 -14 8 -34l77 -197l59 131q26 57 26 88q0 21 -12.5 29.5t-42.5 8.5v36q26 -1 55.5 -2t34.5 -1q11 0 85 3v-36q-15 -1 -27 -7.5t-23.5 -24.5
t-18 -31.5t-21 -47.5t-23.5 -53l-162 -354q-41 -90 -71.5 -129t-69.5 -39q-27 0 -43.5 15.5t-16.5 40.5q0 33 28.5 52.5t72.5 19.5q27 0 55 57z" />
    <glyph glyph-name="z" unicode="z" horiz-adv-x="437" 
d="M20 0v33l233 365h-60q-50 0 -78 -24t-38 -77h-42l11 143h367v-37l-229 -359h65q61 0 88.5 23t39.5 86h40l-10 -153h-387z" />
    <glyph glyph-name="braceleft" unicode="{" 
d="M416 740v-30q-62 -1 -82 -28.5t-20 -100.5v-65q0 -100 -22.5 -144t-99.5 -62q77 -17 99.5 -60.5t22.5 -144.5v-66q0 -73 20 -100.5t82 -28.5v-29q-115 0 -156.5 35.5t-41.5 133.5v94q0 79 -26.5 110t-104.5 38v37q78 7 104.5 38t26.5 110v94q0 98 41.5 133.5t156.5 35.5z
" />
    <glyph glyph-name="bar" unicode="|" 
d="M200 764h101v-1000h-101v1000z" />
    <glyph glyph-name="braceright" unicode="}" 
d="M84 740q115 0 157 -35.5t42 -133.5v-94q0 -79 26.5 -110t104.5 -38v-37q-78 -7 -104.5 -38t-26.5 -110v-94q0 -96 -41 -132.5t-152 -36.5h-6v29q62 1 82 28.5t20 100.5v66q0 101 22.5 144.5t99.5 60.5q-77 18 -99.5 62t-22.5 144v65q0 73 -20 100.5t-82 28.5v30z" />
    <glyph glyph-name="asciitilde" unicode="~" horiz-adv-x="833" 
d="M747 392v-108q-99 -67 -185 -67q-45 0 -90 15q-11 4 -39.5 13.5l-42 14t-36 10.5t-41.5 8.5t-38 2.5q-80 0 -188 -77v108q104 70 189 70q57 0 144 -29l28 -9.5l29.5 -10t26.5 -8t30.5 -6.5t29.5 -2q80 0 183 75z" />
    <glyph glyph-name="exclamdown" unicode="&#xa1;" horiz-adv-x="331" 
d="M184 466q1 -97 30.5 -222t29.5 -157q0 -47 -21.5 -74t-57.5 -27t-57 27t-21 74q0 34 29 158t31 221h37zM249 602q0 -35 -24.5 -59t-59.5 -24t-59 24t-24 59q0 34 24 58.5t59 24.5t59.5 -24.5t24.5 -58.5z" />
    <glyph glyph-name="cent" unicode="&#xa2;" horiz-adv-x="551" 
d="M141 -127l55 143q-134 56 -134 215q0 100 68 166.5t172 66.5q34 0 63 -4l46 120h42l-48 -130q78 -29 78 -81q0 -25 -15.5 -41t-39.5 -16q-36 0 -61 40l-102 -266q28 -25 70 -25q63 0 118 68l36 -29q-80 -103 -206 -103q-26 0 -51 5l-48 -129h-43zM236 120l108 285
q-14 15 -43 15q-89 0 -89 -181q0 -86 24 -119z" />
    <glyph glyph-name="sterling" unicode="&#xa3;" horiz-adv-x="551" 
d="M250 63q-47 -79 -130 -79q-45 0 -72 24.5t-27 65.5q0 44 28.5 70.5t73.5 26.5q43 0 80 -18q0 73 -33 171h-120v49h105q-21 78 -21 122q0 87 55 138.5t151 51.5q77 0 124 -33t47 -79q0 -23 -14.5 -38t-37.5 -15q-27 0 -39 15.5t-21 53.5q-7 31 -20.5 43t-46.5 12
q-37 0 -61 -24.5t-24 -64.5q0 -19 6.5 -44.5t18.5 -66t19 -71.5h132v-49h-124q6 -38 6 -83q0 -64 -22 -113q76 -25 136 -25q51 0 81 29q4 4 8 9.5t6 9.5t5.5 7t6.5 3q11 0 11 -23q0 -66 -37 -110t-96 -44q-67 0 -154 79zM199 100q-39 31 -79 31q-27 0 -44 -15.5t-17 -40.5
q0 -23 15 -36.5t42 -13.5q66 0 83 75z" />
    <glyph glyph-name="currency" unicode="&#xa4;" horiz-adv-x="551" 
d="M473 232h39v-233h-30l-16 56q-74 -74 -160 -74q-96 0 -163.5 72t-85.5 199h-57l22 50h32v45q0 10 1 15h-64l22 50h48q22 126 90.5 198.5t161.5 72.5q79 0 142 -64l13 56h34l4 -215h-38q-15 84 -47 128t-76 44q-51 0 -87 -57.5t-46 -162.5h202l-22 -50h-183v-60h157
l-22 -50h-132q9 -102 44 -157t88 -55q100 0 129 192z" />
    <glyph glyph-name="yen" unicode="&#xa5;" horiz-adv-x="653" 
d="M160 -3v41q58 1 78 18.5t20 69.5v110h-239v42h230l-42 75h-188v42h165l-85 154q-17 31 -26.5 44.5t-27.5 25t-45 13.5v39q76 -3 138 -3q85 0 169 3v-39q-75 -1 -75 -37q0 -20 38 -91l98 -179l99 163q39 64 39 96q0 26 -16.5 36t-56.5 12v39q35 -3 106 -3q65 0 108 3v-39
q-50 -9 -78 -56l-109 -181h164v-42h-190l-46 -75h236v-42h-238v-106q0 -54 20.5 -73t78.5 -19v-41q-75 3 -165 3q-118 0 -160 -3z" />
    <glyph glyph-name="brokenbar" unicode="&#xa6;" 
d="M200 699h101v-370h-101v370zM200 199h101v-370h-101v370z" />
    <glyph glyph-name="section" unicode="&#xa7;" 
d="M315 121q92 -77 92 -145q0 -55 -47.5 -90t-128.5 -35q-68 0 -110 30t-42 75q0 30 18 48.5t48 18.5q24 0 40 -16.5t16 -39.5q0 -19 -15.5 -36t-15.5 -22q0 -13 17 -22t45 -9q40 0 62.5 19t22.5 51q0 20 -14 41.5t-30 36.5t-54 47l-88 77q-86 72 -86 138q0 53 38 87t102 38
q-48 41 -70 74t-22 69q0 59 44 94t121 35q65 0 105.5 -30t40.5 -75q0 -29 -17 -47t-45 -18q-26 0 -43 15t-17 37q0 16 15.5 34.5t15.5 24.5q0 12 -16 22.5t-40 10.5q-34 0 -54.5 -18t-20.5 -48t23.5 -58.5t77.5 -75.5l87 -73q85 -72 85 -142q0 -51 -37.5 -85t-102.5 -38z
M127 325q0 -46 65 -102q46 -40 71 -57t44 -17q28 0 47 18t19 45q0 41 -63 101q-77 74 -119 74q-27 0 -45.5 -18.5t-18.5 -43.5z" />
    <glyph glyph-name="dieresis" unicode="&#xa8;" 
d="M287 585q0 22 16.5 38.5t38.5 16.5t38.5 -16t16.5 -39q0 -24 -15.5 -39.5t-39.5 -15.5q-23 0 -39 15.5t-16 39.5zM99 585q0 22 16.5 38.5t38.5 16.5t38.5 -16t16.5 -39q0 -24 -15.5 -39.5t-39.5 -15.5t-39.5 15.5t-15.5 39.5z" />
    <glyph glyph-name="copyright" unicode="&#xa9;" horiz-adv-x="822" 
d="M412 690q144 0 251 -105q50 -50 78 -117t28 -137q0 -145 -106 -253q-102 -104 -252 -104q-146 0 -252 104q-105 105 -105 253q0 149 104 253q106 106 254 106zM412 639q-128 0 -217 -91t-89 -217q0 -128 89 -217t216 -89q128 0 215 89q90 92 90 217q0 131 -89 218
q-90 90 -215 90zM550 538h22v-159h-23q-16 64 -49.5 98.5t-79.5 34.5q-114 0 -114 -178q0 -184 120 -184q78 0 133 85l22 -14q-61 -105 -170 -105q-91 0 -151 60t-60 148q0 94 59.5 155t148.5 61q39 0 75 -16t39 -16q22 0 28 30z" />
    <glyph glyph-name="ordfeminine" unicode="&#xaa;" horiz-adv-x="372" 
d="M320 591v-165q0 -16 8 -16q9 0 27 12l20 -24q-34 -45 -96 -45q-53 0 -67 42q-49 -42 -105 -42q-43 0 -67.5 22.5t-24.5 60.5q0 40 30 64.5t98 48.5l53 19q16 6 16 20v23q0 40 -37 40q-31 0 -43 -25q-2 -4 -6 -13t-6 -13t-7 -10.5t-9.5 -9.5t-12.5 -5.5t-17 -2.5
q-20 0 -33 12t-13 31q0 32 38 51.5t107 19.5q147 0 147 -95zM208 532q-41 -13 -59.5 -30.5t-18.5 -45.5q0 -38 31 -38q18 0 32.5 12t14.5 31v71zM41 290h307v-55h-307v55z" />
    <glyph glyph-name="guillemotleft" unicode="&#xab;" horiz-adv-x="458" 
d="M56 227q50 40 94.5 80.5l63.5 58t23 17.5q8 0 8 -8q0 -18 -95 -148q95 -127 95 -147q0 -8 -8 -8q-5 0 -23.5 17.5l-63 57.5t-94.5 80zM213 227q50 40 94.5 80.5l63.5 58t23 17.5q8 0 8 -8q0 -18 -95 -148q95 -127 95 -147q0 -8 -7 -8q-5 0 -23.5 17.5l-63.5 57.5t-95 80z
" />
    <glyph glyph-name="logicalnot" unicode="&#xac;" horiz-adv-x="833" 
d="M124 422h585v-245h-97v149h-488v96z" />
    <glyph glyph-name="registered" unicode="&#xae;" horiz-adv-x="822" 
d="M412 690q71 0 139 -29t118 -81q99 -102 99 -255q0 -67 -29.5 -134.5t-83.5 -119.5q-100 -97 -244 -97q-108 0 -196 59q-77 51 -119 129t-42 169q0 147 104 253t254 106zM412 639q-128 0 -217 -91t-89 -217q0 -128 89 -217t216 -89q128 0 215 89q90 92 90 217
q0 61 -23.5 118.5t-66.5 99.5q-90 90 -214 90zM227 536h197q73 0 115 -28t42 -69q0 -43 -32 -66.5t-104 -35.5q91 -21 107 -95q3 -12 4 -35t5.5 -32.5t17.5 -9.5q28 0 28 57v6h25v-11q0 -88 -84 -88q-47 0 -68 27q-9 12 -12 28t-4 37.5t-3 32.5q-13 75 -81 75h-9v-120
q0 -23 10 -32t38 -13v-25h-192v25q30 2 41 11t11 34v255q0 24 -11 34t-41 12v26zM371 353q7 -1 21 -1q94 0 94 88q0 28 -20.5 49.5t-52.5 21.5q-42 0 -42 -32v-126z" />
    <glyph glyph-name="macron" unicode="&#xaf;" 
d="M116 551v68h264v-68h-264z" />
    <glyph glyph-name="degree" unicode="&#xb0;" horiz-adv-x="329" 
d="M165 715q61 0 104.5 -43.5t43.5 -105.5q0 -61 -43.5 -104.5t-105.5 -43.5t-104.5 43t-42.5 105t43 105.5t105 43.5zM165 652q-35 0 -60.5 -25t-25.5 -60q0 -36 25 -61t61 -25t60.5 25.5t24.5 60.5t-25 60t-60 25z" />
    <glyph glyph-name="plusminus" unicode="&#xb1;" horiz-adv-x="833" 
d="M367 597h99v-159h243v-97h-243v-159h-99v159h-243v97h243v159zM124 96h585v-97h-585v97z" />
    <glyph glyph-name="twosuperior" unicode="&#xb2;" horiz-adv-x="364" 
d="M22 267q9 21 20.5 40t27.5 38.5l26 31.5t31.5 34t28.5 30q57 63 57 128q0 38 -17.5 60t-46.5 22q-26 0 -40.5 -14.5t-14.5 -40.5q0 -18 10 -30t25 -12t29 9q2 -10 2 -11q0 -20 -15 -33t-40 -13q-33 0 -54.5 21t-21.5 53q0 41 39.5 69.5t102.5 28.5t102.5 -31t39.5 -82
q0 -38 -17.5 -63t-58.5 -57l-49 -35t-49.5 -37t-31.5 -29h206l-27 -112h-25q4 20 4 21q0 10 -6.5 12t-26.5 2h-210z" />
    <glyph glyph-name="threesuperior" unicode="&#xb3;" horiz-adv-x="364" 
d="M194 500v-5h5q54 0 86 -27t32 -71q0 -50 -42 -87q-59 -53 -140 -53q-53 0 -84 19t-31 48q0 13 12 22.5t28 9.5q26 0 44 -36t45 -36q31 0 49 26t18 73q0 90 -47 90q-21 0 -38 -24q-12 -18 -26 -18q-21 0 -21 17q0 7 4.5 12.5t9.5 8.5t16.5 9t18.5 10q69 40 69 102
q0 26 -15 42t-39 16q-22 0 -37 -12.5t-15 -29.5q0 -12 7.5 -20t18.5 -8q12 0 25 8q0 -1 0.5 -4t0.5 -5q0 -20 -15 -32t-41 -12q-23 0 -38 14.5t-15 38.5q0 36 40.5 64.5t98.5 28.5q52 0 82.5 -22t30.5 -57q0 -63 -97 -100z" />
    <glyph glyph-name="acute" unicode="&#xb4;" 
d="M162 506l135 146q27 30 53 30q15 0 25.5 -11t10.5 -27q0 -14 -9.5 -24.5t-31.5 -24.5l-146 -89h-37z" />
    <glyph glyph-name="mu" unicode="&#xb5;" horiz-adv-x="587" 
d="M87 102q-5 -38 -10 -83t-7.5 -71t-7 -55.5t-9 -45t-12 -29.5t-18.5 -19.5t-26 -5.5q-26 0 -41 15t-15 41q0 20 12.5 63.5l34.5 119.5t38 150l53 250h125l-48 -224q-11 -50 -11 -72q0 -29 15 -45t41 -16q68 0 90 107l53 250h125l-56 -260q-8 -37 -8 -54q0 -43 36 -43
t54 38q4 8 8 19t6.5 17t6 11.5t7.5 8t9 2.5q16 0 16 -19q0 -42 -29 -93q-39 -71 -115 -71q-81 0 -90 97q-20 -51 -48 -74t-73 -23t-73 29.5t-33 84.5z" />
    <glyph glyph-name="paragraph" unicode="&#xb6;" 
d="M480 722v-54h-55v-668h-74v668h-78v-668h-74v383q-82 3 -130.5 49.5t-48.5 119.5q0 76 52 123t139 47h269z" />
    <glyph glyph-name="periodcentered" unicode="&#xb7;" horiz-adv-x="275" 
d="M54 341q0 35 24.5 59t59.5 24t59 -24t24 -59q0 -34 -24 -59t-59 -25q-34 0 -59 24.5t-25 59.5z" />
    <glyph glyph-name="cedilla" unicode="&#xb8;" 
d="M131 -185l19 44q60 -38 113 -38q54 0 54 44q0 42 -53 42q-14 0 -30 -3v96h32v-56q10 2 30 2q43 0 67 -21.5t24 -59.5q0 -41 -29 -64t-81 -23q-57 0 -146 37z" />
    <glyph glyph-name="onesuperior" unicode="&#xb9;" horiz-adv-x="364" 
d="M71 265v24q40 0 51.5 8.5t11.5 37.5v252q0 23 -10 29.5t-43 6.5h-10v22q87 8 139 33h23q-2 -46 -2 -50v-294q0 -28 12 -36.5t52 -8.5v-24q-90 2 -111 2q-37 0 -113 -2z" />
    <glyph glyph-name="ordmasculine" unicode="&#xba;" horiz-adv-x="410" 
d="M209 686q82 0 134.5 -46t52.5 -116q0 -76 -53.5 -123.5t-140.5 -47.5q-83 0 -135.5 47t-52.5 119t54 119.5t141 47.5zM204 649q-68 0 -68 -138q0 -65 15.5 -93t54.5 -28q37 0 52.5 32t15.5 103q0 64 -16.5 94t-53.5 30zM42 290h326v-55h-326v55z" />
    <glyph glyph-name="guillemotright" unicode="&#xbb;" horiz-adv-x="458" 
d="M245 227q-50 -40 -95 -80l-63.5 -57.5t-22.5 -17.5q-8 0 -8 7q0 20 94 148q-95 127 -95 148q0 8 8 8q5 0 23.5 -17.5l63.5 -58t95 -80.5zM402 227q-50 -40 -95 -80l-63.5 -57.5t-22.5 -17.5q-8 0 -8 7q0 18 95 148q-95 127 -95 148q0 8 8 8q5 0 23.5 -17.5l63 -58
t94.5 -80.5z" />
    <glyph glyph-name="onequarter" unicode="&#xbc;" horiz-adv-x="861" 
d="M68 292v22q37 0 48 8t11 36v234q0 22 -9.5 28.5t-41.5 6.5h-8v20q85 8 132 31h22q-2 -44 -2 -47v-274q0 -26 11.5 -34.5t49.5 -8.5v-22q-86 2 -106 2q-35 0 -107 -2zM180 -16l448 701h52l-447 -701h-53zM627 -1v22q40 2 51 8.5t11 30.5v53h-164v34l209 237h45v-238h66
v-33h-66v-55q0 -23 12 -29t49 -8v-22q-37 1 -106 1q-75 0 -107 -1zM563 146h126l5 151z" />
    <glyph glyph-name="onehalf" unicode="&#xbd;" horiz-adv-x="861" 
d="M68 292v22q37 0 48 8t11 36v234q0 22 -9.5 28.5t-41.5 6.5h-8v20q85 8 132 31h22q-2 -44 -2 -47v-274q0 -26 11.5 -34.5t49.5 -8.5v-22q-86 2 -106 2q-35 0 -107 -2zM180 -16l448 701h52l-447 -701h-53zM535 0q9 19 19 36.5t27 37l24.5 28.5t31 33l26.5 27q54 60 54 120
q0 35 -17 55.5t-44 20.5q-24 0 -38.5 -13.5t-14.5 -37.5q0 -17 10 -28t24 -11q16 0 28 8q1 -4 1 -10q0 -18 -14.5 -30.5t-37.5 -12.5q-31 0 -51.5 19.5t-20.5 49.5q0 39 37.5 65.5t97.5 26.5q61 0 98.5 -29t37.5 -77q0 -36 -16.5 -59t-56.5 -53q-17 -13 -46.5 -33t-47.5 -34
t-30 -27h197l-26 -104h-24q4 16 4 19q0 9 -6 11t-25 2h-201z" />
    <glyph glyph-name="threequarters" unicode="&#xbe;" horiz-adv-x="861" 
d="M185 511v-4h5q51 0 81.5 -25t30.5 -66q0 -48 -40 -82q-55 -49 -133 -49q-50 0 -79.5 17.5t-29.5 44.5q0 12 10.5 21t26.5 9q25 0 43 -34q16 -33 42 -33q30 0 47 24.5t17 68.5q0 83 -45 83q-21 0 -36 -22q-12 -17 -25 -17q-19 0 -19 16q0 5 2 9t7 8t9.5 6.5l13 7l14.5 7.5
q66 37 66 95q0 24 -14.5 39t-37.5 15q-21 0 -35 -11.5t-14 -28.5q0 -11 7 -18t18 -7q12 0 23 7q0 -1 0.5 -3.5t0.5 -4.5q0 -19 -14 -30t-39 -11q-22 0 -36.5 13.5t-14.5 34.5q0 34 38.5 60.5t94.5 26.5q49 0 78.5 -20t29.5 -53q0 -58 -93 -94zM180 -16l448 701h52l-447 -701
h-53zM627 -1v22q40 2 51 8.5t11 30.5v53h-164v34l209 237h45v-238h66v-33h-66v-55q0 -23 12 -29t49 -8v-22q-37 1 -106 1q-75 0 -107 -1zM563 146h126l5 151z" />
    <glyph glyph-name="questiondown" unicode="&#xbf;" horiz-adv-x="438" 
d="M385 602q0 -35 -24.5 -59t-59.5 -24t-59 24t-24 59q0 34 24.5 58.5t59.5 24.5q34 0 58.5 -24.5t24.5 -58.5zM319 454v-204q-14 2 -50 2q-77 0 -112.5 -17.5t-35.5 -61.5q0 -41 25.5 -66.5t68.5 -25.5q19 0 53.5 6.5t51.5 6.5q65 0 65 -55q0 -53 -80 -53q-63 0 -124 36
q-54 31 -87.5 86.5t-33.5 112.5q0 152 185 152q20 0 31 -1v82h43z" />
    <glyph glyph-name="Agrave" unicode="&#xc0;" horiz-adv-x="711" 
d="M212 256h184l-88 233zM-4 -3v41q69 6 100 78l241 568h50l225 -566q17 -41 38 -59t63 -21v-41q-87 3 -173 3q-85 0 -172 -3v41q50 2 68.5 9.5t18.5 30.5q0 25 -20 76l-20 53h-224l-17 -39q-20 -47 -20 -75q0 -55 82 -55v-41q-63 3 -123 3q-59 0 -117 -3zM449 740h-36
l-147 89q-22 14 -31.5 24.5t-9.5 24.5q0 16 11 27t26 11q25 0 52 -30z" />
    <glyph glyph-name="Aacute" unicode="&#xc1;" horiz-adv-x="711" 
d="M212 256h184l-88 233zM-4 -3v41q69 6 100 78l241 568h50l225 -566q17 -41 38 -59t63 -21v-41q-87 3 -173 3q-85 0 -172 -3v41q50 2 68.5 9.5t18.5 30.5q0 25 -20 76l-20 53h-224l-17 -39q-20 -47 -20 -75q0 -55 82 -55v-41q-63 3 -123 3q-59 0 -117 -3zM277 740l135 146
q27 30 53 30q15 0 25.5 -11t10.5 -27q0 -14 -9.5 -24.5t-31.5 -24.5l-146 -89h-37z" />
    <glyph glyph-name="Acircumflex" unicode="&#xc2;" horiz-adv-x="711" 
d="M212 256h184l-88 233zM-4 -3v41q69 6 100 78l241 568h50l225 -566q17 -41 38 -59t63 -21v-41q-87 3 -173 3q-85 0 -172 -3v41q50 2 68.5 9.5t18.5 30.5q0 25 -20 76l-20 53h-224l-17 -39q-20 -47 -20 -75q0 -55 82 -55v-41q-63 3 -123 3q-59 0 -117 -3zM219 740l112 170
h65l111 -170h-36l-108 95l-108 -95h-36z" />
    <glyph glyph-name="Atilde" unicode="&#xc3;" horiz-adv-x="711" 
d="M212 256h184l-88 233zM-4 -3v41q69 6 100 78l241 568h50l225 -566q17 -41 38 -59t63 -21v-41q-87 3 -173 3q-85 0 -172 -3v41q50 2 68.5 9.5t18.5 30.5q0 25 -20 76l-20 53h-224l-17 -39q-20 -47 -20 -75q0 -55 82 -55v-41q-63 3 -123 3q-59 0 -117 -3zM501 895
q-21 -112 -95 -112q-12 0 -25 3l-52 13q-17 4 -26 4q-21 0 -32 -10t-18 -34h-28q22 113 96 113q16 0 31 -4l53 -13q12 -3 25 -3q33 0 43 43h28z" />
    <glyph glyph-name="Adieresis" unicode="&#xc4;" horiz-adv-x="711" 
d="M212 256h184l-88 233zM-4 -3v41q69 6 100 78l241 568h50l225 -566q17 -41 38 -59t63 -21v-41q-87 3 -173 3q-85 0 -172 -3v41q50 2 68.5 9.5t18.5 30.5q0 25 -20 76l-20 53h-224l-17 -39q-20 -47 -20 -75q0 -55 82 -55v-41q-63 3 -123 3q-59 0 -117 -3zM402 819
q0 22 16.5 38.5t38.5 16.5q23 0 39 -16t16 -39q0 -24 -15.5 -39.5t-39.5 -15.5q-23 0 -39 15.5t-16 39.5zM214 819q0 22 16.5 38.5t38.5 16.5q23 0 39 -16t16 -39q0 -24 -15.5 -39.5t-39.5 -15.5t-39.5 15.5t-15.5 39.5z" />
    <glyph glyph-name="Aring" unicode="&#xc5;" horiz-adv-x="711" 
d="M-4 -3v41q69 6 100 78l241 568h50l225 -566q17 -41 38 -59t63 -21v-41q-87 3 -173 3q-85 0 -172 -3v41q50 2 68.5 9.5t18.5 30.5q0 25 -20 76l-20 53h-224l-17 -39q-20 -47 -20 -75q0 -55 82 -55v-41q-63 3 -123 3q-59 0 -117 -3zM212 256h184l-88 233zM237 839
q0 51 35.5 85.5t86.5 34.5t86 -34.5t35 -85.5t-35 -86t-86 -35t-86.5 35t-35.5 86zM289 838q0 -29 20.5 -49t49.5 -20t49 20t20 49t-20 49.5t-49 20.5t-49.5 -20.5t-20.5 -49.5z" />
    <glyph glyph-name="AE" unicode="&#xc6;" horiz-adv-x="910" 
d="M227 337h152v285q0 14 -10 14q-9 0 -15 -15zM880 201v-204q-104 3 -316 3q-225 0 -278 -3v41q59 1 75.5 21.5t16.5 83.5v144h-175l-65 -141q-16 -35 -16 -57q0 -49 75 -51v-41q-54 3 -90 3q-43 0 -124 -3v41q35 8 57.5 33t45.5 73l193 419q12 27 12 37q0 22 -18 28.5
t-72 8.5v36q29 -2 90 -2h98q270 0 450 5v-175h-40q-12 72 -58.5 99.5t-143.5 27.5q-60 0 -60 -19v-235h16q59 0 86.5 25t36.5 88h40q-2 -84 -2 -128q0 -31 2 -143h-38q-10 60 -38 86t-82 26q-14 0 -21 -1v-188q0 -89 115 -89q88 0 132.5 34.5t57.5 116.5h38z" />
    <glyph glyph-name="Ccedilla" unicode="&#xc7;" horiz-adv-x="711" 
d="M617 234h42v-234h-41l-22 57q-100 -75 -218 -75q-152 0 -247 94.5t-95 245.5q0 129 67 220q105 142 285 142q114 0 196 -63l17 56h44l6 -216h-42q-22 83 -72 128t-116 45q-93 0 -149.5 -80t-56.5 -220q0 -139 54.5 -215.5t149.5 -76.5q155 0 198 192zM256 -185l19 44
q60 -38 113 -38q54 0 54 44q0 42 -53 42q-13 0 -30 -3v96h32v-56q10 2 30 2q43 0 67 -21.5t24 -59.5q0 -41 -29 -64t-81 -23q-57 0 -146 37z" />
    <glyph glyph-name="Egrave" unicode="&#xc8;" horiz-adv-x="661" 
d="M35 -5v42q61 0 77.5 26t16.5 105v370q0 54 -18.5 75.5t-67.5 21.5h-8v39q105 -6 205 -6q155 0 347 6v-175h-41q-18 79 -59.5 101.5t-144.5 22.5q-38 0 -47 -5t-9 -26v-220h17q59 0 85.5 24.5t38.5 87.5h42q-5 -54 -5 -131q0 -69 5 -139h-40q-11 63 -39.5 87.5t-90.5 24.5
h-13v-179q0 -53 26.5 -75.5t87.5 -22.5q89 0 131.5 32t58.5 118h37v-203q-150 4 -366 4h-59q-113 0 -167 -5zM432 740h-36l-147 89q-22 14 -31.5 24.5t-9.5 24.5q0 16 11 27t26 11q25 0 52 -30z" />
    <glyph glyph-name="Eacute" unicode="&#xc9;" horiz-adv-x="661" 
d="M35 -5v42q61 0 77.5 26t16.5 105v370q0 54 -18.5 75.5t-67.5 21.5h-8v39q105 -6 205 -6q155 0 347 6v-175h-41q-18 79 -59.5 101.5t-144.5 22.5q-38 0 -47 -5t-9 -26v-220h17q59 0 85.5 24.5t38.5 87.5h42q-5 -54 -5 -131q0 -69 5 -139h-40q-11 63 -39.5 87.5t-90.5 24.5
h-13v-179q0 -53 26.5 -75.5t87.5 -22.5q89 0 131.5 32t58.5 118h37v-203q-150 4 -366 4h-59q-113 0 -167 -5zM260 740l135 146q27 30 53 30q15 0 25.5 -11t10.5 -27q0 -14 -9.5 -24.5t-31.5 -24.5l-146 -89h-37z" />
    <glyph glyph-name="Ecircumflex" unicode="&#xca;" horiz-adv-x="661" 
d="M35 -5v42q61 0 77.5 26t16.5 105v370q0 54 -18.5 75.5t-67.5 21.5h-8v39q105 -6 205 -6q155 0 347 6v-175h-41q-18 79 -59.5 101.5t-144.5 22.5q-38 0 -47 -5t-9 -26v-220h17q59 0 85.5 24.5t38.5 87.5h42q-5 -54 -5 -131q0 -69 5 -139h-40q-11 63 -39.5 87.5t-90.5 24.5
h-13v-179q0 -53 26.5 -75.5t87.5 -22.5q89 0 131.5 32t58.5 118h37v-203q-150 4 -366 4h-59q-113 0 -167 -5zM202 740l112 170h65l111 -170h-36l-108 95l-108 -95h-36z" />
    <glyph glyph-name="Edieresis" unicode="&#xcb;" horiz-adv-x="661" 
d="M35 -5v42q61 0 77.5 26t16.5 105v370q0 54 -18.5 75.5t-67.5 21.5h-8v39q105 -6 205 -6q155 0 347 6v-175h-41q-18 79 -59.5 101.5t-144.5 22.5q-38 0 -47 -5t-9 -26v-220h17q59 0 85.5 24.5t38.5 87.5h42q-5 -54 -5 -131q0 -69 5 -139h-40q-11 63 -39.5 87.5t-90.5 24.5
h-13v-179q0 -53 26.5 -75.5t87.5 -22.5q89 0 131.5 32t58.5 118h37v-203q-150 4 -366 4h-59q-113 0 -167 -5zM385 819q0 22 16.5 38.5t38.5 16.5t38.5 -16t16.5 -39q0 -24 -15.5 -39.5t-39.5 -15.5q-23 0 -39 15.5t-16 39.5zM197 819q0 22 16.5 38.5t38.5 16.5t38.5 -16
t16.5 -39q0 -24 -15.5 -39.5t-39.5 -15.5t-39.5 15.5t-15.5 39.5z" />
    <glyph glyph-name="Igrave" unicode="&#xcc;" horiz-adv-x="437" 
d="M43 -3v40q61 1 78 20t17 78v406q0 53 -16 71t-69 18h-10v41q97 -3 176 -3q83 0 176 3v-41h-11q-47 0 -65.5 -20t-18.5 -69v-406q0 -55 19 -75.5t76 -22.5v-40q-120 3 -176 3q-73 0 -176 -3zM303 740h-36l-147 89q-22 14 -31.5 24.5t-9.5 24.5q0 16 11 27t26 11
q25 0 52 -30z" />
    <glyph glyph-name="Iacute" unicode="&#xcd;" horiz-adv-x="437" 
d="M43 -3v40q61 1 78 20t17 78v406q0 53 -16 71t-69 18h-10v41q97 -3 176 -3q83 0 176 3v-41h-11q-47 0 -65.5 -20t-18.5 -69v-406q0 -55 19 -75.5t76 -22.5v-40q-120 3 -176 3q-73 0 -176 -3zM131 740l135 146q27 30 53 30q15 0 25.5 -11t10.5 -27q0 -14 -9.5 -24.5
t-31.5 -24.5l-146 -89h-37z" />
    <glyph glyph-name="Icircumflex" unicode="&#xce;" horiz-adv-x="437" 
d="M43 -3v40q61 1 78 20t17 78v406q0 53 -16 71t-69 18h-10v41q97 -3 176 -3q83 0 176 3v-41h-11q-47 0 -65.5 -20t-18.5 -69v-406q0 -55 19 -75.5t76 -22.5v-40q-120 3 -176 3q-73 0 -176 -3zM73 740l112 170h65l111 -170h-36l-108 95l-108 -95h-36z" />
    <glyph glyph-name="Idieresis" unicode="&#xcf;" horiz-adv-x="437" 
d="M43 -3v40q61 1 78 20t17 78v406q0 53 -16 71t-69 18h-10v41q97 -3 176 -3q83 0 176 3v-41h-11q-47 0 -65.5 -20t-18.5 -69v-406q0 -55 19 -75.5t76 -22.5v-40q-120 3 -176 3q-73 0 -176 -3zM256 819q0 22 16.5 38.5t38.5 16.5q23 0 39 -16t16 -39q0 -24 -15.5 -39.5
t-39.5 -15.5q-23 0 -39 15.5t-16 39.5zM68 819q0 22 16.5 38.5t38.5 16.5q23 0 39 -16t16 -39q0 -24 -15.5 -39.5t-39.5 -15.5t-39.5 15.5t-15.5 39.5z" />
    <glyph glyph-name="Eth" unicode="&#xd0;" horiz-adv-x="772" 
d="M46 -3v42q56 1 73.5 19t17.5 73v188h-137v49h137v168q0 57 -16.5 76t-74.5 19v40q38 -2 117 -2q28 0 83 1t82 1q200 0 303.5 -91t103.5 -264q0 -154 -102 -244q-50 -44 -112 -59t-157 -15q-29 0 -89.5 1t-91.5 1q-25 0 -75 -1.5t-62 -1.5zM297 150q0 -55 21 -78.5
t73 -23.5q87 0 127 68.5t40 212.5q0 156 -51.5 226t-172.5 70q-21 0 -29 -6t-8 -20v-231h141v-49h-141v-169z" />
    <glyph glyph-name="Ntilde" unicode="&#xd1;" horiz-adv-x="824" 
d="M40 -4v42q55 7 73 32.5t18 88.5v421l-12 15q-16 19 -34.5 27t-50.5 10v39q28 -3 98 -3q71 0 114 3l399 -456v299q0 63 -20.5 90t-72.5 28v39q72 -3 115 -3q37 0 123 3v-39q-56 -4 -74 -30.5t-18 -92.5v-525h-56l-456 533v-358q0 -62 22 -91t70 -30v-41q-67 3 -150 3
q-52 0 -88 -4zM548 895q-21 -112 -95 -112q-11 0 -25 3l-52 13q-17 4 -26 4q-21 0 -32 -10t-18 -34h-28q22 113 96 113q16 0 31 -4l53 -13q12 -3 25 -3q33 0 43 43h28z" />
    <glyph glyph-name="Ograve" unicode="&#xd2;" horiz-adv-x="833" 
d="M409 -17q-167 0 -269.5 98t-102.5 253t105 253.5t276 98.5q169 0 276 -101q103 -98 103 -249q0 -154 -108 -253q-109 -100 -280 -100zM218 331q0 -148 52 -223.5t152 -75.5t147 74t47 228q0 150 -52 226.5t-152 76.5q-101 0 -147.5 -75t-46.5 -231zM501 740h-36l-147 89
q-22 14 -31.5 24.5t-9.5 24.5q0 16 11 27t26 11q25 0 52 -30z" />
    <glyph glyph-name="Oacute" unicode="&#xd3;" horiz-adv-x="833" 
d="M409 -17q-167 0 -269.5 98t-102.5 253t105 253.5t276 98.5q169 0 276 -101q103 -98 103 -249q0 -154 -108 -253q-109 -100 -280 -100zM218 331q0 -148 52 -223.5t152 -75.5t147 74t47 228q0 150 -52 226.5t-152 76.5q-101 0 -147.5 -75t-46.5 -231zM329 740l135 146
q27 30 53 30q15 0 25.5 -11t10.5 -27q0 -14 -9.5 -24.5t-31.5 -24.5l-146 -89h-37z" />
    <glyph glyph-name="Ocircumflex" unicode="&#xd4;" horiz-adv-x="833" 
d="M409 -17q-167 0 -269.5 98t-102.5 253t105 253.5t276 98.5q169 0 276 -101q103 -98 103 -249q0 -154 -108 -253q-109 -100 -280 -100zM218 331q0 -148 52 -223.5t152 -75.5t147 74t47 228q0 150 -52 226.5t-152 76.5q-101 0 -147.5 -75t-46.5 -231zM271 740l112 170h65
l111 -170h-36l-108 95l-108 -95h-36z" />
    <glyph glyph-name="Otilde" unicode="&#xd5;" horiz-adv-x="833" 
d="M409 -17q-167 0 -269.5 98t-102.5 253t105 253.5t276 98.5q169 0 276 -101q103 -98 103 -249q0 -154 -108 -253q-109 -100 -280 -100zM218 331q0 -148 52 -223.5t152 -75.5t147 74t47 228q0 150 -52 226.5t-152 76.5q-101 0 -147.5 -75t-46.5 -231zM553 895
q-21 -112 -95 -112q-12 0 -25 3l-52 13q-17 4 -26 4q-21 0 -32 -10t-18 -34h-28q22 113 96 113q16 0 31 -4l53 -13q12 -3 25 -3q33 0 43 43h28z" />
    <glyph glyph-name="Odieresis" unicode="&#xd6;" horiz-adv-x="833" 
d="M409 -17q-167 0 -269.5 98t-102.5 253t105 253.5t276 98.5q169 0 276 -101q103 -98 103 -249q0 -154 -108 -253q-109 -100 -280 -100zM218 331q0 -148 52 -223.5t152 -75.5t147 74t47 228q0 150 -52 226.5t-152 76.5q-101 0 -147.5 -75t-46.5 -231zM454 819
q0 22 16.5 38.5t38.5 16.5q23 0 39 -16t16 -39q0 -24 -15.5 -39.5t-39.5 -15.5q-23 0 -39 15.5t-16 39.5zM266 819q0 22 16.5 38.5t38.5 16.5q23 0 39 -16t16 -39q0 -24 -15.5 -39.5t-39.5 -15.5t-39.5 15.5t-15.5 39.5z" />
    <glyph glyph-name="multiply" unicode="&#xd7;" horiz-adv-x="833" 
d="M203 587l220 -220l220 220l69 -68l-220 -221l220 -220l-69 -68l-220 220l-220 -220l-68 68l220 220l-220 221z" />
    <glyph glyph-name="Oslash" unicode="&#xd8;" horiz-adv-x="833" 
d="M88 -93l94 141q-69 46 -107 120t-38 163q0 152 110 257q103 100 270 100q93 0 181 -39l76 108h56l-90 -131q157 -101 157 -289q0 -156 -109 -254.5t-288 -98.5q-81 0 -175 37l-78 -114h-59zM252 146l295 433q-53 60 -135 60q-93 0 -144.5 -78.5t-51.5 -225.5
q0 -121 36 -189zM279 98q46 -66 135 -66q99 0 150 75t51 221q0 144 -39 208z" />
    <glyph glyph-name="Ugrave" unicode="&#xd9;" horiz-adv-x="826" 
d="M124 271v244q0 68 -17 90.5t-77 26.5v39q90 -3 168 -3q93 0 180 4v-40q-61 -4 -79 -25.5t-18 -84.5v-260q0 -113 38 -162t134 -49q116 0 163 66q34 49 34 173v230q0 60 -19.5 84.5t-73.5 29.5v37q55 -3 118 -3q75 0 120 3v-39q-52 -6 -71.5 -30t-19.5 -82v-230
q0 -143 -44 -207q-70 -101 -243 -101q-157 0 -236 80q-57 58 -57 209zM540 740h-36l-147 89q-22 14 -31.5 24.5t-9.5 24.5q0 16 11 27t26 11q25 0 52 -30z" />
    <glyph glyph-name="Uacute" unicode="&#xda;" horiz-adv-x="826" 
d="M124 271v244q0 68 -17 90.5t-77 26.5v39q90 -3 168 -3q93 0 180 4v-40q-61 -4 -79 -25.5t-18 -84.5v-260q0 -113 38 -162t134 -49q116 0 163 66q34 49 34 173v230q0 60 -19.5 84.5t-73.5 29.5v37q55 -3 118 -3q75 0 120 3v-39q-52 -6 -71.5 -30t-19.5 -82v-230
q0 -143 -44 -207q-70 -101 -243 -101q-157 0 -236 80q-57 58 -57 209zM368 740l135 146q27 30 53 30q15 0 25.5 -11t10.5 -27q0 -14 -9.5 -24.5t-31.5 -24.5l-146 -89h-37z" />
    <glyph glyph-name="Ucircumflex" unicode="&#xdb;" horiz-adv-x="826" 
d="M124 271v244q0 68 -17 90.5t-77 26.5v39q90 -3 168 -3q93 0 180 4v-40q-61 -4 -79 -25.5t-18 -84.5v-260q0 -113 38 -162t134 -49q116 0 163 66q34 49 34 173v230q0 60 -19.5 84.5t-73.5 29.5v37q55 -3 118 -3q75 0 120 3v-39q-52 -6 -71.5 -30t-19.5 -82v-230
q0 -143 -44 -207q-70 -101 -243 -101q-157 0 -236 80q-57 58 -57 209zM310 740l112 170h65l111 -170h-36l-108 95l-108 -95h-36z" />
    <glyph glyph-name="Udieresis" unicode="&#xdc;" horiz-adv-x="826" 
d="M124 271v244q0 68 -17 90.5t-77 26.5v39q90 -3 168 -3q93 0 180 4v-40q-61 -4 -79 -25.5t-18 -84.5v-260q0 -113 38 -162t134 -49q116 0 163 66q34 49 34 173v230q0 60 -19.5 84.5t-73.5 29.5v37q55 -3 118 -3q75 0 120 3v-39q-52 -6 -71.5 -30t-19.5 -82v-230
q0 -143 -44 -207q-70 -101 -243 -101q-157 0 -236 80q-57 58 -57 209zM493 819q0 22 16.5 38.5t38.5 16.5t38.5 -16t16.5 -39q0 -24 -15.5 -39.5t-39.5 -15.5q-23 0 -39 15.5t-16 39.5zM305 819q0 22 16.5 38.5t38.5 16.5t38.5 -16t16.5 -39q0 -24 -15.5 -39.5t-39.5 -15.5
t-39.5 15.5t-15.5 39.5z" />
    <glyph glyph-name="Yacute" unicode="&#xdd;" horiz-adv-x="716" 
d="M180 -3v41q58 1 78 18.5t20 69.5v135l-159 288q-24 44 -41 61q-18 17 -58 23v38q87 -3 159 -3q85 0 169 3v-39q-75 -1 -75 -37q0 -20 38 -91l98 -179l99 163q39 64 39 96q0 26 -16.5 35.5t-56.5 11.5v39q35 -2 106 -2q26 0 116 2v-39q-48 -7 -77 -55l-184 -303v-143
q0 -54 20.5 -73t79.5 -19v-41q-77 3 -174 3q-130 0 -181 -3zM270 740l135 146q27 30 53 30q15 0 25.5 -11t10.5 -27q0 -14 -9.5 -24.5t-31.5 -24.5l-146 -89h-37z" />
    <glyph glyph-name="Thorn" unicode="&#xde;" horiz-adv-x="662" 
d="M287 206q5 0 13 -0.5t12 -0.5q81 0 116 33t35 110q0 128 -123 128q-31 0 -42 -5.5t-11 -21.5v-243zM41 -3v41q52 4 70 20.5t18 60.5v430q0 47 -17 62.5t-71 19.5v39q20 -2 83 -2h158q63 0 83 2v-39q-56 -4 -71.5 -19t-15.5 -63v-26q24 1 62 1q294 0 294 -179
q0 -97 -73 -143t-225 -46q-32 0 -49 1v-33q0 -49 19.5 -67.5t75.5 -18.5h6v-41q-90 3 -231 3q-84 0 -116 -3z" />
    <glyph glyph-name="germandbls" unicode="&#xdf;" horiz-adv-x="597" 
d="M17 -2v34q35 2 50 14.5t15 40.5v373q0 122 56.5 186.5t163.5 64.5q97 0 154.5 -43.5t57.5 -110.5q0 -115 -135 -140v-7q89 -13 135.5 -65t46.5 -140q0 -99 -52 -158.5t-136 -59.5q-53 0 -85 26t-32 67q0 26 15 42.5t39 16.5q23 0 38 -14t15 -36q0 -14 -10.5 -28
t-10.5 -18q0 -18 25 -18q30 0 42 39t12 124q0 92 -12.5 133.5t-53.5 56.5q-13 4 -34 4t-32 3.5t-11 17.5q0 9 4.5 14t9.5 6.5t17 3t19 2.5q28 6 39 33.5t11 85.5q0 119 -79 119q-78 0 -78 -128v-541q-41 3 -85 3q-56 0 -119 -3z" />
    <glyph glyph-name="agrave" unicode="&#xe0;" horiz-adv-x="496" 
d="M285 50q-71 -64 -142 -64q-54 0 -85 30.5t-31 82.5q0 57 37.5 90t128.5 67l71 26q25 9 25 34v34q0 62 -56 62q-43 0 -62 -40q-1 -3 -8.5 -20t-10.5 -21.5t-11 -15t-17.5 -13.5t-23.5 -3q-24 0 -40 15.5t-16 40.5q0 43 49.5 69.5t137.5 26.5q190 0 190 -130v-236
q0 -28 18 -28q11 0 33 15l21 -27q-18 -26 -51 -42.5t-65 -16.5q-72 0 -92 64zM284 135v110q-61 -19 -89 -46.5t-28 -69.5q0 -28 13.5 -44.5t34.5 -16.5q27 0 48 19t21 48zM332 506h-36l-147 89q-22 14 -31.5 24.5t-9.5 24.5q0 16 11 27t26 11q25 0 52 -30z" />
    <glyph glyph-name="aacute" unicode="&#xe1;" horiz-adv-x="496" 
d="M285 50q-71 -64 -142 -64q-54 0 -85 30.5t-31 82.5q0 57 37.5 90t128.5 67l71 26q25 9 25 34v34q0 62 -56 62q-43 0 -62 -40q-1 -3 -8.5 -20t-10.5 -21.5t-11 -15t-17.5 -13.5t-23.5 -3q-24 0 -40 15.5t-16 40.5q0 43 49.5 69.5t137.5 26.5q190 0 190 -130v-236
q0 -28 18 -28q11 0 33 15l21 -27q-18 -26 -51 -42.5t-65 -16.5q-72 0 -92 64zM284 135v110q-61 -19 -89 -46.5t-28 -69.5q0 -28 13.5 -44.5t34.5 -16.5q27 0 48 19t21 48zM160 506l135 146q27 30 53 30q15 0 25.5 -11t10.5 -27q0 -14 -9.5 -24.5t-31.5 -24.5l-146 -89h-37z
" />
    <glyph glyph-name="acircumflex" unicode="&#xe2;" horiz-adv-x="496" 
d="M285 50q-71 -64 -142 -64q-54 0 -85 30.5t-31 82.5q0 57 37.5 90t128.5 67l71 26q25 9 25 34v34q0 62 -56 62q-43 0 -62 -40q-1 -3 -8.5 -20t-10.5 -21.5t-11 -15t-17.5 -13.5t-23.5 -3q-24 0 -40 15.5t-16 40.5q0 43 49.5 69.5t137.5 26.5q190 0 190 -130v-236
q0 -28 18 -28q11 0 33 15l21 -27q-18 -26 -51 -42.5t-65 -16.5q-72 0 -92 64zM284 135v110q-61 -19 -89 -46.5t-28 -69.5q0 -28 13.5 -44.5t34.5 -16.5q27 0 48 19t21 48zM102 506l112 170h65l111 -170h-36l-108 95l-108 -95h-36z" />
    <glyph glyph-name="atilde" unicode="&#xe3;" horiz-adv-x="496" 
d="M285 50q-71 -64 -142 -64q-54 0 -85 30.5t-31 82.5q0 57 37.5 90t128.5 67l71 26q25 9 25 34v34q0 62 -56 62q-43 0 -62 -40q-1 -3 -8.5 -20t-10.5 -21.5t-11 -15t-17.5 -13.5t-23.5 -3q-24 0 -40 15.5t-16 40.5q0 43 49.5 69.5t137.5 26.5q190 0 190 -130v-236
q0 -28 18 -28q11 0 33 15l21 -27q-18 -26 -51 -42.5t-65 -16.5q-72 0 -92 64zM284 135v110q-61 -19 -89 -46.5t-28 -69.5q0 -28 13.5 -44.5t34.5 -16.5q27 0 48 19t21 48zM384 661q-21 -112 -95 -112q-11 0 -25 3l-52 13q-17 4 -26 4q-21 0 -32 -10t-18 -34h-28
q22 113 96 113q16 0 31 -4l53 -13q12 -3 25 -3q33 0 43 43h28z" />
    <glyph glyph-name="adieresis" unicode="&#xe4;" horiz-adv-x="496" 
d="M285 50q-71 -64 -142 -64q-54 0 -85 30.5t-31 82.5q0 57 37.5 90t128.5 67l71 26q25 9 25 34v34q0 62 -56 62q-43 0 -62 -40q-1 -3 -8.5 -20t-10.5 -21.5t-11 -15t-17.5 -13.5t-23.5 -3q-24 0 -40 15.5t-16 40.5q0 43 49.5 69.5t137.5 26.5q190 0 190 -130v-236
q0 -28 18 -28q11 0 33 15l21 -27q-18 -26 -51 -42.5t-65 -16.5q-72 0 -92 64zM284 135v110q-61 -19 -89 -46.5t-28 -69.5q0 -28 13.5 -44.5t34.5 -16.5q27 0 48 19t21 48zM285 585q0 22 16.5 38.5t38.5 16.5t38.5 -16t16.5 -39q0 -24 -15.5 -39.5t-39.5 -15.5
q-23 0 -39 15.5t-16 39.5zM97 585q0 22 16.5 38.5t38.5 16.5t38.5 -16t16.5 -39q0 -24 -15.5 -39.5t-39.5 -15.5t-39.5 15.5t-15.5 39.5z" />
    <glyph glyph-name="aring" unicode="&#xe5;" horiz-adv-x="496" 
d="M285 50q-71 -64 -142 -64q-54 0 -85 30.5t-31 82.5q0 57 37.5 90t128.5 67l71 26q25 9 25 34v34q0 62 -56 62q-43 0 -62 -40q-1 -3 -8.5 -20t-10.5 -21.5t-11 -15t-17.5 -13.5t-23.5 -3q-24 0 -40 15.5t-16 40.5q0 43 49.5 69.5t137.5 26.5q190 0 190 -130v-236
q0 -28 18 -28q11 0 33 15l21 -27q-18 -26 -51 -42.5t-65 -16.5q-72 0 -92 64zM284 135v110q-61 -19 -89 -46.5t-28 -69.5q0 -28 13.5 -44.5t34.5 -16.5q27 0 48 19t21 48zM129 605q0 51 35 86t86 35t86 -35t35 -86t-35 -86t-86 -35t-86 35t-35 86zM181 605q0 -29 20 -49.5
t49 -20.5t49 20.5t20 49.5t-20 49t-49 20t-49 -20t-20 -49z" />
    <glyph glyph-name="ae" unicode="&#xe6;" horiz-adv-x="712" 
d="M310 74q-85 -88 -174 -88q-51 0 -82 30.5t-31 78.5q0 53 43 90.5t137 74.5q9 4 21 8t18 6.5l13.5 5.5t11 5.5t7 6t4.5 7.5t1 10v46q0 29 -14 42t-45 13q-23 0 -35 -10t-20 -34q-12 -36 -25.5 -51t-44.5 -15q-53 0 -53 55q0 39 45.5 67.5t120.5 28.5q105 0 152 -52
q49 52 139 52q89 0 139 -50t50 -140v-20h-283q0 -4 -0.5 -12t-0.5 -12q0 -82 32.5 -126t90.5 -44q64 0 121 66l32 -29q-69 -98 -193 -98q-110 0 -177 88zM276 241q-115 -35 -115 -111q0 -61 50 -61q44 0 79 47q-14 52 -14 112v13zM406 285h161v4q0 121 -81 121
q-73 0 -80 -125z" />
    <glyph glyph-name="ccedilla" unicode="&#xe7;" horiz-adv-x="494" 
d="M424 115l32 -31q-69 -98 -200 -98q-99 0 -160.5 62t-61.5 163q0 106 70 173t181 67q78 0 123 -27.5t45 -72.5q0 -25 -15 -39t-40 -14q-39 0 -59 44q-2 4 -7 16l-7 16.5t-8 13t-11 12t-14 6.5t-20 3q-41 0 -64.5 -46.5t-23.5 -133.5q0 -181 120 -181q68 0 120 67z
M138 -185l19 44q60 -38 113 -38q54 0 54 44q0 42 -53 42q-13 0 -30 -3v96h32v-56q10 2 30 2q43 0 67 -21.5t24 -59.5q0 -41 -29 -64t-81 -23q-57 0 -146 37z" />
    <glyph glyph-name="egrave" unicode="&#xe8;" horiz-adv-x="502" 
d="M436 115l34 -30q-68 -99 -200 -99q-106 0 -172.5 64t-66.5 165q0 104 68.5 170.5t179.5 66.5q94 0 146.5 -53.5t52.5 -151.5v-8h-294q0 -4 -0.5 -10.5t-0.5 -9.5q0 -83 34.5 -127t97.5 -44q40 0 73 21q19 13 48 46zM184 286h164v12q0 112 -76 112q-78 0 -88 -124z
M363 506h-36l-147 89q-22 14 -31.5 24.5t-9.5 24.5q0 16 11 27t26 11q25 0 52 -30z" />
    <glyph glyph-name="eacute" unicode="&#xe9;" horiz-adv-x="502" 
d="M436 115l34 -30q-68 -99 -200 -99q-106 0 -172.5 64t-66.5 165q0 104 68.5 170.5t179.5 66.5q94 0 146.5 -53.5t52.5 -151.5v-8h-294q0 -4 -0.5 -10.5t-0.5 -9.5q0 -83 34.5 -127t97.5 -44q40 0 73 21q19 13 48 46zM184 286h164v12q0 112 -76 112q-78 0 -88 -124z
M191 506l135 146q27 30 53 30q15 0 25.5 -11t10.5 -27q0 -14 -9.5 -24.5t-31.5 -24.5l-146 -89h-37z" />
    <glyph glyph-name="ecircumflex" unicode="&#xea;" horiz-adv-x="502" 
d="M436 115l34 -30q-68 -99 -200 -99q-106 0 -172.5 64t-66.5 165q0 104 68.5 170.5t179.5 66.5q94 0 146.5 -53.5t52.5 -151.5v-8h-294q0 -4 -0.5 -10.5t-0.5 -9.5q0 -83 34.5 -127t97.5 -44q40 0 73 21q19 13 48 46zM184 286h164v12q0 112 -76 112q-78 0 -88 -124z
M133 506l112 170h65l111 -170h-36l-108 95l-108 -95h-36z" />
    <glyph glyph-name="edieresis" unicode="&#xeb;" horiz-adv-x="502" 
d="M436 115l34 -30q-68 -99 -200 -99q-106 0 -172.5 64t-66.5 165q0 104 68.5 170.5t179.5 66.5q94 0 146.5 -53.5t52.5 -151.5v-8h-294q0 -4 -0.5 -10.5t-0.5 -9.5q0 -83 34.5 -127t97.5 -44q40 0 73 21q19 13 48 46zM184 286h164v12q0 112 -76 112q-78 0 -88 -124z
M316 585q0 22 16.5 38.5t38.5 16.5q23 0 39 -16t16 -39q0 -24 -15.5 -39.5t-39.5 -15.5q-23 0 -39 15.5t-16 39.5zM128 585q0 22 16.5 38.5t38.5 16.5q23 0 39 -16t16 -39q0 -24 -15.5 -39.5t-39.5 -15.5t-39.5 15.5t-15.5 39.5z" />
    <glyph glyph-name="igrave" unicode="&#xec;" horiz-adv-x="327" 
d="M31 -3v38q40 2 51.5 12t11.5 41v236q0 36 -12 47t-51 13v35q128 13 190 35h15v-366q0 -31 11.5 -41t51.5 -12v-38q-96 3 -125 3q-77 0 -143 -3zM248 506h-36l-147 89q-22 14 -31.5 24.5t-9.5 24.5q0 16 11 27t26 11q25 0 52 -30z" />
    <glyph glyph-name="iacute" unicode="&#xed;" horiz-adv-x="327" 
d="M31 -3v38q40 2 51.5 12t11.5 41v236q0 36 -12 47t-51 13v35q128 13 190 35h15v-366q0 -31 11.5 -41t51.5 -12v-38q-96 3 -125 3q-77 0 -143 -3zM76 506l135 146q27 30 53 30q15 0 25.5 -11t10.5 -27q0 -14 -9.5 -24.5t-31.5 -24.5l-146 -89h-37z" />
    <glyph glyph-name="icircumflex" unicode="&#xee;" horiz-adv-x="327" 
d="M31 -3v38q40 2 51.5 12t11.5 41v236q0 36 -12 47t-51 13v35q128 13 190 35h15v-366q0 -31 11.5 -41t51.5 -12v-38q-96 3 -125 3q-77 0 -143 -3zM18 506l112 170h65l111 -170h-36l-108 95l-108 -95h-36z" />
    <glyph glyph-name="idieresis" unicode="&#xef;" horiz-adv-x="327" 
d="M31 -3v38q40 2 51.5 12t11.5 41v236q0 36 -12 47t-51 13v35q128 13 190 35h15v-366q0 -31 11.5 -41t51.5 -12v-38q-96 3 -125 3q-77 0 -143 -3zM201 585q0 22 16.5 38.5t38.5 16.5t38.5 -16t16.5 -39q0 -24 -15.5 -39.5t-39.5 -15.5q-23 0 -39 15.5t-16 39.5zM13 585
q0 22 16.5 38.5t38.5 16.5t38.5 -16t16.5 -39q0 -24 -15.5 -39.5t-39.5 -15.5t-39.5 15.5t-15.5 39.5z" />
    <glyph glyph-name="eth" unicode="&#xf0;" horiz-adv-x="555" 
d="M186 192q0 -90 19 -129t69 -39q48 0 68 42.5t20 135.5q0 85 -21 124.5t-69 39.5q-86 0 -86 -174zM312 400q-13 48 -55 98l-158 -76l-15 35l146 71q-40 49 -96 96l23 25q67 -33 145 -87l150 71l18 -33l-132 -63q159 -128 159 -319q0 -110 -60.5 -171t-166.5 -61
q-97 0 -158.5 59t-61.5 153q0 86 63.5 146.5t151.5 60.5q17 0 47 -5z" />
    <glyph glyph-name="ntilde" unicode="&#xf1;" horiz-adv-x="602" 
d="M27 -3v36q42 4 52 14t10 43v223q0 40 -12.5 53t-49.5 13v37q84 6 170 35h17l6 -88q69 88 163 88q141 0 141 -159v-202q0 -34 9.5 -44t49.5 -13v-36q-69 3 -130 3q-53 0 -125 -3v36q35 0 46 11.5t11 45.5v202q0 86 -60 86q-43 0 -70 -34.5t-27 -92.5v-156q0 -35 12 -48
t47 -14v-36q-89 3 -139 3q-56 0 -121 -3zM437 661q-21 -112 -95 -112q-12 0 -25 3l-52 13q-17 4 -26 4q-21 0 -32 -10t-18 -34h-28q22 113 96 113q16 0 31 -4l53 -13q12 -3 25 -3q33 0 43 43h28z" />
    <glyph glyph-name="ograve" unicode="&#xf2;" horiz-adv-x="547" 
d="M25 217q0 102 70.5 168t183.5 66q107 0 175 -63.5t68 -162.5q0 -107 -69.5 -173t-182.5 -66q-107 0 -176 65t-69 166zM176 215q0 -100 21.5 -143.5t77.5 -43.5q53 0 75 47t22 151q0 93 -23 138t-73 45q-53 0 -76.5 -47t-23.5 -147zM358 506h-36l-147 89
q-22 14 -31.5 24.5t-9.5 24.5q0 16 11 27t26 11q25 0 52 -30z" />
    <glyph glyph-name="oacute" unicode="&#xf3;" horiz-adv-x="547" 
d="M25 217q0 102 70.5 168t183.5 66q107 0 175 -63.5t68 -162.5q0 -107 -69.5 -173t-182.5 -66q-107 0 -176 65t-69 166zM176 215q0 -100 21.5 -143.5t77.5 -43.5q53 0 75 47t22 151q0 93 -23 138t-73 45q-53 0 -76.5 -47t-23.5 -147zM186 506l135 146q27 30 53 30
q15 0 25.5 -11t10.5 -27q0 -14 -9.5 -24.5t-31.5 -24.5l-146 -89h-37z" />
    <glyph glyph-name="ocircumflex" unicode="&#xf4;" horiz-adv-x="547" 
d="M25 217q0 102 70.5 168t183.5 66q107 0 175 -63.5t68 -162.5q0 -107 -69.5 -173t-182.5 -66q-107 0 -176 65t-69 166zM176 215q0 -100 21.5 -143.5t77.5 -43.5q53 0 75 47t22 151q0 93 -23 138t-73 45q-53 0 -76.5 -47t-23.5 -147zM128 506l112 170h65l111 -170h-36
l-108 95l-108 -95h-36z" />
    <glyph glyph-name="otilde" unicode="&#xf5;" horiz-adv-x="547" 
d="M25 217q0 102 70.5 168t183.5 66q107 0 175 -63.5t68 -162.5q0 -107 -69.5 -173t-182.5 -66q-107 0 -176 65t-69 166zM176 215q0 -100 21.5 -143.5t77.5 -43.5q53 0 75 47t22 151q0 93 -23 138t-73 45q-53 0 -76.5 -47t-23.5 -147zM410 661q-21 -112 -95 -112
q-11 0 -25 3l-52 13q-17 4 -26 4q-21 0 -32 -10t-18 -34h-28q22 113 96 113q16 0 31 -4l53 -13q12 -3 25 -3q33 0 43 43h28z" />
    <glyph glyph-name="odieresis" unicode="&#xf6;" horiz-adv-x="547" 
d="M25 217q0 102 70.5 168t183.5 66q107 0 175 -63.5t68 -162.5q0 -107 -69.5 -173t-182.5 -66q-107 0 -176 65t-69 166zM176 215q0 -100 21.5 -143.5t77.5 -43.5q53 0 75 47t22 151q0 93 -23 138t-73 45q-53 0 -76.5 -47t-23.5 -147zM311 585q0 22 16.5 38.5t38.5 16.5
t38.5 -16t16.5 -39q0 -24 -15.5 -39.5t-39.5 -15.5q-23 0 -39 15.5t-16 39.5zM123 585q0 22 16.5 38.5t38.5 16.5t38.5 -16t16.5 -39q0 -24 -15.5 -39.5t-39.5 -15.5t-39.5 15.5t-15.5 39.5z" />
    <glyph glyph-name="divide" unicode="&#xf7;" horiz-adv-x="833" 
d="M417 564q30 0 52 -21.5t22 -52.5q0 -30 -21.5 -52t-52.5 -22t-52.5 21.5t-21.5 52.5t22 52.5t52 21.5zM124 347h585v-97h-585v97zM417 180q30 0 52 -21.5t22 -52.5q0 -30 -21.5 -51.5t-52.5 -21.5t-52.5 21t-21.5 52t22 52.5t52 21.5z" />
    <glyph glyph-name="oslash" unicode="&#xf8;" horiz-adv-x="547" 
d="M58 -103l76 129q-103 66 -103 195q0 98 71.5 165t175.5 67q60 0 108 -18l60 98h48l-69 -116q105 -78 105 -195q0 -100 -70.5 -168t-178.5 -68q-51 0 -107 18l-65 -107h-51zM189 114l161 261q-23 35 -66 35q-54 0 -79 -48.5t-25 -149.5q0 -73 9 -98zM210 64q19 -37 67 -37
q57 0 80.5 46.5t23.5 150.5q0 64 -9 100z" />
    <glyph glyph-name="ugrave" unicode="&#xf9;" horiz-adv-x="604" 
d="M84 128v197q0 47 -10 63t-49 18v34q40 1 105.5 1.5t90.5 1.5v-304q0 -78 57 -78q98 0 98 159v111q0 44 -11 59t-50 16v34q31 1 97.5 1.5t101.5 1.5v-340q0 -24 10.5 -33t38.5 -9h12v-35q-88 -10 -172 -34h-15l-8 83q-63 -88 -161 -88q-69 0 -102 34.5t-33 106.5zM386 506
h-36l-147 89q-22 14 -31.5 24.5t-9.5 24.5q0 16 11 27t26 11q25 0 52 -30z" />
    <glyph glyph-name="uacute" unicode="&#xfa;" horiz-adv-x="604" 
d="M84 128v197q0 47 -10 63t-49 18v34q40 1 105.5 1.5t90.5 1.5v-304q0 -78 57 -78q98 0 98 159v111q0 44 -11 59t-50 16v34q31 1 97.5 1.5t101.5 1.5v-340q0 -24 10.5 -33t38.5 -9h12v-35q-88 -10 -172 -34h-15l-8 83q-63 -88 -161 -88q-69 0 -102 34.5t-33 106.5zM214 506
l135 146q27 30 53 30q15 0 25.5 -11t10.5 -27q0 -14 -9.5 -24.5t-31.5 -24.5l-146 -89h-37z" />
    <glyph glyph-name="ucircumflex" unicode="&#xfb;" horiz-adv-x="604" 
d="M84 128v197q0 47 -10 63t-49 18v34q40 1 105.5 1.5t90.5 1.5v-304q0 -78 57 -78q98 0 98 159v111q0 44 -11 59t-50 16v34q31 1 97.5 1.5t101.5 1.5v-340q0 -24 10.5 -33t38.5 -9h12v-35q-88 -10 -172 -34h-15l-8 83q-63 -88 -161 -88q-69 0 -102 34.5t-33 106.5zM156 506
l112 170h65l111 -170h-36l-108 95l-108 -95h-36z" />
    <glyph glyph-name="udieresis" unicode="&#xfc;" horiz-adv-x="604" 
d="M84 128v197q0 47 -10 63t-49 18v34q40 1 105.5 1.5t90.5 1.5v-304q0 -78 57 -78q98 0 98 159v111q0 44 -11 59t-50 16v34q31 1 97.5 1.5t101.5 1.5v-340q0 -24 10.5 -33t38.5 -9h12v-35q-88 -10 -172 -34h-15l-8 83q-63 -88 -161 -88q-69 0 -102 34.5t-33 106.5zM339 585
q0 22 16.5 38.5t38.5 16.5t38.5 -16t16.5 -39q0 -24 -15.5 -39.5t-39.5 -15.5q-23 0 -39 15.5t-16 39.5zM151 585q0 22 16.5 38.5t38.5 16.5t38.5 -16t16.5 -39q0 -24 -15.5 -39.5t-39.5 -15.5t-39.5 15.5t-15.5 39.5z" />
    <glyph glyph-name="yacute" unicode="&#xfd;" horiz-adv-x="545" 
d="M245 -4l-150 346q-1 3 -3 7q-10 24 -15.5 33.5t-17.5 17t-31 7.5v36q54 -3 142 -3q60 0 115 3v-36q-29 0 -41 -5t-12 -21q0 -14 8 -34l77 -197l59 131q26 57 26 88q0 21 -12.5 29.5t-42.5 8.5v36q26 -1 55.5 -2t34.5 -1q11 0 85 3v-36q-15 -1 -27 -7.5t-23.5 -24.5
t-18 -31.5t-21 -47.5t-23.5 -53l-162 -354q-41 -90 -71.5 -129t-69.5 -39q-27 0 -43.5 15.5t-16.5 40.5q0 33 28.5 52.5t72.5 19.5q27 0 55 57zM185 506l135 146q27 30 53 30q15 0 25.5 -11t10.5 -27q0 -14 -9.5 -24.5t-31.5 -24.5l-146 -89h-37z" />
    <glyph glyph-name="thorn" unicode="&#xfe;" horiz-adv-x="610" 
d="M226 156q0 -106 91 -106q57 0 83.5 41.5t26.5 128.5q0 159 -103 159q-43 0 -70.5 -33t-27.5 -88v-102zM226 43v-211q0 -45 14 -59.5t63 -17.5v-35q-93 5 -146 5q-35 0 -143 -5v35q46 4 60 16.5t14 52.5v775q0 19 -14 27t-48 10v36q100 6 200 39l-1 -336q64 77 146 77
q88 0 146.5 -66t58.5 -168t-59.5 -167.5t-149.5 -65.5q-76 0 -141 58z" />
    <glyph glyph-name="ydieresis" unicode="&#xff;" horiz-adv-x="545" 
d="M245 -4l-150 346q-1 3 -3 7q-10 24 -15.5 33.5t-17.5 17t-31 7.5v36q54 -3 142 -3q60 0 115 3v-36q-29 0 -41 -5t-12 -21q0 -14 8 -34l77 -197l59 131q26 57 26 88q0 21 -12.5 29.5t-42.5 8.5v36q26 -1 55.5 -2t34.5 -1q11 0 85 3v-36q-15 -1 -27 -7.5t-23.5 -24.5
t-18 -31.5t-21 -47.5t-23.5 -53l-162 -354q-41 -90 -71.5 -129t-69.5 -39q-27 0 -43.5 15.5t-16.5 40.5q0 33 28.5 52.5t72.5 19.5q27 0 55 57zM310 585q0 22 16.5 38.5t38.5 16.5q23 0 39 -16t16 -39q0 -24 -15.5 -39.5t-39.5 -15.5q-23 0 -39 15.5t-16 39.5zM122 585
q0 22 16.5 38.5t38.5 16.5q23 0 39 -16t16 -39q0 -24 -15.5 -39.5t-39.5 -15.5t-39.5 15.5t-15.5 39.5z" />
    <glyph glyph-name="dotlessi" unicode="&#x131;" horiz-adv-x="327" 
d="M31 -3v38q40 2 51.5 12t11.5 41v236q0 36 -12 47t-51 13v35q128 13 190 35h15v-366q0 -31 11.5 -41t51.5 -12v-38q-96 3 -125 3q-77 0 -143 -3z" />
    <glyph glyph-name="Lslash" unicode="&#x141;" horiz-adv-x="666" 
d="M38 -4v42h8q50 0 67.5 21.5t17.5 78.5v125l-131 -92v56l131 92v233q0 45 -19 62t-69 17h-5v40q98 -3 174 -3q56 0 173 3v-40h-6q-53 0 -71 -17.5t-18 -67.5v-126l151 106v-59l-151 -104v-183q0 -76 25.5 -104t99.5 -28q84 0 131 36t62 114h41l-4 -200q-198 2 -307 2
q-66 0 -300 -4z" />
    <glyph glyph-name="lslash" unicode="&#x142;" horiz-adv-x="338" 
d="M33 -3v37q43 3 54.5 13t11.5 41v200l-99 -70v46l99 69v266q0 19 -14 27t-48 10v36q100 6 201 39v-285l100 70v-46l-100 -71v-291q0 -30 15 -41t52 -13v-37q-31 3 -97 3h-97q-54 0 -78 -3z" />
    <glyph glyph-name="OE" unicode="&#x152;" horiz-adv-x="1063" 
d="M1036 -3l-456 3q-41 0 -107.5 -5t-92.5 -5q-153 0 -248 94t-95 244q0 162 118 265q94 83 253 83q22 0 75.5 -2.5t85.5 -2.5h417v-174h-36q-24 126 -185 126h-11q-41 0 -52 -4.5t-11 -24.5v-223q4 0 10 -0.5t9 -0.5q55 0 83 27t36 87h41q-2 -80 -2 -132q0 -5 2 -141h-43
q-2 60 -31.5 86.5t-90.5 26.5h-14v-196q0 -82 114 -82q86 0 132.5 36.5t58.5 114.5h40v-200zM537 214v276q0 73 -28 105t-98 32q-100 0 -147.5 -71t-47.5 -217q0 -300 193 -300q73 0 100.5 40t27.5 135z" />
    <glyph glyph-name="oe" unicode="&#x153;" horiz-adv-x="826" 
d="M439 47q-79 -61 -178 -61q-100 0 -164 67t-64 171q0 97 66.5 162.5t173.5 65.5q96 0 167 -61q70 61 158 61q97 0 150.5 -53.5t53.5 -152.5v-5h-292v-12q0 -90 33.5 -136.5t97.5 -46.5q62 0 119 67l30 -30q-68 -97 -191 -97q-95 0 -160 61zM278 409q-97 0 -97 -200
q0 -181 93 -181q51 0 74.5 47t23.5 147q0 97 -22 142t-72 45zM513 285h160v14q0 110 -79 110q-34 0 -55.5 -32.5t-25.5 -91.5z" />
    <glyph glyph-name="Scaron" unicode="&#x160;" horiz-adv-x="549" 
d="M40 0q3 48 3 97q0 65 -3 115h46q42 -179 176 -179q57 0 89.5 29t32.5 79q0 46 -30.5 71.5t-107.5 60.5q-103 46 -149 95t-46 129q0 85 55.5 137t146.5 52q100 0 163 -52l12 43h47q0 -97 4 -188h-45q-15 70 -60 109.5t-108 39.5q-45 0 -72 -25t-27 -65q0 -21 6.5 -35.5
t25 -28t32.5 -21t50 -23.5q130 -59 183.5 -108t53.5 -135q0 -96 -65 -154.5t-174 -58.5q-112 0 -180 65l-12 -49h-47zM129 910h36l108 -95l108 95h36l-111 -170h-65z" />
    <glyph glyph-name="scaron" unicode="&#x161;" horiz-adv-x="438" 
d="M48 -8q2 30 2 74q0 45 -2 75h36q15 -51 54.5 -81.5t84.5 -30.5q32 0 53.5 16.5t21.5 40.5q0 15 -5 25t-18.5 19t-25.5 14t-37 14q-88 32 -122.5 61t-34.5 89q0 65 40.5 104.5t108.5 39.5q73 0 118 -38l19 33h38q-1 -23 -1 -65t1 -67h-38q-18 45 -52 70t-74 25
q-30 0 -48 -14.5t-18 -36.5q0 -9 2 -16.5t8 -13.5t11 -9.5t16.5 -8.5t19.5 -7.5l25 -8t28 -9.5q74 -25 108.5 -61.5t34.5 -92.5q0 -65 -45.5 -105.5t-122.5 -40.5q-91 0 -133 44l-15 -38h-38zM73 676h36l108 -95l108 95h36l-111 -170h-65z" />
    <glyph glyph-name="Ydieresis" unicode="&#x178;" horiz-adv-x="716" 
d="M180 -3v41q58 1 78 18.5t20 69.5v135l-159 288q-24 44 -41 61q-18 17 -58 23v38q87 -3 159 -3q85 0 169 3v-39q-75 -1 -75 -37q0 -20 38 -91l98 -179l99 163q39 64 39 96q0 26 -16.5 35.5t-56.5 11.5v39q35 -2 106 -2q26 0 116 2v-39q-48 -7 -77 -55l-184 -303v-143
q0 -54 20.5 -73t79.5 -19v-41q-77 3 -174 3q-130 0 -181 -3zM395 819q0 22 16.5 38.5t38.5 16.5t38.5 -16t16.5 -39q0 -24 -15.5 -39.5t-39.5 -15.5q-23 0 -39 15.5t-16 39.5zM207 819q0 22 16.5 38.5t38.5 16.5t38.5 -16t16.5 -39q0 -24 -15.5 -39.5t-39.5 -15.5
t-39.5 15.5t-15.5 39.5z" />
    <glyph glyph-name="Zcaron" unicode="&#x17d;" horiz-adv-x="604" 
d="M18 43l367 575h-100q-97 0 -139.5 -27t-54.5 -105h-38v182h514v-43l-367 -572h132q88 0 134.5 35.5t59.5 115.5h39l-10 -204h-537v43zM156 910h36l108 -95l108 95h36l-111 -170h-65z" />
    <glyph glyph-name="zcaron" unicode="&#x17e;" horiz-adv-x="437" 
d="M20 0v33l233 365h-60q-50 0 -78 -24t-38 -77h-42l11 143h367v-37l-229 -359h65q61 0 88.5 23t39.5 86h40l-10 -153h-387zM73 676h36l108 -95l108 95h36l-111 -170h-65z" />
    <glyph glyph-name="florin" unicode="&#x192;" horiz-adv-x="551" 
d="M107 338l7 44h86q11 147 68 224.5t149 77.5q47 0 77 -21.5t30 -51.5q0 -22 -16 -36.5t-40 -14.5q-32 0 -51 36q-3 5 -8.5 19t-10 18t-13.5 4q-22 0 -30.5 -57.5t-13.5 -197.5h91l-5 -44h-90q-12 -311 -71 -458.5t-179 -147.5q-44 0 -72 23t-28 54q0 23 15.5 37t40.5 14
q36 0 49 -36q1 -4 3.5 -12.5t4 -12.5t4.5 -9.5t8.5 -7.5t13.5 -2q38 0 45 139l24 419h-88z" />
    <glyph glyph-name="circumflex" unicode="&#x2c6;" 
d="M104 506l112 170h65l111 -170h-36l-108 95l-108 -95h-36z" />
    <glyph glyph-name="caron" unicode="&#x2c7;" 
d="M104 676h36l108 -95l108 95h36l-111 -170h-65z" />
    <glyph glyph-name="breve" unicode="&#x2d8;" 
d="M101 659h32q9 -35 36 -50t79 -15t79 15t35 50h32q-21 -136 -146 -136q-126 0 -147 136z" />
    <glyph glyph-name="dotaccent" unicode="&#x2d9;" 
d="M193 585q0 23 17 41t40 18t40.5 -18t17.5 -41q0 -25 -16.5 -41t-41.5 -16t-41 16t-16 41z" />
    <glyph glyph-name="ring" unicode="&#x2da;" 
d="M129 615q0 51 35 86t86 35t86 -35t35 -86t-35 -86t-86 -35t-86 35t-35 86zM181 615q0 -29 20 -49.5t49 -20.5t49 20.5t20 49.5t-20 49t-49 20t-49 -20t-20 -49z" />
    <glyph glyph-name="ogonek" unicode="&#x2db;" 
d="M308 17q-85 -66 -85 -126t44 -60q35 0 61 35l14 -8q-37 -77 -107 -77q-35 0 -56 20.5t-21 54.5q0 80 127 161h23z" />
    <glyph glyph-name="tilde" unicode="&#x2dc;" 
d="M386 661q-21 -112 -95 -112q-11 0 -25 3l-52 13q-17 4 -26 4q-21 0 -32 -10t-18 -34h-28q22 113 96 113q16 0 31 -4l53 -13q12 -3 25 -3q33 0 43 43h28z" />
    <glyph glyph-name="hungarumlaut" unicode="&#x2dd;" 
d="M157 506l65 134q19 41 47 41q14 0 24.5 -10.5t10.5 -24.5q0 -16 -27 -45l-90 -95h-30zM277 506l85 138q22 37 48 37q15 0 25 -10.5t10 -26.5q0 -19 -31 -46l-108 -92h-29z" />
    <glyph glyph-name="endash" unicode="&#x2013;" 
d="M0 175v93h500v-93h-500z" />
    <glyph glyph-name="emdash" unicode="&#x2014;" horiz-adv-x="1000" 
d="M0 175v93h1000v-93h-1000z" />
    <glyph glyph-name="quoteleft" unicode="&#x2018;" horiz-adv-x="273" 
d="M218 675q-115 -53 -118 -154q24 18 53 18q31 0 50 -21t19 -54q0 -34 -24 -55.5t-61 -21.5q-43 0 -68.5 30.5t-25.5 84.5q0 140 161 204z" />
    <glyph glyph-name="quoteright" unicode="&#x2019;" horiz-adv-x="273" 
d="M54 408q116 51 119 154q-24 -18 -53 -18q-31 0 -49.5 21t-18.5 54q0 34 23.5 55.5t60.5 21.5q43 0 69 -31t26 -84q0 -139 -162 -204z" />
    <glyph glyph-name="quotesinglbase" unicode="&#x201a;" horiz-adv-x="273" 
d="M54 -136q116 51 119 154q-24 -18 -53 -18q-31 0 -49.5 21t-18.5 54q0 34 23.5 55.5t60.5 21.5q43 0 69 -31t26 -84q0 -139 -162 -204z" />
    <glyph glyph-name="quotedblleft" unicode="&#x201c;" horiz-adv-x="552" 
d="M221 675q-115 -53 -118 -154q24 18 52 18q31 0 50 -21t19 -54q0 -34 -23.5 -55.5t-60.5 -21.5q-43 0 -69 31t-26 84q0 140 162 204zM500 675q-116 -54 -119 -154q24 18 53 18q31 0 50 -21t19 -54q0 -34 -23.5 -55.5t-60.5 -21.5q-43 0 -69 31t-26 84q0 140 162 204z" />
    <glyph glyph-name="quotedblright" unicode="&#x201d;" horiz-adv-x="552" 
d="M326 407q117 52 120 155q-24 -18 -53 -18q-31 0 -50 21t-19 54q0 34 23.5 55.5t60.5 21.5q43 0 69 -31t26 -84q0 -139 -162 -204zM49 407q116 54 119 155q-24 -18 -53 -18q-31 0 -50 21t-19 54q0 34 24 55.5t61 21.5q43 0 68.5 -30.5t25.5 -84.5q0 -140 -161 -204z" />
    <glyph glyph-name="quotedblbase" unicode="&#x201e;" horiz-adv-x="552" 
d="M50 -136q115 52 118 154q-24 -18 -53 -18q-31 0 -50 21t-19 54q0 34 24 55.5t61 21.5q43 0 68.5 -30.5t25.5 -84.5q0 -140 -161 -204zM327 -136q116 51 119 154q-24 -18 -53 -18q-31 0 -50 21t-19 54q0 34 23.5 55.5t60.5 21.5q43 0 69 -31t26 -84q0 -139 -162 -204z" />
    <glyph glyph-name="dagger" unicode="&#x2020;" 
d="M236 -162q-2 227 -49 418q50 82 50 168v10q-33 -1 -77.5 -22t-63.5 -21q-26 0 -41 14t-15 39q0 24 16.5 39.5t41.5 15.5q20 0 65 -19.5t74 -20.5v11q0 47 -21.5 99t-21.5 62q0 24 15.5 39t40.5 15q26 0 41.5 -15t15.5 -38q0 -4 -21.5 -59t-21.5 -108v-6h2q32 0 75.5 20
t61.5 20q56 0 56 -54q0 -55 -56 -55q-20 0 -63.5 20t-76.5 23q6 -115 51 -177q-47 -163 -47 -418h-31z" />
    <glyph glyph-name="daggerdbl" unicode="&#x2021;" 
d="M187 256q50 82 50 168v10q-33 -1 -77.5 -22t-63.5 -21q-26 0 -41 14t-15 39q0 24 16.5 39.5t41.5 15.5q20 0 65 -19.5t74 -20.5v11q0 47 -21.5 99t-21.5 62q0 24 15.5 39t40.5 15q26 0 41.5 -15t15.5 -38q0 -4 -21.5 -59t-21.5 -108v-6h2q32 0 75.5 20t61.5 20
q56 0 56 -54q0 -55 -56 -55q-20 0 -63.5 20t-76.5 23q6 -115 51 -177q-51 -75 -51 -172v-5q33 1 77.5 22t63.5 21q26 0 40.5 -14t14.5 -39q0 -24 -16.5 -39.5t-41.5 -15.5q-20 0 -64.5 19.5t-73.5 20.5v-11q0 -47 21.5 -99t21.5 -62q0 -24 -15.5 -39t-40.5 -15q-26 0 -42 15
t-16 38q0 9 11 32.5t22 59.5t11 75v6q-32 0 -76.5 -19.5t-62.5 -19.5q-57 0 -57 53q0 27 15 41t42 14q20 0 63.5 -20t76.5 -23q-6 109 -50 176z" />
    <glyph glyph-name="bullet" unicode="&#x2022;" horiz-adv-x="590" 
d="M150 372q0 60 42.5 102t102.5 42q59 0 101.5 -42t42.5 -102q0 -59 -42.5 -102t-102.5 -43t-102 42.5t-42 102.5z" />
    <glyph glyph-name="ellipsis" unicode="&#x2026;" horiz-adv-x="1000" 
d="M83 69q0 35 24.5 59t59.5 24t59 -24t24 -59q0 -34 -24 -58.5t-59 -24.5t-59.5 24.5t-24.5 58.5zM416 69q0 35 24.5 59t59.5 24t59 -24t24 -59q0 -34 -24 -58.5t-59 -24.5t-59.5 24.5t-24.5 58.5zM750 69q0 35 24.5 59t59.5 24t59 -24t24 -59q0 -34 -24 -58.5t-59 -24.5
t-59.5 24.5t-24.5 58.5z" />
    <glyph glyph-name="perthousand" unicode="&#x2030;" horiz-adv-x="1282" 
d="M488 142q0 84 51 153q62 82 152 82q60 0 94.5 -38.5t34.5 -106.5q0 -93 -53 -170q-55 -80 -140 -80q-62 0 -100.5 44t-38.5 116zM732 330q-46 0 -86 -81q-38 -74 -38 -146q0 -36 17 -57t44 -21q43 0 82 65.5t39 147.5q0 43 -16 67.5t-42 24.5zM185 -50l393 661
q-57 -30 -116 -30q-45 0 -76 19q9 -40 9 -61q0 -92 -51 -167q-57 -82 -141 -82q-63 0 -101.5 43.5t-38.5 117.5q0 82 48 148q61 86 154 86q42 0 77 -23q2 -1 14 -9.5t14.5 -10l13.5 -8t16 -8.5t15 -6.5t17.5 -5.5t17.5 -2.5t20 -1.5q45 0 95 28t94 80h37l-456 -768h-55z
M308 638q-44 0 -85 -76q-41 -77 -41 -150q0 -36 17 -58t43 -22q47 0 83 64q41 72 41 152q0 41 -16.5 65.5t-41.5 24.5zM1131 330q-47 0 -87 -81q-38 -74 -38 -146q0 -36 17 -57t44 -21q43 0 82 65.5t39 147.5q0 44 -15.5 68t-41.5 24zM887 142q0 84 51 153q62 82 153 82
q59 0 93.5 -38.5t34.5 -106.5q0 -94 -52 -170q-55 -80 -141 -80q-62 0 -100.5 44t-38.5 116z" />
    <glyph glyph-name="guilsinglleft" unicode="&#x2039;" horiz-adv-x="301" 
d="M56 227q50 40 94.5 80.5l63.5 58t23 17.5q8 0 8 -8q0 -18 -95 -148q95 -127 95 -147q0 -8 -7 -8q-5 0 -23.5 17.5l-63.5 57.5t-95 80z" />
    <glyph glyph-name="guilsinglright" unicode="&#x203a;" horiz-adv-x="301" 
d="M245 227q-50 -40 -95 -80l-63.5 -57.5t-22.5 -17.5q-8 0 -8 7q0 18 95 148q-95 127 -95 148q0 8 8 8q5 0 23.5 -17.5l63 -58t94.5 -80.5z" />
    <glyph glyph-name="fraction" unicode="&#x2044;" horiz-adv-x="167" 
d="M-167 -16l448 701h52l-447 -701h-53z" />
    <glyph glyph-name="Euro" unicode="&#x20ac;" horiz-adv-x="551" 
d="M473 232h39v-233h-30l-16 56q-74 -74 -160 -74q-96 0 -163.5 72t-85.5 199h-57l22 50h32v45q0 10 1 15h-64l22 50h48q22 126 90.5 198.5t161.5 72.5q79 0 142 -64l13 56h34l4 -215h-38q-15 84 -47 128t-76 44q-51 0 -87 -57.5t-46 -162.5h202l-22 -50h-183v-60h157
l-22 -50h-132q9 -102 44 -157t88 -55q100 0 129 192z" />
    <glyph glyph-name="trademark" unicode="&#x2122;" horiz-adv-x="822" 
d="M116 710h220l6 -94h-16q-7 74 -64 74h-3v-205q0 -22 17 -25l15 -2v-16h-130v16l15 2q17 3 17 25v205h-5q-29 0 -43.5 -17.5t-18.5 -56.5h-16zM370 710h103l64 -180l63 180h97v-13l-13 -2q-18 -3 -18 -25v-185q0 -22 18 -25l13 -2v-16h-124v16l15 2q18 3 18 25v178
l-76 -222h-18l-81 226v-182q0 -22 18 -25l17 -2v-16h-96v16l17 2q18 3 18 25v182q0 22 -18 25l-17 2v16z" />
    <glyph glyph-name="minus" unicode="&#x2212;" horiz-adv-x="833" 
d="M124 348h585v-99h-585v99z" />
    <glyph glyph-name="fi" unicode="&#xfb01;" horiz-adv-x="616" 
d="M27 -3v36q43 4 54 18t11 56v288h-65v45h65v44q0 109 59 167t169 58q83 0 134 -27.5t51 -70.5q0 -26 -15.5 -41t-41.5 -15q-25 0 -40.5 12.5t-29.5 40.5q-16 30 -30 43t-39 13q-47 0 -63.5 -35.5t-16.5 -115.5v-73h114q91 0 192 11q-3 -35 -3 -69v-285q0 -36 11 -48.5
t51 -13.5v-38q-63 3 -123 3q-65 0 -134 -3v36q36 1 46.5 10.5t10.5 39.5v272q0 24 -12.5 32t-46.5 8h-106v-295q0 -39 12 -52.5t52 -16.5v-34q-71 3 -136 3q-40 0 -130 -3z" />
    <glyph glyph-name="fl" unicode="&#xfb02;" horiz-adv-x="616" 
d="M28 -3v37q42 1 53.5 13t11.5 49v298h-67v46h67v21q0 247 219 247q75 0 141 -29q31 10 80 29q-2 -38 -2 -57v-557q0 -36 11 -47t53 -15v-35q-120 3 -125 3q-18 0 -135 -3v33q34 1 47 12t13 38v314h-164v-309q0 -29 13.5 -40.5t46.5 -12.5v-35q-78 3 -140 3q-54 0 -123 -3z
M231 440h164v120q0 55 -16.5 78.5t-59.5 23.5q-52 0 -70 -39t-18 -132v-51z" />
    </font>
</defs>
</svg>
