<?xml version="1.0" standalone="no"?>
<!DOCTYPE svg PUBLIC "-//W3C//DTD SVG 1.1//EN" "http://www.w3.org/Graphics/SVG/1.1/DTD/svg11.dtd" >
<svg xmlns="http://www.w3.org/2000/svg" xmlns:xlink="http://www.w3.org/1999/xlink" version="1.1">
<metadata>
Created by FontForge 20170731 at Mon Apr 30 08:21:17 2007
 By Aleksey,,,
HTF Didot Copr. 1992 The Hoefler Type Foundry, Inc. This typeface and the digital software that describes it are the exclusive property of HTF. HTF Didot is a trademark of The Hoefler Type Foundry, Inc.
</metadata>
<defs>
<font id="Didot-HTF-M42-Medium" horiz-adv-x="441" >
  <font-face 
    font-family="Didot HTF-M42-"
    font-weight="500"
    font-stretch="normal"
    units-per-em="1000"
    panose-1="0 0 0 0 0 0 0 0 0 0"
    ascent="800"
    descent="-200"
    x-height="426"
    cap-height="709"
    bbox="-110 -344 1060 953"
    underline-thickness="20"
    underline-position="-173"
    unicode-range="U+0020-FB02"
  />
<missing-glyph horiz-adv-x="500" 
 />
    <glyph glyph-name=".notdef" horiz-adv-x="500" 
 />
    <glyph glyph-name=".null" horiz-adv-x="0" 
 />
    <glyph glyph-name="nonmarkingreturn" horiz-adv-x="333" 
 />
    <glyph glyph-name="space" unicode=" " horiz-adv-x="175" 
 />
    <glyph glyph-name="exclam" unicode="!" horiz-adv-x="215" 
d="M167 647q0 -33 -27.5 -206t-27.5 -272q0 -2 -4 -2t-4 2q0 99 -28 272t-28 206q0 79 60 79q59 0 59 -79zM160 42q0 -23 -15 -39t-37 -16t-37.5 16t-15.5 39t15.5 39t37.5 16t37 -16t15 -39z" />
    <glyph glyph-name="quotedbl" unicode="&#x22;" horiz-adv-x="328" 
d="M279 672q0 -29 -16.5 -95.5t-20.5 -89.5q0 -11 -1 -11q0 -1 -2.5 -1t-3.5 1v11q-4 24 -21 90t-17 95q0 20 10 37t31 17q22 0 31.5 -17t9.5 -37zM132 672q0 -28 -16.5 -93.5t-20.5 -91.5l-1 -11q-1 -1 -3 -1t-3 1v11q-4 24 -21 90t-17 95q0 20 9.5 37t31.5 17t31.5 -17
t9.5 -37z" />
    <glyph glyph-name="numbersign" unicode="#" horiz-adv-x="476" 
d="M460 296h-118l-45 -163h116q1 0 1 -4t-1 -4h-118l-48 -168q-2 -2 -8 1l48 167h-133l-47 -168q-1 -1 -5 -1t-4 2l48 167h-113q-1 0 -1 4t1 4h115l46 163h-113q-1 0 -1 4t1 4h115l46 164q2 2 8 -1l-46 -163h132l47 164q2 1 7 -1l-46 -163h116q2 0 2 -4t-2 -4zM335 296h-133
l-45 -163h132z" />
    <glyph glyph-name="dollar" unicode="$" horiz-adv-x="560" 
d="M511 213q0 -72 -51 -140t-136 -84v-90q0 -1 -4.5 -1t-4.5 1v88q-19 -4 -46 -4q-21 0 -31 1v-85q0 -1 -4.5 -1t-4.5 1v87q-77 9 -129.5 53t-52.5 93q0 31 20 51.5t44 20.5t42 -18.5t18 -42.5q0 -26 -19 -42t-19 -32q0 -65 96 -76v316q-76 29 -119.5 75t-43.5 127
q0 76 47 135.5t116 74.5v89q0 2 4.5 2t4.5 -2v-87q20 3 38 3q21 0 39 -3v87q0 2 4.5 2t4.5 -2v-88q70 -11 115 -55.5t45 -93.5q0 -31 -20 -51.5t-43 -20.5q-24 0 -42 18.5t-18 42.5q0 26 19.5 43t19.5 33q0 25 -18 47t-58 30v-294q98 -36 142.5 -81.5t44.5 -126.5zM315 424
v292q-22 2 -38 2q-21 0 -39 -3v-259q41 -20 77 -32zM229 460v253q-47 -12 -76 -44t-29 -73q0 -81 105 -136zM448 121q0 54 -29 88.5t-95 63.5v-276q57 12 90.5 47.5t33.5 76.5zM315 -5v282q-27 11 -77 30v-315q9 -1 30 -1q28 0 47 4z" />
    <glyph glyph-name="percent" unicode="%" horiz-adv-x="716" 
d="M382 587q0 -82 -67 -155.5t-161 -73.5q-52 0 -85 34t-33 92q0 83 67 156t161 73q52 0 85 -34t33 -92zM585 726l-446 -750q-1 -1 -2.5 0t-3 2.5t-1.5 2.5l445 749q2 1 8 -4zM681 220q0 -82 -67.5 -155.5t-160.5 -73.5q-53 0 -86 34t-33 92q0 82 67.5 155.5t161.5 73.5
q52 0 85 -34t33 -92zM316 637q0 37 -11.5 52.5t-40.5 15.5q-40 0 -64 -18q-42 -30 -70 -114t-28 -139q0 -36 12 -52t41 -16q37 0 64 18q41 30 69 114t28 139zM615 270q0 37 -11.5 52.5t-40.5 15.5q-40 0 -64 -18q-43 -30 -70.5 -113.5t-27.5 -139.5q0 -37 11.5 -52.5
t41.5 -15.5q37 0 63 18q42 30 70 114t28 139z" />
    <glyph glyph-name="ampersand" unicode="&#x26;" horiz-adv-x="675" 
d="M686 377h-39q-38 0 -56.5 -17t-22.5 -58q-10 -109 -58 -193q4 -7 9 -15t9 -14q18 -27 42 -44.5t45 -17.5q9 0 16 3q34 13 47 49q1 1 4 -1.5t2 -3.5q-16 -37 -58 -59t-89 -22q-57 0 -108 48q-79 -49 -170 -49q-97 0 -160 58t-63 148q0 145 164 252q-17 54 -17 97
q0 85 40 136.5t101 51.5q91 0 91 -87q0 -78 -109 -141q44 -146 199 -381q47 80 55 185q4 40 -14 57.5t-59 17.5h-36q-1 0 -1 4t1 4h235q2 0 2 -4t-2 -4zM408 639q0 35 -17 55t-46 20q-27 0 -43.5 -24t-16.5 -69q0 -53 18 -114q48 27 76.5 61.5t28.5 70.5zM424 38
q-29 27 -57 75q-130 213 -165 321q-32 -25 -51.5 -67.5t-19.5 -91.5q0 -106 57.5 -180t159.5 -74q39 0 76 17z" />
    <glyph glyph-name="quotesingle" unicode="'" horiz-adv-x="181" 
d="M132 672q0 -28 -16.5 -93.5t-20.5 -91.5l-1 -11q-1 -1 -3 -1t-3 1v11q-4 24 -21 90t-17 95q0 20 9.5 37t31.5 17t31.5 -17t9.5 -37z" />
    <glyph glyph-name="parenleft" unicode="(" horiz-adv-x="270" 
d="M318 -240l-1 -2q-1 -1 -3 -1.5t-3 -0.5q-115 80 -179 207t-64 284q0 156 64 283.5t179 207.5q3 0 7 -5q-61 -40 -93 -90t-48 -143t-16 -253t16 -253.5t48 -143.5t93 -90z" />
    <glyph glyph-name="parenright" unicode=")" horiz-adv-x="270" 
d="M204 247q0 -157 -64 -284t-179 -207q-1 0 -3 0.5t-3 1.5l-1 2q61 40 93 90t48 143.5t16 253.5t-16 253t-48 143t-93 90l1 1q1 2 3 3t3 1q115 -80 179 -207.5t64 -283.5z" />
    <glyph glyph-name="asterisk" unicode="*" horiz-adv-x="339" 
d="M288 538q0 -11 -8 -21t-19 -10q-13 0 -21 10.5t-23 29.5t-38 33l-6 3v-6q0 -35 12 -60.5t12 -35.5q0 -11 -7.5 -19t-19.5 -8t-20 8t-8 19q0 10 12 35.5t12 60.5v6l-6 -3q-23 -14 -38 -33t-23 -29.5t-21 -10.5q-11 0 -19.5 10t-8.5 21q0 18 20 24q1 0 32.5 6t59.5 23
q-27 16 -58 21t-34 6q-20 8 -20 24q0 11 8.5 21.5t19.5 10.5q13 0 21 -10.5t23 -29.5t38 -33l6 -4v7q0 35 -12 60t-12 35q0 11 8 19t20 8t19.5 -8t7.5 -19q0 -10 -12 -35t-12 -60v-7l6 4q23 14 38 33t23 29.5t21 10.5q11 0 19 -10.5t8 -21.5q0 -16 -19 -24q-3 -1 -34 -6
t-58 -21q28 -17 59.5 -23t32.5 -6q19 -6 19 -24z" />
    <glyph glyph-name="plus" unicode="+" horiz-adv-x="415" 
d="M364 208h-152v-154q0 -2 -4.5 -2t-4.5 2v154h-153q-2 0 -2 5t2 5h153v156q0 2 4.5 2t4.5 -2v-156h152q2 0 2 -5t-2 -5z" />
    <glyph glyph-name="comma" unicode="," horiz-adv-x="179" 
d="M144 29q0 -42 -35 -99t-78 -70l-2 6q20 6 30 17q35 29 35 60t-33 56q-22 16 -22 43q0 22 15.5 38t36.5 16q25 0 39 -17.5t14 -49.5z" />
    <glyph glyph-name="hyphen" unicode="-" horiz-adv-x="319" 
d="M290 265q-13 -22 -16 -57h-246q-2 0 0 4q14 19 17 57h245q4 0 0 -4z" />
    <glyph glyph-name="period" unicode="." horiz-adv-x="179" 
d="M141 41q0 -23 -14.5 -38.5t-36.5 -15.5q-21 0 -36 16t-15 38t15 38t36 16q22 0 36.5 -15.5t14.5 -38.5z" />
    <glyph glyph-name="slash" unicode="/" horiz-adv-x="354" 
d="M383 754l-314 -777q-1 -1 -4.5 0t-3.5 3l315 777q2 1 7 -3z" />
    <glyph glyph-name="zero" unicode="0" horiz-adv-x="534" 
d="M487 213q0 -92 -64.5 -157t-155.5 -65t-155.5 65t-64.5 157q0 91 64.5 156t155.5 65t155.5 -65t64.5 -156zM389 213q0 151 -47 191q-26 22 -75 22q-50 0 -75 -22q-47 -40 -47 -191q0 -87 10.5 -128.5t36.5 -62.5q24 -23 75 -23q49 0 75 23q26 21 36.5 62.5t10.5 128.5z
" />
    <glyph glyph-name="one" unicode="1" horiz-adv-x="327" 
d="M281 0h-235q-2 0 -2 4t2 4h64q7 0 7 3v403q0 4 -7 4h-64q-2 0 -2 4t2 4h235q2 0 2 -4t-2 -4h-65q-7 0 -7 -4v-403q0 -3 7 -3h65q2 0 2 -4t-2 -4z" />
    <glyph glyph-name="two" unicode="2" horiz-adv-x="454" 
d="M418 3q0 -3 -2 -3h-396q-2 0 -3 5t2 6q152 60 208.5 125t56.5 168q0 67 -22.5 95t-69.5 28q-23 0 -37 -13.5t-14 -38.5q0 -9 4 -20t4 -19q0 -15 -11.5 -25.5t-33.5 -10.5q-21 0 -31.5 13.5t-10.5 32.5q0 33 36.5 61t95.5 28q80 0 131.5 -35t51.5 -105q0 -55 -50.5 -104
t-170.5 -122q-6 -3 3 -3h163q47 0 67.5 20t20.5 65q0 1 4 1t4 -1v-148z" />
    <glyph glyph-name="three" unicode="3" horiz-adv-x="411" 
d="M392 -71q0 -67 -37 -118t-89 -74.5t-106 -23.5q-66 0 -106.5 28t-40.5 67q0 19 10.5 32t32.5 13t33.5 -10.5t11.5 -25.5q0 -8 -4 -19t-4 -20q0 -57 67 -57q66 0 100 42t34 156q0 115 -25.5 153.5t-84.5 38.5q-21 0 -75 -33q-3 -2 -4 4q0 2 1 2q84 48 114.5 93t30.5 128
q0 70 -21 96t-70 26q-20 0 -33 -12t-13 -36q0 -9 3.5 -20t3.5 -19q0 -15 -11.5 -25.5t-33.5 -10.5q-21 0 -31 13.5t-10 32.5q0 30 35 57.5t90 27.5q83 0 136 -34.5t53 -105.5q0 -56 -56.5 -104t-119.5 -72q17 3 32 3q87 0 137 -57t50 -136z" />
    <glyph glyph-name="four" unicode="4" horiz-adv-x="458" 
d="M464 0h-107v-278h-93v278h-242q-2 0 -2.5 2t1.5 3q31 42 66 116l178 354q27 -10 73 10.5t68 46.5q2 2 6 -3l-381 -521h233v121q28 3 52.5 32t32.5 56q1 1 4.5 1t3.5 -1v-209h107q2 0 2 -4t-2 -4z" />
    <glyph glyph-name="five" unicode="5" horiz-adv-x="411" 
d="M380 -52q0 -108 -66 -171.5t-150 -63.5q-66 0 -107 28t-41 67q0 19 10.5 32t32.5 13t33.5 -10.5t11.5 -25.5q0 -8 -4 -19t-4 -20q0 -57 68 -57q63 0 91 45.5t28 171.5q0 123 -20.5 167.5t-74.5 44.5q-33 0 -59 -18t-35 -54q-4 -4 -2 -19l2 -15q0 -8 -6 -8t-6 9
q0 3 1.5 15t1.5 16v334q0 4 -0.5 6t-0.5 3q0 2 1 2t2 -1q26 -24 85 -24q34 0 58.5 13.5t41.5 27t33 13.5q41 0 41 -37q0 -31 -33 -52t-80 -21q-42 0 -84 18.5t-56 44.5v-310q24 68 116 68q86 0 128.5 -60.5t42.5 -152.5z" />
    <glyph glyph-name="six" unicode="6" horiz-adv-x="520" 
d="M474 195q0 -83 -60 -143.5t-144 -60.5q-94 0 -151 76.5t-57 226.5q0 105 29 200t86 156.5t128 61.5q54 0 87.5 -27.5t33.5 -57.5q0 -18 -10.5 -31.5t-31.5 -13.5q-22 0 -33.5 10.5t-11.5 25.5q0 8 4 19t4 20q0 47 -42 47q-48 0 -81 -54t-48 -134t-18 -180q44 64 112 64
q84 0 144 -60.5t60 -144.5zM377 195q0 140 -41 177q-24 20 -66 20q-45 0 -78.5 -30t-33.5 -53v-118q0 -76 11.5 -114t34.5 -58q22 -21 66 -21q42 0 66 21q22 19 31.5 58.5t9.5 117.5z" />
    <glyph glyph-name="seven" unicode="7" horiz-adv-x="421" 
d="M406 422q-28 -53 -64 -155l-185 -545h-92l301 629h-216q-47 0 -68.5 -20t-21.5 -65q0 -2 -3.5 -2t-3.5 2v157q0 3 3 3h340h8q4 0 2 -4z" />
    <glyph glyph-name="eight" unicode="8" horiz-adv-x="526" 
d="M475 189q0 -83 -59.5 -140.5t-151.5 -57.5q-84 0 -145 49t-61 136q0 64 38.5 114.5t104.5 78.5q-49 39 -76 80t-27 96q0 64 43 116t123 52q73 0 126 -40.5t53 -110.5q0 -51 -34 -92t-92 -65q76 -52 117 -102.5t41 -113.5zM375 558q0 147 -111 147q-51 0 -77 -28t-26 -72
q0 -34 11 -62t37.5 -54t45 -40t56.5 -40q33 25 48.5 54.5t15.5 94.5zM407 134q0 32 -11 59t-35 51t-44 40.5t-56.5 41.5t-54.5 39q-25 -23 -38 -39.5t-23.5 -53t-10.5 -89.5q0 -101 34 -142.5t96 -41.5q57 0 100 31t43 104z" />
    <glyph glyph-name="nine" unicode="9" horiz-adv-x="513" 
d="M471 129q0 -106 -29.5 -200t-89 -155t-136.5 -61q-59 0 -94.5 29.5t-35.5 60.5q0 46 42 46q22 0 33.5 -10.5t11.5 -25.5q0 -9 -4.5 -20t-4.5 -19q0 -25 14 -39t38 -14q139 0 150 343q-36 -55 -110 -55q-87 0 -145.5 62t-58.5 151q0 88 58.5 150.5t145.5 62.5
q97 0 156 -75.5t59 -230.5zM375 224q0 81 -11 121t-35 61q-26 21 -73 21q-42 0 -68 -21q-23 -20 -30.5 -59t-7.5 -125q0 -79 8 -122t30 -62q28 -22 68 -22q44 0 74.5 22.5t37.5 48.5q7 18 7 137z" />
    <glyph glyph-name="colon" unicode=":" horiz-adv-x="179" 
d="M141 340q0 -23 -14.5 -38.5t-36.5 -15.5q-21 0 -36 15.5t-15 38.5q0 22 15 37.5t36 15.5q22 0 36.5 -15.5t14.5 -37.5zM141 41q0 -23 -14.5 -38.5t-36.5 -15.5q-21 0 -36 16t-15 38t15 38t36 16q22 0 36.5 -15.5t14.5 -38.5z" />
    <glyph glyph-name="semicolon" unicode=";" horiz-adv-x="179" 
d="M141 340q0 -23 -14.5 -38.5t-36.5 -15.5q-21 0 -36 15.5t-15 38.5q0 22 15 37.5t36 15.5q22 0 36.5 -15.5t14.5 -37.5zM144 29q0 -42 -35 -99t-78 -70l-2 6q20 6 30 17q35 29 35 60t-33 56q-22 16 -22 43q0 22 15.5 38t36.5 16q25 0 39 -17.5t14 -49.5z" />
    <glyph glyph-name="less" unicode="&#x3c;" horiz-adv-x="332" 
d="M291 80q2 -2 -4 -8l-237 139v4l237 139q2 1 4 -4q1 -2 0 -3l-228 -134z" />
    <glyph glyph-name="equal" unicode="=" horiz-adv-x="375" 
d="M325 269h-274q-1 0 -1 3.5t1 3.5h274q1 0 1 -3.5t-1 -3.5zM325 150h-274q-1 0 -1 4t1 4h274q1 0 1 -4t-1 -4z" />
    <glyph glyph-name="greater" unicode="&#x3e;" horiz-adv-x="332" 
d="M281 211l-236 -139q-1 -1 -3 3t-1 5l228 133l-228 134q-1 1 -0.5 2.5t2 3t2.5 1.5l236 -139q2 -2 0 -4z" />
    <glyph glyph-name="question" unicode="?" horiz-adv-x="420" 
d="M388 518q0 -89 -52 -146.5t-126 -57.5q-47 0 -70 26v-171q0 -2 -3.5 -2t-3.5 2v182q0 1 -1 3v1q1 2 3 2q19 -35 75 -35q33 0 53 18q13 13 17.5 44.5t4.5 133.5q0 75 -10 115.5t-34 62.5q-22 22 -70 22q-36 0 -50 -14.5t-14 -48.5q0 -19 7.5 -34t7.5 -30
q0 -19 -14.5 -32.5t-38.5 -13.5q-53 0 -53 56q0 47 44.5 86t110.5 39q95 0 156 -58t61 -150zM188 42q0 -23 -15 -39t-37 -16q-21 0 -36.5 16.5t-15.5 38.5t15.5 38.5t36.5 16.5q22 0 37 -16t15 -39z" />
    <glyph glyph-name="at" unicode="@" horiz-adv-x="813" 
d="M748 403q0 -56 -21.5 -101t-55.5 -71.5t-72.5 -40.5t-75.5 -14q-58 0 -79 29.5t-9 73.5q-18 -52 -51.5 -77t-66.5 -25q-54 0 -79.5 36.5t-25.5 90.5q0 81 67 155t154 74q24 0 41.5 -12t20.5 -33l12 36h71l-50 -159q-16 -51 -23 -81.5t-7 -53t10 -31.5t31 -9q80 0 140 59
t60 154q0 146 -92 230.5t-231 84.5q-148 0 -253 -106t-105 -257t105 -257.5t253 -106.5q126 0 225 81q3 2 5 -2v-3q-100 -84 -230 -84q-152 0 -259 109t-107 263t107 262.5t259 108.5q143 0 237.5 -86.5t94.5 -236.5zM490 469q4 24 -13 40.5t-45 16.5q-30 0 -61 -25
q-39 -31 -67.5 -114t-28.5 -140q0 -59 48 -59q39 0 70.5 35t41.5 71z" />
    <glyph glyph-name="A" unicode="A" horiz-adv-x="665" 
d="M693 0h-324q-1 0 -1 4t1 4h93q5 0 5 4l-82 230h-228l-70 -192q-5 -14 -7.5 -22t-3.5 -12.5t0 -6t3 -1.5h89q2 0 2 -4t-2 -4h-189q-1 0 -1 4t1 4h75q7 0 11 6.5t14 35.5l243 673q1 2 4 2t4 -2l270 -711q2 -4 8 -4h85q1 0 1 -4t-1 -4zM382 250l-110 313l-113 -313h223z" />
    <glyph glyph-name="B" unicode="B" horiz-adv-x="652" 
d="M608 188q0 -77 -62 -132.5t-173 -55.5h-333q-2 0 -2 4t2 4h87q7 0 7 4v685q0 4 -7 4h-87q-2 0 -2 4t2 4h284q99 0 165.5 -42.5t66.5 -121.5q0 -70 -59 -118.5t-132 -48.5q105 0 174 -51.5t69 -138.5zM443 541q0 89 -30 124.5t-105 35.5h-44q-6 0 -6 -4v-315h84
q56 0 78.5 34t22.5 125zM486 182q0 114 -36.5 153.5t-117.5 39.5h-74v-363q0 -4 6 -4h82q73 0 106.5 39t33.5 135z" />
    <glyph glyph-name="C" unicode="C" horiz-adv-x="658" 
d="M608 -15q0 -1 -3 -1t-4 1q-2 11 -14 20.5t-31 9.5q-22 0 -83.5 -16t-90.5 -16q-140 0 -236 110t-96 261q0 152 93.5 262t233.5 110q25 0 78.5 -13.5t76.5 -13.5q20 0 34 7.5t16 16.5q0 1 4 1t4 -1v-220q0 -1 -4 -1t-4 1q0 75 -65.5 145t-139.5 70q-77 0 -118 -38
q-75 -72 -75 -326t75 -325q42 -39 123 -39q91 0 155 72.5t64 171.5q0 2 3.5 2t3.5 -2v-249z" />
    <glyph glyph-name="D" unicode="D" horiz-adv-x="737" 
d="M687 354q0 -146 -96 -250t-230 -104h-321q-2 0 -2 4t2 4h87q7 0 7 4v685q0 4 -7 4h-87q-2 0 -2 4t2 4h321q134 0 230 -104t96 -251zM553 354q0 242 -75 310q-41 37 -117 37h-97q-6 0 -6 -4v-685q0 -4 6 -4h97q76 0 117 36q40 37 57.5 104.5t17.5 205.5z" />
    <glyph glyph-name="E" unicode="E" horiz-adv-x="641" 
d="M616 3q0 -3 -3 -3h-574q-1 0 -1 4t1 4h88q7 0 7 4v685q0 4 -7 4h-88q-1 0 -1 4t1 4h521q3 0 3 -3v-195q0 -2 -4 -2t-4 2q0 77 -46.5 133.5t-134.5 56.5h-110q-6 0 -6 -4v-329h36q59 0 94.5 36t35.5 89q0 1 4 1t4 -1v-258q0 -1 -4 -1t-4 1q0 53 -36 89t-94 36h-36v-348
q0 -4 6 -4h113q115 0 173 62t58 148q0 2 4 2t4 -2v-215z" />
    <glyph glyph-name="F" unicode="F" horiz-adv-x="616" 
d="M564 511q0 -2 -4 -2t-4 2q0 76 -48.5 133t-136.5 57h-107q-6 0 -6 -4v-329h29q59 0 96 36t37 89q0 1 3.5 1t3.5 -1v-258q0 -1 -3.5 -1t-3.5 1q0 52 -37 88.5t-96 36.5h-29v-348q0 -4 6 -4h89q1 0 1 -4t-1 -4h-313q-2 0 -2 4t2 4h88q6 0 6 4v685q0 4 -6 4h-88q-2 0 -2 4
t2 4h521q3 0 3 -3v-195z" />
    <glyph glyph-name="G" unicode="G" horiz-adv-x="682" 
d="M712 268h-87q-7 0 -7 -3v-269q0 -1 -2 -1.5t-4.5 0.5t-2.5 2q-2 13 -14.5 25.5t-32.5 12.5q-17 0 -43.5 -13t-66.5 -26t-89 -13q-140 0 -226.5 110t-86.5 261q0 152 93.5 262t232.5 110q25 0 71 -13.5t67 -13.5q20 0 34 7.5t16 16.5q1 1 4 1t3 -1v-219q0 -2 -3.5 -2
t-3.5 2q0 78 -56.5 146t-131.5 68t-117 -38q-75 -72 -75 -326q0 -149 12 -220t49 -105q42 -39 118 -39q66 0 98.5 25t32.5 69v181q0 3 -6 3h-89q-1 0 -1 4t1 4h313q2 0 2 -4t-2 -4z" />
    <glyph glyph-name="H" unicode="H" horiz-adv-x="784" 
d="M744 0h-303q-1 0 -1 4t1 4h79q6 0 6 4v353h-268v-353q0 -4 6 -4h79q1 0 1 -4t-1 -4h-303q-2 0 -2 4t2 4h87q7 0 7 4v685q0 4 -7 4h-87q-2 0 -2 4t2 4h303q1 0 1 -4t-1 -4h-79q-6 0 -6 -4v-324h268v324q0 4 -6 4h-79q-1 0 -1 4t1 4h303q2 0 2 -4t-2 -4h-88q-6 0 -6 -4
v-685q0 -4 6 -4h88q2 0 2 -4t-2 -4z" />
    <glyph glyph-name="I" unicode="I" horiz-adv-x="392" 
d="M353 0h-313q-2 0 -2 4t2 4h88q6 0 6 4v685q0 4 -6 4h-88q-2 0 -2 4t2 4h313q1 0 1 -4t-1 -4h-89q-6 0 -6 -4v-685q0 -4 6 -4h89q1 0 1 -4t-1 -4z" />
    <glyph glyph-name="J" unicode="J" horiz-adv-x="492" 
d="M478 701h-89q-6 0 -6 -4v-530q0 -87 -53 -135.5t-146 -48.5q-67 0 -118 44.5t-51 97.5q0 37 24.5 61.5t52.5 24.5q30 0 51 -21.5t21 -51.5q0 -31 -23 -50t-23 -38q0 -24 20.5 -42t45.5 -18q35 0 55 21t20 61v625q0 4 -6 4h-88q-1 0 -1 4t1 4h313q2 0 2 -4t-2 -4z" />
    <glyph glyph-name="K" unicode="K" horiz-adv-x="674" 
d="M762 0h-354q-2 0 -2 4t2 4h99q5 0 3 4l-252 339v-339q0 -4 6 -4h89q1 0 1 -4t-1 -4h-313q-2 0 -2 4t2 4h88q6 0 6 4v685q0 4 -6 4h-88q-2 0 -2 4t2 4h313q1 0 1 -4t-1 -4h-89q-6 0 -6 -4v-340l260 302q38 42 28 42h-88q-2 0 -2 4t2 4h197q1 0 1 -4t-1 -4h-82
q-5 0 -11 -5.5t-33 -36.5l-191 -222l323 -425q2 -4 9 -4h92q2 0 2 -4t-2 -4z" />
    <glyph glyph-name="L" unicode="L" horiz-adv-x="610" 
d="M590 3q0 -3 -3 -3h-547q-2 0 -2 4t2 4h88q6 0 6 4v685q0 4 -6 4h-88q-2 0 -2 4t2 4h313q1 0 1 -4t-1 -4h-89q-5 0 -5 -4v-685q0 -4 5 -4h108q105 0 158 66t53 153q0 1 3.5 1t3.5 -1v-224z" />
    <glyph glyph-name="M" unicode="M" horiz-adv-x="883" 
d="M847 0h-313q-2 0 -2 4t2 4h88q6 0 6 4v674l-224 -699q-1 -2 -4.5 -2t-4.5 2l-257 701v-676q0 -4 6 -4h88q2 0 2 -4t-2 -4h-197q-1 0 -1 4t1 4h88q6 0 6 4v685q0 4 -6 4h-88q-1 0 -1 4t1 4h215q9 0 15 -18l190 -512l165 512q5 18 13 18h214q1 0 1 -4t-1 -4h-88q-6 0 -6 -4
v-685q0 -4 6 -4h88q1 0 1 -4t-1 -4z" />
    <glyph glyph-name="N" unicode="N" horiz-adv-x="733" 
d="M707 701h-88q-6 0 -6 -4v-710q0 -1 -2 -2t-4.5 -0.5t-3.5 2.5l-465 706v-681q0 -4 5 -4h89q2 0 2 -4t-2 -4h-197q-1 0 -1 4t1 4h88q6 0 6 4v685q0 4 -6 4h-88q-1 0 -1 4t1 4h227q10 0 22 -18l320 -490v496q0 4 -6 4h-88q-2 0 -2 4t2 4h197q1 0 1 -4t-1 -4z" />
    <glyph glyph-name="O" unicode="O" horiz-adv-x="754" 
d="M703 354q0 -154 -95.5 -262.5t-231.5 -108.5q-134 0 -230 108.5t-96 262.5q0 152 93.5 262t232.5 110q136 0 231.5 -109t95.5 -263zM569 354q0 253 -74 326q-42 38 -119 38q-76 0 -117 -38q-75 -74 -75 -326q0 -144 18 -215.5t57 -109.5q42 -39 117 -39q76 0 119 39
q39 38 56.5 109t17.5 216z" />
    <glyph glyph-name="P" unicode="P" horiz-adv-x="646" 
d="M614 490q0 -92 -70 -148.5t-187 -56.5q-52 0 -98 12v-285q0 -4 5 -4h89q1 0 1 -4t-1 -4h-313q-2 0 -2 4t2 4h88q6 0 6 4v685q0 4 -6 4h-88q-2 0 -2 4t2 4h296q131 0 204.5 -62t73.5 -157zM491 490q0 106 -41 158.5t-114 52.5h-72q-5 0 -5 -4v-388q36 -16 98 -16
q71 0 102.5 45t31.5 152z" />
    <glyph glyph-name="Q" unicode="Q" horiz-adv-x="754" 
d="M702 354q0 -107 -48 -195t-127 -134q-28 -17 -67 -32.5t-88 -32t-69 -24.5q66 0 113.5 -10.5t73 -26.5t43.5 -36t30.5 -40t27.5 -36t42.5 -26.5t67.5 -10.5q1 0 1 -3.5t-1 -3.5q-77 0 -133.5 10t-87.5 26.5t-51.5 36t-32 39.5t-22.5 36.5t-28.5 26.5t-45.5 10
q-10 0 -22 -7.5t-14 -7.5q-10 0 -10 8q0 11 31 16q4 2 140 50q-20 -4 -49 -4q-134 0 -230 108.5t-96 262.5q0 152 93.5 262t232.5 110q136 0 231 -108.5t95 -263.5zM569 354q0 254 -75 326q-41 38 -118 38q-76 0 -117 -38q-74 -71 -74 -326q0 -145 17 -216.5t57 -108.5
q42 -39 117 -39q76 0 118 39q40 38 57.5 109t17.5 216z" />
    <glyph glyph-name="R" unicode="R" horiz-adv-x="690" 
d="M745 18q-35 -35 -93 -35q-69 0 -115 47t-46 147v65q0 123 -153 123h-80v-353q0 -4 6 -4h100q1 0 1 -4t-1 -4h-324q-2 0 -2 4t2 4h88q6 0 6 4v685q0 4 -6 4h-88q-2 0 -2 4t2 4h309q109 0 174 -49.5t65 -124.5q0 -70 -60 -118t-149 -48q121 0 180.5 -53.5t59.5 -140.5v-90
q0 -39 16.5 -63.5t44.5 -24.5q36 0 61 27q2 2 4 -4q1 -2 0 -2zM464 531q0 92 -34.5 131t-106.5 39h-59q-6 0 -6 -4v-324h80q74 0 100 32t26 126z" />
    <glyph glyph-name="S" unicode="S" horiz-adv-x="556" 
d="M527 212q0 -52 -26 -103t-83 -88.5t-132 -37.5q-39 0 -93.5 20.5t-73.5 20.5q-21 0 -37 -12t-18 -26q-1 -2 -4 -2t-3 2v231q0 2 3.5 2t3.5 -2q0 -42 27 -94t80 -92.5t114 -40.5q82 0 130 41t48 94q0 68 -45.5 102.5t-172.5 80.5q-81 29 -124.5 75t-43.5 128
q0 89 56.5 152t133.5 63q28 0 69 -13.5t62 -13.5q37 0 41 24q0 2 4 2t4 -2v-177q0 -2 -4 -2t-4 2q0 70 -52.5 121t-118.5 51q-58 0 -97 -37t-39 -89q0 -53 44 -92t140 -73q109 -39 160 -84.5t51 -130.5z" />
    <glyph glyph-name="T" unicode="T" horiz-adv-x="642" 
d="M621 481q0 -1 -3.5 -1t-3.5 1q0 94 -53.5 157t-157.5 63h-15q-6 0 -6 -4v-685q0 -4 6 -4h88q2 0 2 -4t-2 -4h-313q-1 0 -1 4t1 4h88q6 0 6 4v685q0 4 -6 4h-15q-103 0 -155 -62.5t-52 -157.5q0 -1 -4 -1t-4 1v225q0 3 3 3h595q2 0 2 -3v-225z" />
    <glyph glyph-name="U" unicode="U" horiz-adv-x="719" 
d="M708 701h-88q-6 0 -6 -4v-487q0 -107 -60 -167t-182 -60q-118 0 -188 55.5t-70 163.5v495q0 4 -5 4h-89q-2 0 -2 4t2 4h313q1 0 1 -4t-1 -4h-88q-6 0 -6 -4v-495q0 -101 37.5 -152t121.5 -51q105 0 156 56.5t51 154.5v487q0 4 -6 4h-87q-2 0 -2 4t2 4h196q2 0 2 -4t-2 -4
z" />
    <glyph glyph-name="V" unicode="V" horiz-adv-x="695" 
d="M724 701h-83q-10 0 -24 -42l-235 -674q-1 -2 -4.5 -2t-4.5 2l-308 712q-1 4 -8 4h-91q-2 0 -2 4t2 4h342q2 0 2 -4t-2 -4h-104q-4 0 -5 -1t0 -3l232 -550l178 512q13 41 6 42h-92q-1 0 -1 4t1 4h201q2 0 2 -4t-2 -4z" />
    <glyph glyph-name="W" unicode="W" horiz-adv-x="1009" 
d="M1058 701h-83q-11 0 -24 -42l-230 -674q-1 -1 -4.5 -1t-4.5 1l-191 522l-178 -522q-1 -3 -4 -2.5t-5 2.5l-279 712q-2 4 -8 4h-91q-2 0 -2 4t2 4h327q1 0 1 -4t-1 -4h-90q-4 0 -5 -1t0 -3l209 -536l120 357l-66 179l-7 4h-80q-2 0 -2 4t2 4h326q2 0 2 -4t-2 -4h-105
q-6 0 -4 -4l192 -539l171 506q5 13 7 20t2.5 11t-0.5 5t-4 1h-93q-2 0 -2 4t2 4h202q2 0 2 -4t-2 -4z" />
    <glyph glyph-name="X" unicode="X" horiz-adv-x="695" 
d="M728 0h-341q-1 0 -1 4t1 4h100q5 0 3 4l-167 299l-159 -261q-20 -40 -15 -42h86q1 0 1 -4t-1 -4h-201q-2 0 -2 4t2 4h87q9 0 34 42l163 270l-214 377q-2 4 -8 4h-94q-2 0 -2 4t2 4h341q1 0 1 -4t-1 -4h-99q-6 0 -4 -4l148 -265l138 227q23 39 18 41q-1 1 -5 1h-85
q-2 0 -2 4t2 4h201q1 0 1 -4t-1 -4h-87q-7 0 -34 -42l-141 -235l233 -412q2 -4 9 -4h93q2 0 2 -4t-2 -4z" />
    <glyph glyph-name="Y" unicode="Y" horiz-adv-x="650" 
d="M674 701h-78q-9 0 -32 -49l-155 -330v-310q0 -4 7 -4h89q1 0 1 -4t-1 -4h-313q-2 0 -2 4t2 4h88q6 0 6 4v297l-199 388q-2 4 -8 4h-93q-2 0 -2 4t2 4h345q1 0 1 -4t-1 -4h-104q-6 0 -4 -4l184 -361l152 323q15 40 11 42h-97q-1 0 -1 4t1 4h201q2 0 2 -4t-2 -4z" />
    <glyph glyph-name="Z" unicode="Z" horiz-adv-x="635" 
d="M582 3q0 -3 -2 -3h-522q-5 0 -2 8l388 689q2 4 -3 4h-137q-96 0 -150.5 -64t-54.5 -156q0 -1 -4 -1t-4 1v225q0 3 3 3h484q4 0 1 -8l-388 -689q-2 -4 4 -4h170q96 0 153 66.5t57 157.5q0 2 3.5 2t3.5 -2v-229z" />
    <glyph glyph-name="bracketleft" unicode="[" horiz-adv-x="261" 
d="M288 -244h-199q-4 0 -4 4v974q0 3 4 3h199q2 0 2 -3.5t-2 -3.5h-104q-7 0 -7 -4v-959q0 -3 7 -3h104q2 0 2 -4t-2 -4z" />
    <glyph glyph-name="backslash" unicode="\" horiz-adv-x="354" 
d="M294 -20q-1 -3 -8 -3l-315 777q0 1 1.5 2t3.5 1.5t3 -0.5z" />
    <glyph glyph-name="bracketright" unicode="]" horiz-adv-x="262" 
d="M177 -240q0 -4 -3 -4h-200q-2 0 -2 4t2 4h104q7 0 7 3v959q0 4 -7 4h-104q-2 0 -2 3.5t2 3.5h200q3 0 3 -3v-974z" />
    <glyph glyph-name="asciicircum" unicode="^" horiz-adv-x="323" 
d="M302 529q1 -1 -1.5 -3.5t-3.5 -1.5l-132 86l-121 -86q-1 -1 -3 2q-2 2 -1 3q99 115 128 160q2 4 4 0q38 -57 130 -160z" />
    <glyph glyph-name="underscore" unicode="_" horiz-adv-x="562" 
d="M526 0h-490q-2 0 -2 4t2 4h490q2 0 2 -4t-2 -4z" />
    <glyph glyph-name="grave" unicode="`" horiz-adv-x="350" 
d="M306 522q2 -1 -1 -7q-127 30 -177 70.5t-50 80.5q0 14 9.5 23t24.5 9q18 0 34 -23t30 -52t48 -59.5t82 -41.5z" />
    <glyph glyph-name="a" unicode="a" 
d="M438 31q-5 -15 -25 -27t-47 -12q-32 0 -54.5 18.5t-27.5 47.5q-10 -31 -39.5 -48.5t-70.5 -17.5q-57 0 -97.5 25t-40.5 80q0 37 14.5 63t38.5 38.5t42 18t38 7.5q88 8 103 18q7 6 8 12v76q0 98 -71 98q-47 0 -47 -45q0 -9 4.5 -20t4.5 -19q0 -15 -11.5 -25t-34.5 -10
q-21 0 -31.5 13.5t-10.5 31.5q0 30 35.5 56t90.5 26q163 0 163 -181v-211q0 -34 25 -34q12 0 22.5 8t12.5 17q1 2 5 -2q1 -1 1 -2zM280 83v154q-11 -7 -26.5 -10.5t-36 -6t-29.5 -4.5q-29 -5 -45 -30.5t-16 -88.5q0 -53 17.5 -73t47.5 -20q37 0 62.5 24t25.5 55z" />
    <glyph glyph-name="b" unicode="b" horiz-adv-x="519" 
d="M478 210q0 -85 -61 -152t-145 -67q-59 0 -97 43v-31q0 -3 -3 -3h-151q-1 0 -1 4t1 4h55q7 0 7 4v711q0 4 -7 4h-55q-1 0 -1 4t1 4h151q3 0 3 -3v-338q36 41 93 41q85 0 147.5 -69.5t62.5 -155.5zM381 210q0 156 -43 195q-23 22 -70 22q-63 0 -93 -47v-323
q11 -28 38.5 -43t58.5 -15q41 0 66 22q43 39 43 189z" />
    <glyph glyph-name="c" unicode="c" 
d="M420 86q-29 -44 -74 -69.5t-96 -25.5q-87 0 -148.5 65t-61.5 157t61.5 157t148.5 65q65 0 105 -31t40 -70q0 -45 -44 -45q-19 0 -30.5 11t-11.5 26q0 12 6 24t6 28q0 27 -17 38t-54 11q-44 0 -70 -23q-23 -22 -33.5 -63.5t-10.5 -127.5t10.5 -127.5t33.5 -63.5
q26 -23 70 -23q52 0 95 24.5t70 66.5q1 1 3.5 -1t1.5 -3z" />
    <glyph glyph-name="d" unicode="d" horiz-adv-x="510" 
d="M499 0h-152q-3 0 -3 3v44q-7 -21 -32 -38.5t-64 -17.5q-85 0 -145.5 67t-60.5 152t62.5 155t146.5 70q58 0 93 -41v329q0 4 -6 4h-55q-1 0 -1 4t1 4h152q2 0 2 -3v-720q0 -4 7 -4h55q1 0 1 -4t-1 -4zM344 78v302q-29 47 -93 47q-44 0 -69 -22q-45 -41 -45 -195
q0 -148 45 -189q26 -22 66 -22q46 0 71 23t25 56z" />
    <glyph glyph-name="e" unicode="e" horiz-adv-x="463" 
d="M428 240q0 -3 -3 -3h-287v-24q0 -88 9 -129t33 -62q24 -23 68 -23q106 0 165 91q1 1 3.5 -1t1.5 -3q-29 -44 -73.5 -69.5t-96.5 -25.5q-87 0 -147 65t-60 157t60 157t147 65q59 0 102 -34.5t60.5 -77t17.5 -83.5zM339 245q-3 125 -34 159q-22 23 -57 23q-44 0 -68 -23
q-38 -34 -41 -159h200z" />
    <glyph glyph-name="f" unicode="f" horiz-adv-x="307" 
d="M361 666q0 -20 -13.5 -34.5t-33.5 -14.5q-22 0 -33.5 10t-11.5 26q0 11 7 23t7 27q0 31 -32 31q-55 0 -55 -118v-186q0 -4 6 -4h83q1 0 1 -4t-1 -4h-83q-6 0 -6 -4v-402q0 -4 6 -4h55q1 0 1 -4t-1 -4h-216q-1 0 -1 4t1 4h56q6 0 6 4v402q0 4 -6 4h-69q-2 0 -2 4t2 4h69
q6 0 6 4v20q0 294 169 294q36 0 62.5 -22t26.5 -56z" />
    <glyph glyph-name="g" unicode="g" horiz-adv-x="488" 
d="M508 389q0 -15 -9 -26t-22 -11t-21.5 7.5t-8.5 16.5q0 8 4 14t4 11q0 16 -18 16q-35 0 -57 -47q32 -41 32 -95q0 -67 -48.5 -114t-117.5 -47q-78 0 -124 55q-32 -22 -32 -66q0 -41 20 -56.5t69 -15.5h117q100 0 149.5 -37.5t49.5 -119.5q0 -59 -39 -103.5t-93 -65
t-110 -20.5q-101 0 -165 40t-64 97q0 42 30 80t73 49q-84 24 -84 101q0 75 74 123q-36 44 -36 100q0 67 48.5 113.5t116.5 46.5q82 0 129 -60q29 60 84 60q21 0 35 -12.5t14 -33.5zM327 275q0 108 -30 137q-17 16 -51 16q-32 0 -49 -16q-31 -28 -31 -137q0 -61 7 -91t24 -46
q19 -16 49 -16q32 0 51 16q30 30 30 137zM442 -168q0 49 -30.5 81.5t-85.5 32.5h-156q-19 0 -31 3q-46 -27 -46 -114q0 -77 39.5 -110t120.5 -33q78 0 133.5 37t55.5 103z" />
    <glyph glyph-name="h" unicode="h" horiz-adv-x="527" 
d="M516 0h-216q-2 0 -2 4t2 4h55q7 0 7 4v313q0 49 -22 75.5t-51 26.5q-87 0 -114 -88v-327q0 -4 6 -4h56q1 0 1 -4t-1 -4h-216q-1 0 -1 4t1 4h55q7 0 7 4v711q0 4 -7 4h-55q-1 0 -1 4t1 4h151q3 0 3 -3v-375q13 39 45 58.5t69 19.5q78 0 121.5 -44t43.5 -123v-256
q0 -4 7 -4h55q2 0 2 -4t-2 -4z" />
    <glyph glyph-name="i" unicode="i" horiz-adv-x="269" 
d="M199 675q0 -25 -17.5 -42.5t-41.5 -17.5q-25 0 -42.5 17.5t-17.5 42.5t17.5 42.5t42.5 17.5q24 0 41.5 -17.5t17.5 -42.5zM248 0h-217q-1 0 -1 4t1 4h56q6 0 6 4v402q0 4 -6 4h-56q-1 0 -1 4t1 4h152q3 0 3 -3v-411q0 -4 7 -4h55q2 0 2 -4t-2 -4z" />
    <glyph glyph-name="j" unicode="j" horiz-adv-x="269" 
d="M199 675q0 -25 -17.5 -42.5t-41.5 -17.5q-25 0 -42.5 17.5t-17.5 42.5t17.5 42.5t42.5 17.5q24 0 41.5 -17.5t17.5 -42.5zM186 -23q0 -157 -42.5 -225.5t-122.5 -68.5q-36 0 -63 21t-27 54q0 20 13.5 34t33.5 14q46 0 46 -35q0 -12 -6.5 -24t-6.5 -26q0 -29 31 -29
q51 0 51 118v604q0 4 -6 4h-56q-1 0 -1 4t1 4h152q3 0 3 -3v-446z" />
    <glyph glyph-name="k" unicode="k" horiz-adv-x="487" 
d="M530 0h-239q-1 0 -1 4t1 4h52q7 0 4 4l-171 217v-217q0 -4 6 -4h55q1 0 1 -4t-1 -4h-216q-2 0 -2 4t2 4h55q7 0 7 4v711q0 4 -7 4h-55q-2 0 -2 4t2 4h151q4 0 4 -3v-497l155 141q46 41 38 42v0h-1v0h-1h-1h-1h-1h-1h-1h-1h-1h-1h-1h-1h-1h-1h-1h-1h-1h-1h-2h-1h-1h-2h-1
h-1h-2h-1h-2h-1h-2h-1h-2h-1h-2h-1h-2h-2h-1h-2h-2h-2h-1h-2h-2h-2h-8q-2 0 -2 4t2 4h150q2 0 2 -4t-2 -4h-54q-12 0 -57 -42l-103 -93l217 -271q1 -4 9 -4h66q2 0 2 -4t-2 -4z" />
    <glyph glyph-name="l" unicode="l" horiz-adv-x="247" 
d="M237 0h-216q-1 0 -1 4t1 4h55q7 0 7 4v711q0 4 -7 4h-55q-1 0 -1 4t1 4h151q3 0 3 -3v-720q0 -4 6 -4h56q1 0 1 -4t-1 -4z" />
    <glyph glyph-name="m" unicode="m" horiz-adv-x="808" 
d="M797 0h-216q-1 0 -1 4t1 4h55q7 0 7 4v313q0 50 -22 76t-51 26q-52 0 -83 -31.5t-31 -66.5v-317q0 -4 7 -4h55q2 0 2 -4t-2 -4h-216q-2 0 -2 4t2 4h55q6 0 6 4v313q0 50 -21.5 76t-50.5 26q-87 0 -114 -88v-327q0 -4 6 -4h55q2 0 2 -4t-2 -4h-216q-2 0 -2 4t2 4h56
q6 0 6 4v402q0 4 -6 4h-56q-2 0 -2 4t2 4h152q3 0 3 -3v-66q13 39 44.5 58.5t69.5 19.5q130 0 161 -85q10 41 44.5 63t73.5 22q166 0 166 -146v-277q0 -4 6 -4h55q1 0 1 -4t-1 -4z" />
    <glyph glyph-name="n" unicode="n" horiz-adv-x="529" 
d="M518 0h-216q-2 0 -2 4t2 4h55q7 0 7 4v313q0 49 -22 75.5t-51 26.5q-87 0 -114 -88v-327q0 -4 6 -4h55q2 0 2 -4t-2 -4h-216q-2 0 -2 4t2 4h56q6 0 6 4v402q0 4 -6 4h-56q-2 0 -2 4t2 4h152q3 0 3 -3v-66q13 39 44.5 58.5t69.5 19.5q77 0 121 -44t44 -123v-256q0 -4 7 -4
h55q2 0 2 -4t-2 -4z" />
    <glyph glyph-name="o" unicode="o" horiz-adv-x="502" 
d="M461 213q0 -92 -61.5 -157t-149.5 -65q-86 0 -147.5 65t-61.5 157t61.5 157t147.5 65q88 0 149.5 -65t61.5 -157zM365 213q0 150 -45 191q-24 23 -70 23q-45 0 -69 -23q-44 -41 -44 -191q0 -86 10.5 -127.5t33.5 -63.5q24 -23 69 -23q46 0 70 23q24 22 34.5 63.5
t10.5 127.5z" />
    <glyph glyph-name="p" unicode="p" horiz-adv-x="519" 
d="M478 210q0 -85 -60.5 -152t-145.5 -67q-59 0 -97 43v-331q0 -4 6 -4h56q1 0 1 -4t-1 -4h-216q-1 0 -1 4t1 4h55q7 0 7 4v711q0 4 -7 4h-55q-1 0 -1 4t1 4h151q3 0 3 -3v-30q37 42 93 42q85 0 147.5 -69.5t62.5 -155.5zM382 210q0 156 -44 194q-24 23 -70 23
q-63 0 -93 -47v-323q11 -28 38.5 -43t58.5 -15q43 0 66 22q44 40 44 189z" />
    <glyph glyph-name="q" unicode="q" horiz-adv-x="506" 
d="M498 -309h-215q-1 0 -1 4t1 4h55q6 0 6 4v344q-24 -56 -96 -56q-85 0 -146 67t-61 152q0 86 62.5 155.5t147.5 69.5q57 0 93 -42v30q0 3 3 3h151q2 0 2 -4t-2 -4h-55q-6 0 -6 -4v-711q0 -4 6 -4h55q2 0 2 -4t-2 -4zM344 79v301q-30 47 -93 47q-46 0 -70 -23
q-44 -40 -44 -194q0 -148 44 -189q23 -22 69 -22q44 0 69 23.5t25 56.5z" />
    <glyph glyph-name="r" unicode="r" horiz-adv-x="375" 
d="M352 363q0 -21 -14 -35.5t-34 -14.5q-22 0 -34.5 10t-12.5 26q0 12 6.5 23t6.5 19q0 12 -7.5 19.5t-19.5 7.5q-44 0 -68 -84v-322q0 -4 6 -4h56q1 0 1 -4t-1 -4h-216q-1 0 -1 4t1 4h55q7 0 7 4v403q0 3 -7 3h-55q-1 0 -1 4t1 4h151q3 0 3 -3v-66q26 78 95 78
q37 0 59.5 -20t22.5 -52z" />
    <glyph glyph-name="s" unicode="s" horiz-adv-x="373" 
d="M346 135q0 -63 -38 -103.5t-108 -40.5q-31 0 -64 13.5t-48 13.5q-12 0 -22.5 -6.5t-12.5 -12.5q0 -1 -2 -1.5t-4 0t-2 1.5l5 149q0 2 4 2t4 -2q-2 -57 39.5 -103t102.5 -46q43 0 68 21.5t25 64.5q0 37 -27.5 58t-88.5 40q-117 34 -117 119q0 61 36 97t85 36
q19 0 40.5 -5.5t42.5 -5.5t21 14q0 2 4 2t4 -2v-121q0 -1 -4 -1t-4 1q0 48 -32.5 79t-71.5 31q-76 0 -76 -69q0 -36 27.5 -57.5t87.5 -38.5q126 -36 126 -127z" />
    <glyph glyph-name="t" unicode="t" horiz-adv-x="300" 
d="M284 79q-22 -88 -103 -88q-89 0 -89 97v327q0 3 -7 3h-70q-1 0 -1 4t1 4h70q7 0 7 4v105q31 4 54 20.5t31 38.5q0 2 3.5 2t3.5 -2v-164q0 -4 7 -4h83q2 0 2 -4t-2 -4h-83q-7 0 -7 -3v-376q0 -29 29 -29q21 0 38.5 19t27.5 53l5 -2v-1z" />
    <glyph glyph-name="u" unicode="u" horiz-adv-x="519" 
d="M507 0h-152q-2 0 -2 3v67q-13 -40 -45 -59t-70 -19q-77 0 -121 40.5t-44 118.5v264q0 3 -6 3h-56q-1 0 -1 4t1 4h152q3 0 3 -3v-322q0 -49 21.5 -75t50.5 -26q87 0 115 87v328q0 3 -7 3h-55q-2 0 -2 4t2 4h152q2 0 2 -3v-411q0 -4 7 -4h55q1 0 1 -4t-1 -4z" />
    <glyph glyph-name="v" unicode="v" horiz-adv-x="427" 
d="M454 418h-54q-6 0 -10.5 -7t-14.5 -34l-142 -384q-1 -2 -4.5 -2t-4.5 2l-194 422q-2 3 -8 3h-50q-2 0 -2 4t2 4h217q2 0 2 -4t-2 -4h-54q-4 0 -5 -0.5t0 -2.5l135 -316l103 277q13 41 7 42h-55q-2 0 -2 4t2 4h134q2 0 2 -4t-2 -4z" />
    <glyph glyph-name="w" unicode="w" horiz-adv-x="681" 
d="M713 418h-54q-6 0 -10.5 -7t-13.5 -34l-136 -384q0 -2 -4 -2t-5 2l-147 333l-118 -333q-1 -2 -5 -2t-5 2l-186 422q-3 3 -8 3h-51q-2 0 -2 4t2 4h211q1 0 1 -4t-1 -4h-51q-4 0 -5 -0.5t0 -2.5l133 -305l81 226l-36 79q-3 3 -8 3h-43q-2 0 -2 4t2 4h208q2 0 2 -4t-2 -4
h-55q-6 0 -6 -3l134 -304l95 265q12 41 5 42h-54q-2 0 -2 4t2 4h134q1 0 1 -4t-1 -4z" />
    <glyph glyph-name="x" unicode="x" horiz-adv-x="472" 
d="M491 0h-222q-1 0 -1 4t1 4h52q7 0 4 4l-115 174l-102 -136q-29 -41 -22 -42h68q2 0 2 -4t-2 -4h-149q-1 0 -1 4t1 4h53q6 0 13.5 7t27.5 35l107 142l-148 223q-3 3 -9 3h-51q-2 0 -2 4t2 4h225q1 0 1 -4t-1 -4h-55q-4 -1 -4 -3l99 -149l83 110q28 41 20 42h-66q-2 0 -2 4
t2 4h148q2 0 2 -4t-2 -4h-55q-6 0 -12.5 -7t-26.5 -34l-87 -118l164 -247q1 -4 8 -4h52q1 0 1 -4t-1 -4z" />
    <glyph glyph-name="y" unicode="y" horiz-adv-x="423" 
d="M452 418h-54q-6 0 -10.5 -7t-14.5 -34l-227 -613q-17 -45 -35.5 -63t-49.5 -18t-51 17t-20 46q0 24 14.5 40.5t34.5 16.5t31.5 -10.5t11.5 -26.5q0 -12 -10 -27t-10 -25q0 -15 23 -15q29 0 53 63l85 228l-196 425q-1 3 -8 3h-49q-2 0 -2 4t2 4h217q2 0 2 -4t-2 -4h-54
q-4 0 -5 -0.5t0 -2.5l135 -315l103 276q14 41 7 42h-55q-2 0 -2 4t2 4h134q2 0 2 -4t-2 -4z" />
    <glyph glyph-name="z" unicode="z" horiz-adv-x="424" 
d="M384 3q0 -3 -3 -3h-352q-4 0 -1 8l250 407q1 2 0 2.5t-5 0.5h-73q-135 0 -135 -124q0 -2 -3.5 -2t-3.5 2v129q0 3 2 3h316q4 0 1 -7l-251 -407q-1 -2 0 -3t5 -1h97q76 0 112.5 36.5t36.5 100.5q0 1 3.5 1t3.5 -1v-142z" />
    <glyph glyph-name="braceleft" unicode="{" horiz-adv-x="271" 
d="M272 -244h-15q-86 0 -133.5 57.5t-47.5 151.5q0 58 35.5 142t35.5 106q0 24 -16 28q-10 2 -11 2q-6 0 -13 -1.5t-11 -1.5q-8 0 -8 7q0 6 8 6q4 0 11 -1t13 -1t11 2q16 4 16 27t-35.5 107t-35.5 141q0 94 47.5 151.5t133.5 57.5h15q2 0 2 -3.5t-2 -3.5h-15q-53 0 -78 -37
t-25 -123q0 -36 17.5 -122t17.5 -124q0 -25 -14 -47.5t-41 -29.5q27 -8 41 -30.5t14 -47.5q0 -38 -17.5 -124t-17.5 -122q0 -86 25 -122.5t78 -36.5h15q2 0 2 -4t-2 -4z" />
    <glyph glyph-name="bar" unicode="|" horiz-adv-x="154" 
d="M81 -23q0 -1 -4 -1t-4 1v779q0 2 4 2t4 -2v-779z" />
    <glyph glyph-name="braceright" unicode="}" horiz-adv-x="271" 
d="M196 -35q0 -94 -47.5 -151.5t-133.5 -57.5h-16q-1 0 -1 4t1 4h16q52 0 77 36.5t25 122.5q0 36 -17.5 122t-17.5 124q0 25 14.5 47.5t41.5 30.5q-27 7 -41.5 29.5t-14.5 47.5q0 38 17.5 124t17.5 122q0 86 -25 123t-77 37h-16q-1 0 -1 3.5t1 3.5h16q86 0 133.5 -57.5
t47.5 -151.5q0 -57 -35.5 -141t-35.5 -107t16 -27q4 -2 10 -2t13.5 1t11.5 1q7 0 7 -6q0 -7 -7 -7q-4 0 -11.5 1.5t-13.5 1.5q-2 0 -10 -2q-16 -4 -16 -28q0 -22 35.5 -106t35.5 -142z" />
    <glyph glyph-name="asciitilde" unicode="~" horiz-adv-x="402" 
d="M369 414q0 -47 -32.5 -79t-78.5 -32q-37 0 -90 29t-73 29q-25 0 -40 -19t-15 -48q0 -2 -4 -2t-4 2q0 48 32 79.5t79 31.5q37 0 90 -29t73 -29q25 0 40 19t15 48q0 2 4 2t4 -2z" />
    <glyph glyph-name="exclamdown" unicode="&#xa1;" horiz-adv-x="212" 
d="M160 340q0 -23 -15.5 -39t-37.5 -16q-21 0 -36.5 16.5t-15.5 38.5t15.5 38.5t36.5 16.5q22 0 37.5 -16t15.5 -39zM167 -266q0 -78 -60 -78q-59 0 -59 78q0 33 27.5 206.5t27.5 272.5q0 2 4 2t4 -2q0 -99 28 -272.5t28 -206.5z" />
    <glyph glyph-name="cent" unicode="&#xa2;" horiz-adv-x="443" 
d="M421 86q-62 -94 -169 -95v-70q0 -1 -4.5 -1t-4.5 1v71q-84 2 -143 66.5t-59 154.5q0 89 59 153.5t143 67.5v70q0 2 4.5 2t4.5 -2v-69q65 -1 104.5 -32t39.5 -70q0 -44 -44 -44q-18 0 -30 10.5t-12 25.5q0 12 6 24.5t6 28.5q0 26 -16.5 37.5t-53.5 11.5v-428q53 1 95.5 25
t68.5 66q1 1 4 -1q2 -2 1 -3zM243 -1v427q-40 -2 -62 -22q-23 -22 -33.5 -63.5t-10.5 -127.5t10.5 -127.5t33.5 -63.5q23 -21 62 -23z" />
    <glyph glyph-name="sterling" unicode="&#xa3;" horiz-adv-x="579" 
d="M561 127q-4 -53 -53 -98.5t-113 -45.5q-74 0 -193 56q-65 -56 -119 -56q-21 0 -40 12.5t-19 38.5q0 30 33.5 56.5t86.5 26.5q50 0 100 -11q14 24 14 59q0 18 -6 41.5t-13 42t-20.5 51t-19.5 49.5h-88q-1 0 -1 4t1 4h87q-29 78 -29 126q0 95 58 169t147 74q49 0 88 -33.5
t39 -68.5q0 -21 -16.5 -37.5t-38.5 -16.5q-49 0 -49 40q0 13 11 30.5t11 31.5q0 45 -58 45q-93 0 -93 -181q0 -32 12 -95t15 -84h99q2 0 2 -4t-2 -4h-99q8 -50 8 -106q0 -72 -47 -139q17 -4 59 -18.5t81 -22t91 -7.5q28 0 46 21.5t21 50.5q1 1 7 -1zM192 43q-70 34 -106 34
q-55 0 -55 -44q0 -21 17.5 -31.5t37.5 -10.5q21 0 51.5 14.5t54.5 37.5z" />
    <glyph glyph-name="yen" unicode="&#xa5;" horiz-adv-x="617" 
d="M643 701h-80q-10 0 -30 -42l-133 -276h169q1 0 1 -4t-1 -4h-172l-24 -49v-76h196q1 0 1 -4t-1 -4h-196v-230q0 -4 7 -4h90q2 0 2 -4t-2 -4h-290q-2 0 -2 4t2 4h91q6 0 6 4v230h-195q-2 0 -2 4t2 4h195v65l-31 60h-164q-2 0 -2 4t2 4h159l-165 314q-2 4 -9 4h-95
q-2 0 -2 4t2 4h328q2 0 2 -4t-2 -4h-108q-5 0 -3 -4l186 -352l149 314q16 40 12 42h-99q-1 0 -1 4t1 4h206q2 0 2 -4t-2 -4z" />
    <glyph glyph-name="section" unicode="&#xa7;" horiz-adv-x="524" 
d="M473 212q0 -52 -20.5 -89.5t-70.5 -85.5q62 -57 62 -131q0 -94 -57.5 -158.5t-151.5 -64.5q-68 0 -125.5 42t-57.5 86q0 22 12 33.5t30 11.5q20 0 33 -10t13 -28q0 -8 -6 -21.5t-6 -26.5q0 -34 31 -56.5t76 -22.5q69 0 110.5 40t41.5 110q0 37 -18.5 66t-48.5 49
t-65.5 38.5t-71.5 38.5t-66 43t-48.5 58.5t-18.5 80.5q0 52 21.5 91t70.5 84q-61 58 -61 131q0 94 57 158.5t151 64.5q66 0 114 -35.5t48 -78.5q0 -22 -12 -33.5t-30 -11.5q-21 0 -33.5 10t-12.5 28q0 8 5.5 21.5t5.5 26.5q0 65 -85 65q-70 0 -111.5 -40.5t-41.5 -109.5
q0 -37 18.5 -66t48.5 -49t65.5 -38.5t71.5 -38.5t66 -43t48.5 -58.5t18.5 -80.5zM437 146q0 40 -32 74t-73 54.5t-96.5 51.5t-87.5 59q-61 -57 -61 -105q0 -40 32 -73.5t73 -54t97 -51.5t88 -59q60 58 60 104z" />
    <glyph glyph-name="dieresis" unicode="&#xa8;" 
d="M360 591q0 -20 -13 -33.5t-32 -13.5t-32 13.5t-13 33.5t13 33.5t32 13.5t32 -13.5t13 -33.5zM173 591q0 -20 -13.5 -33.5t-32.5 -13.5q-18 0 -31.5 13.5t-13.5 33.5q0 19 13.5 33t31.5 14q19 0 32.5 -14t13.5 -33z" />
    <glyph glyph-name="copyright" unicode="&#xa9;" horiz-adv-x="840" 
d="M788 355q0 -154 -108 -263t-260 -109t-260.5 109t-108.5 263t108.5 262.5t260.5 108.5t260 -108.5t108 -262.5zM780 355q0 151 -105.5 257t-254.5 106t-255 -106t-106 -257t106 -257.5t255 -106.5t254.5 106.5t105.5 257.5zM568 139q-1 -1 -4 -1t-4 1q-1 6 -8 11.5
t-18 5.5q-14 0 -51 -9.5t-54 -9.5q-85 0 -143 66t-58 157t56.5 157t141.5 66q15 0 47 -8t46 -8q26 0 30 14q0 1 3 1t4 -1v-132q-1 -1 -4 -1t-3 1q0 45 -39.5 86t-83.5 41q-48 0 -72 -23q-45 -42 -45 -193t45 -193q24 -23 75 -23q55 0 93 42t38 102q0 1 3.5 1t4.5 -1v-149z
" />
    <glyph glyph-name="ordfeminine" unicode="&#xaa;" horiz-adv-x="347" 
d="M330 427q-3 -12 -18 -21t-35 -9q-24 0 -40.5 13.5t-21.5 34.5q-17 -48 -81 -48q-42 0 -71.5 19t-29.5 59q0 84 98 94q79 6 79 23v56q0 40 -13 55t-36 15q-36 0 -36 -32q0 -7 3.5 -15t3.5 -14q0 -12 -8.5 -20t-25.5 -8q-16 0 -24 10.5t-8 24.5q0 22 27 42t68 20
q121 0 121 -132v-157q0 -25 18 -25q9 0 16 6t9 12q2 1 5 -3zM210 464v113q-7 -5 -17.5 -7.5t-25.5 -4.5t-22 -4q-42 -5 -42 -86q0 -39 12 -53.5t34 -14.5q26 0 43.5 17.5t17.5 39.5z" />
    <glyph glyph-name="guillemotleft" unicode="&#xab;" horiz-adv-x="380" 
d="M340 50q0 -3 -5.5 -3t-5.5 3q0 36 -31.5 74t-58.5 56.5t-50 30.5q-4 2 0 4q15 8 34 20.5t45.5 34t43.5 50t17 55.5q0 3 5.5 3t5.5 -3q0 -43 -23 -90.5t-48 -71.5q25 -24 48 -72t23 -91zM189 50q0 -3 -5 -3t-5 3q0 36 -31.5 74t-58.5 56.5t-50 30.5q-4 2 0 4q15 8 34 20.5
t45.5 34t43.5 50t17 55.5q0 3 5 3t5 -3q0 -44 -22.5 -91t-48.5 -71q26 -24 48.5 -71.5t22.5 -91.5z" />
    <glyph glyph-name="registered" unicode="&#xae;" horiz-adv-x="840" 
d="M788 355q0 -154 -108 -263t-260 -109t-260.5 109t-108.5 263t108.5 262.5t260.5 108.5t260 -108.5t108 -262.5zM780 355q0 151 -105.5 257t-254.5 106t-255 -106t-106 -257t106 -257.5t255 -106.5t254.5 106.5t105.5 257.5zM660 158q-21 -21 -56 -21q-42 0 -69.5 28
t-27.5 88v36q0 74 -92 74h-49v-207q0 -2 4 -2h59q1 0 1 -3.5t-1 -3.5h-196q-1 0 -1 3.5t1 3.5h54q4 0 4 2v407q0 2 -4 2h-54q-1 0 -1 3.5t1 3.5h188q65 0 104.5 -29.5t39.5 -74.5q0 -42 -36.5 -71.5t-91.5 -29.5q75 0 111 -31.5t36 -83.5v-54q0 -23 9.5 -37t25.5 -14
q20 0 37 17zM490 466q0 55 -20.5 77t-64.5 22h-35q-4 0 -4 -2v-193h49q44 0 59.5 19.5t15.5 76.5z" />
    <glyph glyph-name="macron" unicode="&#xaf;" horiz-adv-x="396" 
d="M351 597h-307q-2 0 -2 7.5t2 7.5h307q1 0 1 -7.5t-1 -7.5z" />
    <glyph glyph-name="degree" unicode="&#xb0;" horiz-adv-x="281" 
d="M218 636q0 -32 -23 -54.5t-54 -22.5q-32 0 -55 22.5t-23 54.5t23 54.5t55 22.5q31 0 54 -22.5t23 -54.5zM209 636q0 28 -20 48.5t-48 20.5q-29 0 -49 -20.5t-20 -48.5t20 -48.5t49 -20.5q28 0 48 20.5t20 48.5z" />
    <glyph glyph-name="acute" unicode="&#xb4;" horiz-adv-x="350" 
d="M270 666q0 -40 -49.5 -80.5t-176.5 -70.5l-2 4q0 3 1 3q48 11 82 41.5t47.5 59.5t29.5 52t34 23q15 0 24.5 -9t9.5 -23z" />
    <glyph glyph-name="paragraph" unicode="&#xb6;" horiz-adv-x="637" 
d="M597 0h-221q-134 0 -230 104t-96 250q0 147 96 251t230 104h221q1 0 1 -4t-1 -4h-85q-5 0 -5 -4v-685q0 -4 5 -4h85q1 0 1 -4t-1 -4zM498 12v685q0 4 -7 4h-89q-6 0 -6 -4v-685q0 -4 6 -4h89q7 0 7 4z" />
    <glyph glyph-name="periodcentered" unicode="&#xb7;" horiz-adv-x="173" 
d="M141 354q0 -23 -14.5 -38.5t-36.5 -15.5q-21 0 -36 15.5t-15 38.5q0 22 15 37.5t36 15.5q22 0 36.5 -15.5t14.5 -37.5z" />
    <glyph glyph-name="cedilla" unicode="&#xb8;" horiz-adv-x="287" 
d="M203 -150q0 -35 -18.5 -55.5t-52.5 -20.5q-29 0 -46.5 15.5t-17.5 32.5q0 10 6.5 17.5t17.5 7.5q22 0 22 -20q0 -9 -5 -15.5t-5 -10.5q0 -20 28 -20q26 0 42.5 13.5t16.5 35.5q0 12 -12.5 20.5t-27 14.5t-27 21t-12.5 38q0 39 23 69q1 1 4 1t3 -2q-11 -13 -11 -33
q0 -18 11.5 -30t24.5 -17.5t24.5 -21t11.5 -40.5z" />
    <glyph glyph-name="ordmasculine" unicode="&#xba;" horiz-adv-x="390" 
d="M350 561q0 -68 -45.5 -116.5t-110.5 -48.5q-63 0 -108 48.5t-45 116.5t44.5 116.5t108.5 48.5q65 0 110.5 -48.5t45.5 -116.5zM275 561q0 111 -30 140q-17 17 -51 17q-31 0 -48 -17q-31 -28 -31 -140q0 -63 7 -93.5t24 -47.5q18 -17 48 -17q33 0 51 17q30 31 30 141z" />
    <glyph glyph-name="guillemotright" unicode="&#xbb;" horiz-adv-x="380" 
d="M341 211q-23 -12 -50 -30.5t-58.5 -56.5t-31.5 -74q0 -3 -5.5 -3t-5.5 3q0 43 23 91t48 72q-25 24 -48 71.5t-23 90.5q0 3 5.5 3t5.5 -3q0 -27 17 -55.5t43.5 -50t45.5 -34t34 -20.5q4 -2 0 -4zM191 211q-23 -12 -50 -30.5t-58.5 -56.5t-31.5 -74q0 -3 -5.5 -3t-5.5 3
q0 43 23 91t48 72q-25 24 -48 71.5t-23 90.5q0 3 5.5 3t5.5 -3q0 -27 17 -55.5t43.5 -50t45.5 -34t34 -20.5q4 -2 0 -4z" />
    <glyph glyph-name="questiondown" unicode="&#xbf;" horiz-adv-x="414" 
d="M336 340q0 -22 -15.5 -38.5t-36.5 -16.5q-22 0 -37.5 16t-15.5 39t15.5 39t37.5 16q21 0 36.5 -16.5t15.5 -38.5zM404 -219q0 -47 -44.5 -86t-110.5 -39q-95 0 -156.5 58t-61.5 150q0 89 52.5 146.5t126.5 57.5q47 0 70 -26v171q0 2 3.5 2t3.5 -2v-182q0 -1 1 -3v-1
q-1 -2 -3 -2q-19 35 -75 35q-35 0 -53 -18q-14 -12 -18 -43.5t-4 -134.5q0 -75 10 -115.5t34 -62.5q22 -22 70 -22q36 0 50 14.5t14 48.5q0 19 -7.5 34t-7.5 30q0 19 14.5 32t38.5 13q53 0 53 -55z" />
    <glyph glyph-name="Agrave" unicode="&#xc0;" horiz-adv-x="665" 
d="M693 0h-324q-1 0 -1 4t1 4h93q5 0 5 4l-82 230h-228l-70 -192q-5 -14 -7.5 -22t-3.5 -12.5t0 -6t3 -1.5h89q2 0 2 -4t-2 -4h-189q-1 0 -1 4t1 4h75q7 0 11 6.5t14 35.5l243 673q1 2 4 2t4 -2l270 -711q2 -4 8 -4h85q1 0 1 -4t-1 -4zM382 250l-110 313l-113 -313h223z
M359 777q2 -1 -1 -7q-127 30 -177 70.5t-50 80.5q0 14 9.5 23t24.5 9q18 0 34 -23t30 -52t48 -59.5t82 -41.5z" />
    <glyph glyph-name="Aacute" unicode="&#xc1;" horiz-adv-x="665" 
d="M693 0h-324q-1 0 -1 4t1 4h93q5 0 5 4l-82 230h-228l-70 -192q-5 -14 -7.5 -22t-3.5 -12.5t0 -6t3 -1.5h89q2 0 2 -4t-2 -4h-189q-1 0 -1 4t1 4h75q7 0 11 6.5t14 35.5l243 673q1 2 4 2t4 -2l270 -711q2 -4 8 -4h85q1 0 1 -4t-1 -4zM382 250l-110 313l-113 -313h223z
M532 921q0 -40 -49.5 -80.5t-176.5 -70.5l-2 4q0 3 1 3q48 11 82 41.5t47.5 59.5t29.5 52t34 23q15 0 24.5 -9t9.5 -23z" />
    <glyph glyph-name="Acircumflex" unicode="&#xc2;" horiz-adv-x="665" 
d="M693 0h-324q-1 0 -1 4t1 4h93q5 0 5 4l-82 230h-228l-70 -192q-5 -14 -7.5 -22t-3.5 -12.5t0 -6t3 -1.5h89q2 0 2 -4t-2 -4h-189q-1 0 -1 4t1 4h75q7 0 11 6.5t14 35.5l243 673q1 2 4 2t4 -2l270 -711q2 -4 8 -4h85q1 0 1 -4t-1 -4zM382 250l-110 313l-113 -313h223z
M462 784q1 -2 -1.5 -4t-3.5 -1l-132 86l-121 -86q-1 -1 -3 2q-2 2 -1 3q99 115 128 160q2 4 4 0q38 -57 130 -160z" />
    <glyph glyph-name="Atilde" unicode="&#xc3;" horiz-adv-x="665" 
d="M693 0h-324q-1 0 -1 4t1 4h93q5 0 5 4l-82 230h-228l-70 -192q-5 -14 -7.5 -22t-3.5 -12.5t0 -6t3 -1.5h89q2 0 2 -4t-2 -4h-189q-1 0 -1 4t1 4h75q7 0 11 6.5t14 35.5l243 673q1 2 4 2t4 -2l270 -711q2 -4 8 -4h85q1 0 1 -4t-1 -4zM382 250l-110 313l-113 -313h223z
M501 922q0 -48 -32.5 -80t-78.5 -32q-37 0 -90 29t-73 29q-25 0 -40 -19t-15 -47q0 -2 -4 -2t-4 2q0 47 32 79t79 32q37 0 90 -29t73 -29q25 0 40 19t15 48q0 2 4 2t4 -2z" />
    <glyph glyph-name="Adieresis" unicode="&#xc4;" horiz-adv-x="665" 
d="M693 0h-324q-1 0 -1 4t1 4h93q5 0 5 4l-82 230h-228l-70 -192q-5 -14 -7.5 -22t-3.5 -12.5t0 -6t3 -1.5h89q2 0 2 -4t-2 -4h-189q-1 0 -1 4t1 4h75q7 0 11 6.5t14 35.5l243 673q1 2 4 2t4 -2l270 -711q2 -4 8 -4h85q1 0 1 -4t-1 -4zM382 250l-110 313l-113 -313h223z
M469 846q0 -20 -13 -33.5t-32 -13.5t-32 13.5t-13 33.5t13 33.5t32 13.5t32 -13.5t13 -33.5zM282 846q0 -20 -13.5 -33.5t-32.5 -13.5q-18 0 -31.5 13.5t-13.5 33.5q0 19 13.5 33t31.5 14q19 0 32.5 -14t13.5 -33z" />
    <glyph glyph-name="Aring" unicode="&#xc5;" horiz-adv-x="665" 
d="M693 0h-324q-1 0 -1 4t1 4h93q5 0 5 4l-82 230h-228l-70 -192q-5 -14 -7.5 -22t-3.5 -12.5t0 -6t3 -1.5h89q2 0 2 -4t-2 -4h-189q-1 0 -1 4t1 4h75q7 0 11 6.5t14 35.5l241 668q-30 3 -50.5 25t-20.5 52q0 32 22.5 54.5t54.5 22.5t54.5 -22.5t22.5 -54.5
q0 -30 -20.5 -52.5t-50.5 -24.5l268 -706q2 -4 8 -4h85q1 0 1 -4t-1 -4zM394 795q0 28 -20 48.5t-48 20.5t-48.5 -20t-20.5 -49t20.5 -49t48.5 -20t48 20.5t20 48.5zM382 250l-110 313l-113 -313h223z" />
    <glyph glyph-name="AE" unicode="&#xc6;" horiz-adv-x="934" 
d="M909 3q0 -3 -3 -3h-574q-2 0 -2 4t2 4h89q6 0 6 4v280h-226l-134 -242q-23 -41 -17 -42h88q4 0 0 -8h-186q-4 8 0 8h73q7 0 11.5 6t20.5 36l364 651h-90q-1 0 -1 4t1 4h522q3 0 3 -3v-195q0 -2 -3.5 -2t-3.5 2q0 77 -47 133.5t-135 56.5h-110q-6 0 -6 -4v-329h36
q59 0 95 36t36 89q0 1 3 1t3 -1v-258q0 -1 -3 -1t-3 1q0 53 -36 89t-95 36h-36v-348q0 -4 6 -4h113q115 0 173.5 62t58.5 148q0 2 3.5 2t3.5 -2v-215zM427 299v397l-222 -397h222z" />
    <glyph glyph-name="Ccedilla" unicode="&#xc7;" horiz-adv-x="658" 
d="M608 -15q0 -1 -3 -1t-4 1q-2 11 -14 20.5t-31 9.5q-21 0 -87.5 -17t-104.5 -14q-8 -16 -8 -26q0 -18 11.5 -30t25 -17.5t25 -21t11.5 -40.5q0 -35 -19 -55.5t-53 -20.5q-29 0 -46.5 15.5t-17.5 32.5q0 10 7 17.5t18 7.5q22 0 22 -20q0 -9 -5 -15.5t-5 -10.5q0 -20 27 -20
q26 0 42.5 13.5t16.5 35.5q0 12 -12 20.5t-27 14.5t-27 21t-12 38q0 33 17 61q-130 11 -217.5 119t-87.5 251q0 152 93.5 262t233.5 110q25 0 78.5 -13.5t76.5 -13.5q20 0 34 7.5t16 16.5q0 1 4 1t4 -1v-220q0 -1 -4 -1t-4 1q0 75 -65.5 145t-139.5 70q-77 0 -118 -38
q-75 -72 -75 -326t75 -325q42 -39 123 -39q91 0 155 72.5t64 171.5q0 2 3.5 2t3.5 -2v-249z" />
    <glyph glyph-name="Egrave" unicode="&#xc8;" horiz-adv-x="641" 
d="M616 3q0 -3 -3 -3h-574q-1 0 -1 4t1 4h88q7 0 7 4v685q0 4 -7 4h-88q-1 0 -1 4t1 4h521q3 0 3 -3v-195q0 -2 -4 -2t-4 2q0 77 -46.5 133.5t-134.5 56.5h-110q-6 0 -6 -4v-329h36q59 0 94.5 36t35.5 89q0 1 4 1t4 -1v-258q0 -1 -4 -1t-4 1q0 53 -36 89t-94 36h-36v-348
q0 -4 6 -4h113q115 0 173 62t58 148q0 2 4 2t4 -2v-215zM432 777q2 -1 -1 -7q-127 30 -177 70.5t-50 80.5q0 14 9.5 23t24.5 9q18 0 34 -23t30 -52t48 -59.5t82 -41.5z" />
    <glyph glyph-name="Eacute" unicode="&#xc9;" horiz-adv-x="641" 
d="M616 3q0 -3 -3 -3h-574q-1 0 -1 4t1 4h88q7 0 7 4v685q0 4 -7 4h-88q-1 0 -1 4t1 4h521q3 0 3 -3v-195q0 -2 -4 -2t-4 2q0 77 -46.5 133.5t-134.5 56.5h-110q-6 0 -6 -4v-329h36q59 0 94.5 36t35.5 89q0 1 4 1t4 -1v-258q0 -1 -4 -1t-4 1q0 53 -36 89t-94 36h-36v-348
q0 -4 6 -4h113q115 0 173 62t58 148q0 2 4 2t4 -2v-215zM508 921q0 -40 -49.5 -80.5t-176.5 -70.5l-2 4q0 3 1 3q48 11 82 41.5t47.5 59.5t29.5 52t34 23q15 0 24.5 -9t9.5 -23z" />
    <glyph glyph-name="Ecircumflex" unicode="&#xca;" horiz-adv-x="641" 
d="M616 3q0 -3 -3 -3h-574q-1 0 -1 4t1 4h88q7 0 7 4v685q0 4 -7 4h-88q-1 0 -1 4t1 4h521q3 0 3 -3v-195q0 -2 -4 -2t-4 2q0 77 -46.5 133.5t-134.5 56.5h-110q-6 0 -6 -4v-329h36q59 0 94.5 36t35.5 89q0 1 4 1t4 -1v-258q0 -1 -4 -1t-4 1q0 53 -36 89t-94 36h-36v-348
q0 -4 6 -4h113q115 0 173 62t58 148q0 2 4 2t4 -2v-215zM469 784q1 -2 -1 -4t-4 -1l-132 86l-121 -86q-1 -1 -3 2q-2 2 -1 3q99 115 128 160q2 4 4 0q38 -57 130 -160z" />
    <glyph glyph-name="Edieresis" unicode="&#xcb;" horiz-adv-x="641" 
d="M616 3q0 -3 -3 -3h-574q-1 0 -1 4t1 4h88q7 0 7 4v685q0 4 -7 4h-88q-1 0 -1 4t1 4h521q3 0 3 -3v-195q0 -2 -4 -2t-4 2q0 77 -46.5 133.5t-134.5 56.5h-110q-6 0 -6 -4v-329h36q59 0 94.5 36t35.5 89q0 1 4 1t4 -1v-258q0 -1 -4 -1t-4 1q0 53 -36 89t-94 36h-36v-348
q0 -4 6 -4h113q115 0 173 62t58 148q0 2 4 2t4 -2v-215zM478 846q0 -20 -13 -33.5t-32 -13.5t-32 13.5t-13 33.5t13 33.5t32 13.5t32 -13.5t13 -33.5zM291 846q0 -20 -13.5 -33.5t-32.5 -13.5q-18 0 -31.5 13.5t-13.5 33.5q0 19 13.5 33t31.5 14q19 0 32.5 -14t13.5 -33z
" />
    <glyph glyph-name="Igrave" unicode="&#xcc;" horiz-adv-x="368" 
d="M353 0h-313q-2 0 -2 4t2 4h88q6 0 6 4v685q0 4 -6 4h-88q-2 0 -2 4t2 4h313q1 0 1 -4t-1 -4h-89q-6 0 -6 -4v-685q0 -4 6 -4h89q1 0 1 -4t-1 -4zM301 777q2 -1 -1 -7q-127 30 -177 70.5t-50 80.5q0 14 9.5 23t24.5 9q18 0 34 -23t30 -52t48 -59.5t82 -41.5z" />
    <glyph glyph-name="Iacute" unicode="&#xcd;" horiz-adv-x="368" 
d="M353 0h-313q-2 0 -2 4t2 4h88q6 0 6 4v685q0 4 -6 4h-88q-2 0 -2 4t2 4h313q1 0 1 -4t-1 -4h-89q-6 0 -6 -4v-685q0 -4 6 -4h89q1 0 1 -4t-1 -4zM346 921q0 -40 -49.5 -80.5t-176.5 -70.5l-2 4q0 3 1 3q48 11 82 41.5t47.5 59.5t29.5 52t34 23q15 0 24.5 -9t9.5 -23z" />
    <glyph glyph-name="Icircumflex" unicode="&#xce;" horiz-adv-x="368" 
d="M353 0h-313q-2 0 -2 4t2 4h88q6 0 6 4v685q0 4 -6 4h-88q-2 0 -2 4t2 4h313q1 0 1 -4t-1 -4h-89q-6 0 -6 -4v-685q0 -4 6 -4h89q1 0 1 -4t-1 -4zM330 784q1 -2 -1.5 -4t-3.5 -1l-132 86l-121 -86q-1 -1 -3 2q-2 2 -1 3q99 115 128 160q2 4 4 0q38 -57 130 -160z" />
    <glyph glyph-name="Idieresis" unicode="&#xcf;" horiz-adv-x="368" 
d="M353 0h-313q-2 0 -2 4t2 4h88q6 0 6 4v685q0 4 -6 4h-88q-2 0 -2 4t2 4h313q1 0 1 -4t-1 -4h-89q-6 0 -6 -4v-685q0 -4 6 -4h89q1 0 1 -4t-1 -4zM338 846q0 -20 -13 -33.5t-32 -13.5t-32 13.5t-13 33.5t13 33.5t32 13.5t32 -13.5t13 -33.5zM151 846q0 -20 -13.5 -33.5
t-32.5 -13.5q-18 0 -31.5 13.5t-13.5 33.5q0 19 13.5 33t31.5 14q19 0 32.5 -14t13.5 -33z" />
    <glyph glyph-name="Ntilde" unicode="&#xd1;" horiz-adv-x="733" 
d="M707 701h-88q-6 0 -6 -4v-710q0 -1 -2 -2t-4.5 -0.5t-3.5 2.5l-465 706v-681q0 -4 5 -4h89q2 0 2 -4t-2 -4h-197q-1 0 -1 4t1 4h88q6 0 6 4v685q0 4 -6 4h-88q-1 0 -1 4t1 4h227q10 0 22 -18l320 -490v496q0 4 -6 4h-88q-2 0 -2 4t2 4h197q1 0 1 -4t-1 -4zM555 922
q0 -48 -32.5 -80t-78.5 -32q-37 0 -90 29t-73 29q-25 0 -40 -19t-15 -47q0 -2 -4 -2t-4 2q0 47 32 79t79 32q37 0 90 -29t73 -29q25 0 40 19t15 48q0 2 4 2t4 -2z" />
    <glyph glyph-name="Ograve" unicode="&#xd2;" horiz-adv-x="754" 
d="M703 354q0 -154 -95.5 -262.5t-231.5 -108.5q-134 0 -230 108.5t-96 262.5q0 152 93.5 262t232.5 110q136 0 231.5 -109t95.5 -263zM569 354q0 253 -74 326q-42 38 -119 38q-76 0 -117 -38q-75 -74 -75 -326q0 -144 18 -215.5t57 -109.5q42 -39 117 -39q76 0 119 39
q39 38 56.5 109t17.5 216zM424 777q2 -1 -1 -7q-127 30 -177 70.5t-50 80.5q0 14 9.5 23t24.5 9q18 0 34 -23t30 -52t48 -59.5t82 -41.5z" />
    <glyph glyph-name="Oacute" unicode="&#xd3;" horiz-adv-x="754" 
d="M703 354q0 -154 -95.5 -262.5t-231.5 -108.5q-134 0 -230 108.5t-96 262.5q0 152 93.5 262t232.5 110q136 0 231.5 -109t95.5 -263zM569 354q0 253 -74 326q-42 38 -119 38q-76 0 -117 -38q-75 -74 -75 -326q0 -144 18 -215.5t57 -109.5q42 -39 117 -39q76 0 119 39
q39 38 56.5 109t17.5 216zM538 921q0 -40 -49.5 -80.5t-176.5 -70.5l-2 4q0 3 1 3q48 11 82 41.5t47.5 59.5t29.5 52t34 23q15 0 24.5 -9t9.5 -23z" />
    <glyph glyph-name="Ocircumflex" unicode="&#xd4;" horiz-adv-x="754" 
d="M703 354q0 -154 -95.5 -262.5t-231.5 -108.5q-134 0 -230 108.5t-96 262.5q0 152 93.5 262t232.5 110q136 0 231.5 -109t95.5 -263zM569 354q0 253 -74 326q-42 38 -119 38q-76 0 -117 -38q-75 -74 -75 -326q0 -144 18 -215.5t57 -109.5q42 -39 117 -39q76 0 119 39
q39 38 56.5 109t17.5 216zM513 784q1 -2 -1 -4t-4 -1l-132 86l-121 -86q-1 -1 -3 2q-2 2 -1 3q99 115 128 160q2 4 4 0q38 -57 130 -160z" />
    <glyph glyph-name="Otilde" unicode="&#xd5;" horiz-adv-x="784" 
d="M703 354q0 -154 -95.5 -262.5t-231.5 -108.5q-134 0 -230 108.5t-96 262.5q0 152 93.5 262t232.5 110q136 0 231.5 -109t95.5 -263zM569 354q0 253 -74 326q-42 38 -119 38q-76 0 -117 -38q-75 -74 -75 -326q0 -144 18 -215.5t57 -109.5q42 -39 117 -39q76 0 119 39
q39 38 56.5 109t17.5 216zM548 922q0 -48 -32.5 -80t-78.5 -32q-37 0 -90 29t-73 29q-25 0 -40 -19t-15 -47q0 -2 -4 -2t-4 2q0 47 32 79t79 32q37 0 90 -29t73 -29q25 0 40 19t15 48q0 2 4 2t4 -2z" />
    <glyph glyph-name="Odieresis" unicode="&#xd6;" horiz-adv-x="754" 
d="M703 354q0 -154 -95.5 -262.5t-231.5 -108.5q-134 0 -230 108.5t-96 262.5q0 152 93.5 262t232.5 110q136 0 231.5 -109t95.5 -263zM569 354q0 253 -74 326q-42 38 -119 38q-76 0 -117 -38q-75 -74 -75 -326q0 -144 18 -215.5t57 -109.5q42 -39 117 -39q76 0 119 39
q39 38 56.5 109t17.5 216zM514 846q0 -20 -13 -33.5t-32 -13.5t-32 13.5t-13 33.5t13 33.5t32 13.5t32 -13.5t13 -33.5zM327 846q0 -20 -13.5 -33.5t-32.5 -13.5q-18 0 -31.5 13.5t-13.5 33.5q0 19 13.5 33t31.5 14q19 0 32.5 -14t13.5 -33z" />
    <glyph glyph-name="Oslash" unicode="&#xd8;" horiz-adv-x="754" 
d="M703 354q0 -154 -95.5 -262.5t-231.5 -108.5q-96 0 -178 60l-40 -67q-2 -1 -7 4l40 68q-65 51 -103 132t-38 174q0 152 93.5 262t232.5 110q102 0 181 -62l39 66q1 1 2.5 0t3 -2.5t1.5 -2.5q-28 -46 -40 -66q65 -51 102.5 -131.5t37.5 -173.5zM532 622q-17 36 -37 58
q-42 38 -119 38q-76 0 -117 -38q-75 -74 -75 -326q0 -184 33 -262zM569 354q0 174 -34 257l-79 -132l-156 -264l-78 -132q13 -28 37 -54q42 -39 117 -39q76 0 119 39q39 38 56.5 109t17.5 216z" />
    <glyph glyph-name="Ugrave" unicode="&#xd9;" horiz-adv-x="719" 
d="M708 701h-88q-6 0 -6 -4v-487q0 -107 -60 -167t-182 -60q-118 0 -188 55.5t-70 163.5v495q0 4 -5 4h-89q-2 0 -2 4t2 4h313q1 0 1 -4t-1 -4h-88q-6 0 -6 -4v-495q0 -101 37.5 -152t121.5 -51q105 0 156 56.5t51 154.5v487q0 4 -6 4h-87q-2 0 -2 4t2 4h196q2 0 2 -4t-2 -4
zM481 777q2 -1 -1 -7q-127 30 -177 70.5t-50 80.5q0 14 9.5 23t24.5 9q18 0 34 -23t30 -52t48 -59.5t82 -41.5z" />
    <glyph glyph-name="Uacute" unicode="&#xda;" horiz-adv-x="719" 
d="M708 701h-88q-6 0 -6 -4v-487q0 -107 -60 -167t-182 -60q-118 0 -188 55.5t-70 163.5v495q0 4 -5 4h-89q-2 0 -2 4t2 4h313q1 0 1 -4t-1 -4h-88q-6 0 -6 -4v-495q0 -101 37.5 -152t121.5 -51q105 0 156 56.5t51 154.5v487q0 4 -6 4h-87q-2 0 -2 4t2 4h196q2 0 2 -4t-2 -4
zM548 921q0 -40 -49.5 -80.5t-176.5 -70.5l-2 4q0 3 1 3q48 11 82 41.5t47.5 59.5t29.5 52t34 23q15 0 24.5 -9t9.5 -23z" />
    <glyph glyph-name="Ucircumflex" unicode="&#xdb;" horiz-adv-x="719" 
d="M708 701h-88q-6 0 -6 -4v-487q0 -107 -60 -167t-182 -60q-118 0 -188 55.5t-70 163.5v495q0 4 -5 4h-89q-2 0 -2 4t2 4h313q1 0 1 -4t-1 -4h-88q-6 0 -6 -4v-495q0 -101 37.5 -152t121.5 -51q105 0 156 56.5t51 154.5v487q0 4 -6 4h-87q-2 0 -2 4t2 4h196q2 0 2 -4t-2 -4
zM525 784q1 -2 -1 -4t-4 -1l-132 86l-121 -86q-1 -1 -3 2q-2 2 -1 3q99 115 128 160q2 4 4 0q38 -57 130 -160z" />
    <glyph glyph-name="Udieresis" unicode="&#xdc;" horiz-adv-x="719" 
d="M708 701h-88q-6 0 -6 -4v-487q0 -107 -60 -167t-182 -60q-118 0 -188 55.5t-70 163.5v495q0 4 -5 4h-89q-2 0 -2 4t2 4h313q1 0 1 -4t-1 -4h-88q-6 0 -6 -4v-495q0 -101 37.5 -152t121.5 -51q105 0 156 56.5t51 154.5v487q0 4 -6 4h-87q-2 0 -2 4t2 4h196q2 0 2 -4t-2 -4
zM537 846q0 -20 -13 -33.5t-32 -13.5t-32 13.5t-13 33.5t13 33.5t32 13.5t32 -13.5t13 -33.5zM350 846q0 -20 -13.5 -33.5t-32.5 -13.5q-18 0 -31.5 13.5t-13.5 33.5q0 19 13.5 33t31.5 14q19 0 32.5 -14t13.5 -33z" />
    <glyph glyph-name="germandbls" unicode="&#xdf;" horiz-adv-x="575" 
d="M521 193q0 -97 -48.5 -149t-105.5 -52q-47 0 -77.5 26.5t-30.5 61.5q0 17 9 27t23 10q15 0 24.5 -8t9.5 -21q0 -6 -4 -16.5t-4 -19.5q0 -25 14 -39t36 -14t34.5 11.5t21 53t8.5 120.5q0 120 -26 171t-84 51q-19 0 -37 -11q-4 -2 -5 4q0 2 1 2q55 33 74.5 71.5t19.5 120.5
q0 77 -20.5 110t-71.5 33q-40 0 -64.5 -29.5t-24.5 -92.5v-602q0 -4 6 -4h55q2 0 2 -4t-2 -4h-216q-2 0 -2 4t2 4h56q6 0 6 4v438q0 150 50.5 222t131.5 72q78 0 126.5 -41t48.5 -112q0 -60 -39 -106t-103 -72q15 3 34 3q79 0 125.5 -69t46.5 -154z" />
    <glyph glyph-name="agrave" unicode="&#xe0;" 
d="M438 31q-5 -15 -25 -27t-47 -12q-32 0 -54.5 18.5t-27.5 47.5q-10 -31 -39.5 -48.5t-70.5 -17.5q-57 0 -97.5 25t-40.5 80q0 37 14.5 63t38.5 38.5t42 18t38 7.5q88 8 103 18q7 6 8 12v76q0 98 -71 98q-47 0 -47 -45q0 -9 4.5 -20t4.5 -19q0 -15 -11.5 -25t-34.5 -10
q-21 0 -31.5 13.5t-10.5 31.5q0 30 35.5 56t90.5 26q163 0 163 -181v-211q0 -34 25 -34q12 0 22.5 8t12.5 17q1 2 5 -2q1 -1 1 -2zM280 83v154q-11 -7 -26.5 -10.5t-36 -6t-29.5 -4.5q-29 -5 -45 -30.5t-16 -88.5q0 -53 17.5 -73t47.5 -20q37 0 62.5 24t25.5 55zM333 522
q2 -1 -1 -7q-127 30 -177 70.5t-50 80.5q0 14 9.5 23t24.5 9q18 0 34 -23t30 -52t48 -59.5t82 -41.5z" />
    <glyph glyph-name="aacute" unicode="&#xe1;" 
d="M438 31q-5 -15 -25 -27t-47 -12q-32 0 -54.5 18.5t-27.5 47.5q-10 -31 -39.5 -48.5t-70.5 -17.5q-57 0 -97.5 25t-40.5 80q0 37 14.5 63t38.5 38.5t42 18t38 7.5q88 8 103 18q7 6 8 12v76q0 98 -71 98q-47 0 -47 -45q0 -9 4.5 -20t4.5 -19q0 -15 -11.5 -25t-34.5 -10
q-21 0 -31.5 13.5t-10.5 31.5q0 30 35.5 56t90.5 26q163 0 163 -181v-211q0 -34 25 -34q12 0 22.5 8t12.5 17q1 2 5 -2q1 -1 1 -2zM280 83v154q-11 -7 -26.5 -10.5t-36 -6t-29.5 -4.5q-29 -5 -45 -30.5t-16 -88.5q0 -53 17.5 -73t47.5 -20q37 0 62.5 24t25.5 55zM370 666
q0 -40 -49.5 -80.5t-176.5 -70.5l-2 4q0 3 1 3q48 11 82 41.5t47.5 59.5t29.5 52t34 23q15 0 24.5 -9t9.5 -23z" />
    <glyph glyph-name="acircumflex" unicode="&#xe2;" 
d="M438 31q-5 -15 -25 -27t-47 -12q-32 0 -54.5 18.5t-27.5 47.5q-10 -31 -39.5 -48.5t-70.5 -17.5q-57 0 -97.5 25t-40.5 80q0 37 14.5 63t38.5 38.5t42 18t38 7.5q88 8 103 18q7 6 8 12v76q0 98 -71 98q-47 0 -47 -45q0 -9 4.5 -20t4.5 -19q0 -15 -11.5 -25t-34.5 -10
q-21 0 -31.5 13.5t-10.5 31.5q0 30 35.5 56t90.5 26q163 0 163 -181v-211q0 -34 25 -34q12 0 22.5 8t12.5 17q1 2 5 -2q1 -1 1 -2zM280 83v154q-11 -7 -26.5 -10.5t-36 -6t-29.5 -4.5q-29 -5 -45 -30.5t-16 -88.5q0 -53 17.5 -73t47.5 -20q37 0 62.5 24t25.5 55zM361 529
q1 -1 -1 -3.5t-4 -1.5l-132 86l-121 -86q-1 -1 -3 2q-2 2 -1 3q99 115 128 160q2 4 4 0q38 -57 130 -160z" />
    <glyph glyph-name="atilde" unicode="&#xe3;" 
d="M438 31q-5 -15 -25 -27t-47 -12q-32 0 -54.5 18.5t-27.5 47.5q-10 -31 -39.5 -48.5t-70.5 -17.5q-57 0 -97.5 25t-40.5 80q0 37 14.5 63t38.5 38.5t42 18t38 7.5q88 8 103 18q7 6 8 12v76q0 98 -71 98q-47 0 -47 -45q0 -9 4.5 -20t4.5 -19q0 -15 -11.5 -25t-34.5 -10
q-21 0 -31.5 13.5t-10.5 31.5q0 30 35.5 56t90.5 26q163 0 163 -181v-211q0 -34 25 -34q12 0 22.5 8t12.5 17q1 2 5 -2q1 -1 1 -2zM280 83v154q-11 -7 -26.5 -10.5t-36 -6t-29.5 -4.5q-29 -5 -45 -30.5t-16 -88.5q0 -53 17.5 -73t47.5 -20q37 0 62.5 24t25.5 55zM405 667
q0 -48 -32.5 -80t-78.5 -32q-37 0 -90 29t-73 29q-25 0 -40 -19t-15 -47q0 -2 -4 -2t-4 2q0 47 32 79t79 32q37 0 90 -29t73 -29q25 0 40 19t15 48q0 1 4 1t4 -1z" />
    <glyph glyph-name="adieresis" unicode="&#xe4;" 
d="M438 31q-5 -15 -25 -27t-47 -12q-32 0 -54.5 18.5t-27.5 47.5q-10 -31 -39.5 -48.5t-70.5 -17.5q-57 0 -97.5 25t-40.5 80q0 37 14.5 63t38.5 38.5t42 18t38 7.5q88 8 103 18q7 6 8 12v76q0 98 -71 98q-47 0 -47 -45q0 -9 4.5 -20t4.5 -19q0 -15 -11.5 -25t-34.5 -10
q-21 0 -31.5 13.5t-10.5 31.5q0 30 35.5 56t90.5 26q163 0 163 -181v-211q0 -34 25 -34q12 0 22.5 8t12.5 17q1 2 5 -2q1 -1 1 -2zM280 83v154q-11 -7 -26.5 -10.5t-36 -6t-29.5 -4.5q-29 -5 -45 -30.5t-16 -88.5q0 -53 17.5 -73t47.5 -20q37 0 62.5 24t25.5 55zM370 591
q0 -20 -13 -33.5t-32 -13.5t-32 13.5t-13 33.5t13 33.5t32 13.5t32 -13.5t13 -33.5zM183 591q0 -20 -13.5 -33.5t-32.5 -13.5q-18 0 -31.5 13.5t-13.5 33.5q0 19 13.5 33t31.5 14q19 0 32.5 -14t13.5 -33z" />
    <glyph glyph-name="aring" unicode="&#xe5;" 
d="M438 31q-5 -15 -25 -27t-47 -12q-32 0 -54.5 18.5t-27.5 47.5q-10 -31 -39.5 -48.5t-70.5 -17.5q-57 0 -97.5 25t-40.5 80q0 37 14.5 63t38.5 38.5t42 18t38 7.5q88 8 103 18q7 6 8 12v76q0 98 -71 98q-47 0 -47 -45q0 -9 4.5 -20t4.5 -19q0 -15 -11.5 -25t-34.5 -10
q-21 0 -31.5 13.5t-10.5 31.5q0 30 35.5 56t90.5 26q163 0 163 -181v-211q0 -34 25 -34q12 0 22.5 8t12.5 17q1 2 5 -2q1 -1 1 -2zM280 83v154q-11 -7 -26.5 -10.5t-36 -6t-29.5 -4.5q-29 -5 -45 -30.5t-16 -88.5q0 -53 17.5 -73t47.5 -20q37 0 62.5 24t25.5 55zM306 608
q0 -32 -23 -54.5t-54 -22.5q-32 0 -55 22.5t-23 54.5t23 54.5t55 22.5q31 0 54 -22.5t23 -54.5zM297 608q0 28 -20 48.5t-48 20.5q-29 0 -49 -20.5t-20 -48.5t20 -48.5t49 -20.5q28 0 48 20.5t20 48.5z" />
    <glyph glyph-name="ae" unicode="&#xe6;" horiz-adv-x="706" 
d="M671 240q0 -3 -2 -3h-287q-1 -7 -1 -24q0 -87 9 -128.5t32 -62.5q26 -23 69 -23q105 0 164 91q1 1 4 -1t2 -3q-29 -44 -73.5 -69.5t-96.5 -25.5q-63 0 -116.5 27t-78.5 73q-2 -40 -36.5 -70t-81.5 -30q-57 0 -97 25t-40 80q0 37 14 63t37.5 38.5t41.5 18t38 7.5
q96 9 110 20q6 5 6 10v76q0 98 -73 98q-49 0 -49 -44q0 -9 4 -20t4 -19q0 -15 -11 -25t-34 -10q-22 0 -32.5 13t-10.5 32q0 29 37 55t92 26q101 0 135 -61q55 61 141 61q59 0 102 -34.5t60.5 -77t17.5 -83.5zM582 245q-3 125 -34 159q-20 23 -57 23q-43 0 -69 -23
q-37 -34 -40 -159h200zM288 96v140q-10 -7 -26 -10.5t-40 -6t-31 -3.5q-29 -6 -44.5 -31.5t-15.5 -88.5q0 -53 17 -73t47 -20q35 0 64 28t29 65z" />
    <glyph glyph-name="ccedilla" unicode="&#xe7;" 
d="M420 86q-66 -96 -173 -95q-10 -15 -10 -32q0 -18 11.5 -30t25 -17.5t25 -21t11.5 -40.5q0 -35 -19 -55.5t-53 -20.5q-29 0 -46.5 15.5t-17.5 32.5q0 11 6.5 18.5t17.5 7.5q22 0 22 -20q0 -9 -5 -16t-5 -11q0 -19 28 -19q26 0 42.5 13.5t16.5 35.5q0 12 -12 20.5t-27 14
t-27 21t-12 38.5q0 37 20 66q-83 5 -141 69.5t-58 152.5q0 92 61.5 157t148.5 65q65 0 105 -31t40 -70q0 -45 -44 -45q-18 0 -30 11t-12 26q0 12 6 24t6 28q0 27 -17 38t-54 11q-44 0 -70 -23q-23 -22 -33.5 -63.5t-10.5 -127.5t10.5 -127.5t33.5 -63.5q26 -23 70 -23
q52 0 95 24.5t70 66.5q1 1 4 -1q2 -2 1 -3z" />
    <glyph glyph-name="egrave" unicode="&#xe8;" horiz-adv-x="463" 
d="M428 240q0 -3 -3 -3h-287v-24q0 -88 9 -129t33 -62q24 -23 68 -23q106 0 165 91q1 1 3.5 -1t1.5 -3q-29 -44 -73.5 -69.5t-96.5 -25.5q-87 0 -147 65t-60 157t60 157t147 65q59 0 102 -34.5t60.5 -77t17.5 -83.5zM339 245q-3 125 -34 159q-22 23 -57 23q-44 0 -68 -23
q-38 -34 -41 -159h200zM337 522q2 -1 -1 -7q-127 30 -177 70.5t-50 80.5q0 14 9.5 23t24.5 9q18 0 34 -23t30 -52t48 -59.5t82 -41.5z" />
    <glyph glyph-name="eacute" unicode="&#xe9;" horiz-adv-x="463" 
d="M428 240q0 -3 -3 -3h-287v-24q0 -88 9 -129t33 -62q24 -23 68 -23q106 0 165 91q1 1 3.5 -1t1.5 -3q-29 -44 -73.5 -69.5t-96.5 -25.5q-87 0 -147 65t-60 157t60 157t147 65q59 0 102 -34.5t60.5 -77t17.5 -83.5zM339 245q-3 125 -34 159q-22 23 -57 23q-44 0 -68 -23
q-38 -34 -41 -159h200zM400 666q0 -40 -49.5 -80.5t-176.5 -70.5l-2 4q0 3 1 3q48 11 82 41.5t47.5 59.5t29.5 52t34 23q15 0 24.5 -9t9.5 -23z" />
    <glyph glyph-name="ecircumflex" unicode="&#xea;" horiz-adv-x="463" 
d="M428 240q0 -3 -3 -3h-287v-24q0 -88 9 -129t33 -62q24 -23 68 -23q106 0 165 91q1 1 3.5 -1t1.5 -3q-29 -44 -73.5 -69.5t-96.5 -25.5q-87 0 -147 65t-60 157t60 157t147 65q59 0 102 -34.5t60.5 -77t17.5 -83.5zM339 245q-3 125 -34 159q-22 23 -57 23q-44 0 -68 -23
q-38 -34 -41 -159h200zM382 529q1 -1 -1.5 -3.5t-3.5 -1.5l-132 86l-121 -86q-1 -1 -3 2q-2 2 -1 3q99 115 128 160q2 4 4 0q38 -57 130 -160z" />
    <glyph glyph-name="edieresis" unicode="&#xeb;" horiz-adv-x="463" 
d="M428 240q0 -3 -3 -3h-287v-24q0 -88 9 -129t33 -62q24 -23 68 -23q106 0 165 91q1 1 3.5 -1t1.5 -3q-29 -44 -73.5 -69.5t-96.5 -25.5q-87 0 -147 65t-60 157t60 157t147 65q59 0 102 -34.5t60.5 -77t17.5 -83.5zM339 245q-3 125 -34 159q-22 23 -57 23q-44 0 -68 -23
q-38 -34 -41 -159h200zM385 591q0 -20 -13 -33.5t-32 -13.5t-32 13.5t-13 33.5t13 33.5t32 13.5t32 -13.5t13 -33.5zM198 591q0 -20 -13.5 -33.5t-32.5 -13.5q-18 0 -31.5 13.5t-13.5 33.5q0 19 13.5 33t31.5 14q19 0 32.5 -14t13.5 -33z" />
    <glyph glyph-name="igrave" unicode="&#xec;" horiz-adv-x="269" 
d="M248 0h-217q-1 0 -1 4t1 4h56q6 0 6 4v402q0 4 -6 4h-56q-1 0 -1 4t1 4h152q3 0 3 -3v-411q0 -4 7 -4h55q2 0 2 -4t-2 -4zM215 522q2 -1 -1 -7q-127 30 -177 70.5t-50 80.5q0 14 9.5 23t24.5 9q18 0 34 -23t30 -52t48 -59.5t82 -41.5z" />
    <glyph glyph-name="iacute" unicode="&#xed;" horiz-adv-x="269" 
d="M248 0h-217q-1 0 -1 4t1 4h56q6 0 6 4v402q0 4 -6 4h-56q-1 0 -1 4t1 4h152q3 0 3 -3v-411q0 -4 7 -4h55q2 0 2 -4t-2 -4zM297 666q0 -40 -49.5 -80.5t-176.5 -70.5l-2 4q0 3 1 3q48 11 82 41.5t47.5 59.5t29.5 52t34 23q15 0 24.5 -9t9.5 -23z" />
    <glyph glyph-name="icircumflex" unicode="&#xee;" horiz-adv-x="269" 
d="M248 0h-217q-1 0 -1 4t1 4h56q6 0 6 4v402q0 4 -6 4h-56q-1 0 -1 4t1 4h152q3 0 3 -3v-411q0 -4 7 -4h55q2 0 2 -4t-2 -4zM264 529q1 -1 -1.5 -3.5t-3.5 -1.5l-132 86l-121 -86q-1 -1 -3 2q-2 2 -1 3q99 115 128 160q2 4 4 0q38 -57 130 -160z" />
    <glyph glyph-name="idieresis" unicode="&#xef;" horiz-adv-x="269" 
d="M248 0h-217q-1 0 -1 4t1 4h56q6 0 6 4v402q0 4 -6 4h-56q-1 0 -1 4t1 4h152q3 0 3 -3v-411q0 -4 7 -4h55q2 0 2 -4t-2 -4zM276 591q0 -20 -13 -33.5t-32 -13.5t-32 13.5t-13 33.5t13 33.5t32 13.5t32 -13.5t13 -33.5zM89 591q0 -20 -13.5 -33.5t-32.5 -13.5
q-18 0 -31.5 13.5t-13.5 33.5q0 19 13.5 33t31.5 14q19 0 32.5 -14t13.5 -33z" />
    <glyph glyph-name="ntilde" unicode="&#xf1;" horiz-adv-x="529" 
d="M518 0h-216q-2 0 -2 4t2 4h55q7 0 7 4v313q0 49 -22 75.5t-51 26.5q-87 0 -114 -88v-327q0 -4 6 -4h55q2 0 2 -4t-2 -4h-216q-2 0 -2 4t2 4h56q6 0 6 4v402q0 4 -6 4h-56q-2 0 -2 4t2 4h152q3 0 3 -3v-66q13 39 44.5 58.5t69.5 19.5q77 0 121 -44t44 -123v-256q0 -4 7 -4
h55q2 0 2 -4t-2 -4zM439 667q0 -48 -32.5 -80t-78.5 -32q-37 0 -90 29t-73 29q-25 0 -40 -19t-15 -47q0 -2 -4 -2t-4 2q0 47 32 79t79 32q37 0 90 -29t73 -29q25 0 40 19t15 48q0 1 4 1t4 -1z" />
    <glyph glyph-name="ograve" unicode="&#xf2;" horiz-adv-x="502" 
d="M461 213q0 -92 -61.5 -157t-149.5 -65q-86 0 -147.5 65t-61.5 157t61.5 157t147.5 65q88 0 149.5 -65t61.5 -157zM365 213q0 150 -45 191q-24 23 -70 23q-45 0 -69 -23q-44 -41 -44 -191q0 -86 10.5 -127.5t33.5 -63.5q24 -23 69 -23q46 0 70 23q24 22 34.5 63.5
t10.5 127.5zM329 522q2 -1 -1 -7q-127 30 -177 70.5t-50 80.5q0 14 9.5 23t24.5 9q18 0 34 -23t30 -52t48 -59.5t82 -41.5z" />
    <glyph glyph-name="oacute" unicode="&#xf3;" horiz-adv-x="502" 
d="M461 213q0 -92 -61.5 -157t-149.5 -65q-86 0 -147.5 65t-61.5 157t61.5 157t147.5 65q88 0 149.5 -65t61.5 -157zM365 213q0 150 -45 191q-24 23 -70 23q-45 0 -69 -23q-44 -41 -44 -191q0 -86 10.5 -127.5t33.5 -63.5q24 -23 69 -23q46 0 70 23q24 22 34.5 63.5
t10.5 127.5zM390 666q0 -40 -49.5 -80.5t-176.5 -70.5l-2 4q0 3 1 3q48 11 82 41.5t47.5 59.5t29.5 52t34 23q15 0 24.5 -9t9.5 -23z" />
    <glyph glyph-name="ocircumflex" unicode="&#xf4;" horiz-adv-x="502" 
d="M461 213q0 -92 -61.5 -157t-149.5 -65q-86 0 -147.5 65t-61.5 157t61.5 157t147.5 65q88 0 149.5 -65t61.5 -157zM365 213q0 150 -45 191q-24 23 -70 23q-45 0 -69 -23q-44 -41 -44 -191q0 -86 10.5 -127.5t33.5 -63.5q24 -23 69 -23q46 0 70 23q24 22 34.5 63.5
t10.5 127.5zM380 529q1 -1 -1.5 -3.5t-3.5 -1.5l-132 86l-121 -86q-1 -1 -3 2q-2 2 -1 3q99 115 128 160q2 4 4 0q38 -57 130 -160z" />
    <glyph glyph-name="otilde" unicode="&#xf5;" horiz-adv-x="502" 
d="M461 213q0 -92 -61.5 -157t-149.5 -65q-86 0 -147.5 65t-61.5 157t61.5 157t147.5 65q88 0 149.5 -65t61.5 -157zM365 213q0 150 -45 191q-24 23 -70 23q-45 0 -69 -23q-44 -41 -44 -191q0 -86 10.5 -127.5t33.5 -63.5q24 -23 69 -23q46 0 70 23q24 22 34.5 63.5
t10.5 127.5zM425 667q0 -48 -32.5 -80t-78.5 -32q-37 0 -90 29t-73 29q-25 0 -40 -19t-15 -47q0 -2 -4 -2t-4 2q0 47 32 79t79 32q37 0 90 -29t73 -29q25 0 40 19t15 48q0 1 4 1t4 -1z" />
    <glyph glyph-name="odieresis" unicode="&#xf6;" horiz-adv-x="502" 
d="M461 213q0 -92 -61.5 -157t-149.5 -65q-86 0 -147.5 65t-61.5 157t61.5 157t147.5 65q88 0 149.5 -65t61.5 -157zM365 213q0 150 -45 191q-24 23 -70 23q-45 0 -69 -23q-44 -41 -44 -191q0 -86 10.5 -127.5t33.5 -63.5q24 -23 69 -23q46 0 70 23q24 22 34.5 63.5
t10.5 127.5zM391 591q0 -20 -13 -33.5t-32 -13.5t-32 13.5t-13 33.5t13 33.5t32 13.5t32 -13.5t13 -33.5zM204 591q0 -20 -13.5 -33.5t-32.5 -13.5q-18 0 -31.5 13.5t-13.5 33.5q0 19 13.5 33t31.5 14q19 0 32.5 -14t13.5 -33z" />
    <glyph glyph-name="oslash" unicode="&#xf8;" horiz-adv-x="504" 
d="M462 213q0 -92 -61.5 -157t-149.5 -65q-65 0 -118 39l-37 -55q-1 -1 -2.5 0t-3 2.5t-1.5 2.5l37 55q-84 66 -84 178q0 92 61.5 157t147.5 65q65 0 119 -39l38 55q2 1 7 -4q-31 -46 -38 -56q85 -67 85 -178zM347 361q-9 27 -26 43q-24 23 -70 23q-45 0 -69 -23
q-44 -41 -44 -191q0 -92 14 -140q6 8 15 22t35 52t48.5 71t45.5 67.5t37 54.5zM366 213q0 91 -16 139l-195 -289q10 -27 27 -41q24 -23 69 -23q46 0 70 23q24 22 34.5 63.5t10.5 127.5z" />
    <glyph glyph-name="ugrave" unicode="&#xf9;" horiz-adv-x="519" 
d="M507 0h-152q-2 0 -2 3v67q-13 -40 -45 -59t-70 -19q-77 0 -121 40.5t-44 118.5v264q0 3 -6 3h-56q-1 0 -1 4t1 4h152q3 0 3 -3v-322q0 -49 21.5 -75t50.5 -26q87 0 115 87v328q0 3 -7 3h-55q-2 0 -2 4t2 4h152q2 0 2 -3v-411q0 -4 7 -4h55q1 0 1 -4t-1 -4zM348 522
q2 -1 -1 -7q-127 30 -177 70.5t-50 80.5q0 14 9.5 23t24.5 9q18 0 34 -23t30 -52t48 -59.5t82 -41.5z" />
    <glyph glyph-name="uacute" unicode="&#xfa;" horiz-adv-x="519" 
d="M507 0h-152q-2 0 -2 3v67q-13 -40 -45 -59t-70 -19q-77 0 -121 40.5t-44 118.5v264q0 3 -6 3h-56q-1 0 -1 4t1 4h152q3 0 3 -3v-322q0 -49 21.5 -75t50.5 -26q87 0 115 87v328q0 3 -7 3h-55q-2 0 -2 4t2 4h152q2 0 2 -3v-411q0 -4 7 -4h55q1 0 1 -4t-1 -4zM389 666
q0 -40 -49.5 -80.5t-176.5 -70.5l-2 4q0 3 1 3q48 11 82 41.5t47.5 59.5t29.5 52t34 23q15 0 24.5 -9t9.5 -23z" />
    <glyph glyph-name="ucircumflex" unicode="&#xfb;" horiz-adv-x="519" 
d="M507 0h-152q-2 0 -2 3v67q-13 -40 -45 -59t-70 -19q-77 0 -121 40.5t-44 118.5v264q0 3 -6 3h-56q-1 0 -1 4t1 4h152q3 0 3 -3v-322q0 -49 21.5 -75t50.5 -26q87 0 115 87v328q0 3 -7 3h-55q-2 0 -2 4t2 4h152q2 0 2 -3v-411q0 -4 7 -4h55q1 0 1 -4t-1 -4zM386 529
q1 -1 -1.5 -3.5t-3.5 -1.5l-132 86l-121 -86q-1 -1 -3 2q-2 2 -1 3q99 115 128 160q2 4 4 0q38 -57 130 -160z" />
    <glyph glyph-name="udieresis" unicode="&#xfc;" horiz-adv-x="519" 
d="M507 0h-152q-2 0 -2 3v67q-13 -40 -45 -59t-70 -19q-77 0 -121 40.5t-44 118.5v264q0 3 -6 3h-56q-1 0 -1 4t1 4h152q3 0 3 -3v-322q0 -49 21.5 -75t50.5 -26q87 0 115 87v328q0 3 -7 3h-55q-2 0 -2 4t2 4h152q2 0 2 -3v-411q0 -4 7 -4h55q1 0 1 -4t-1 -4zM389 591
q0 -20 -13 -33.5t-32 -13.5t-32 13.5t-13 33.5t13 33.5t32 13.5t32 -13.5t13 -33.5zM202 591q0 -20 -13.5 -33.5t-32.5 -13.5q-18 0 -31.5 13.5t-13.5 33.5q0 19 13.5 33t31.5 14q19 0 32.5 -14t13.5 -33z" />
    <glyph glyph-name="ydieresis" unicode="&#xff;" horiz-adv-x="423" 
d="M452 418h-54q-6 0 -10.5 -7t-14.5 -34l-227 -613q-17 -45 -35.5 -63t-49.5 -18t-51 17t-20 46q0 24 14.5 40.5t34.5 16.5t31.5 -10.5t11.5 -26.5q0 -12 -10 -27t-10 -25q0 -15 23 -15q29 0 53 63l85 228l-196 425q-1 3 -8 3h-49q-2 0 -2 4t2 4h217q2 0 2 -4t-2 -4h-54
q-4 0 -5 -0.5t0 -2.5l135 -315l103 276q14 41 7 42h-55q-2 0 -2 4t2 4h134q2 0 2 -4t-2 -4zM378 591q0 -20 -13 -33.5t-32 -13.5t-32 13.5t-13 33.5t13 33.5t32 13.5t32 -13.5t13 -33.5zM191 591q0 -20 -13.5 -33.5t-32.5 -13.5q-18 0 -31.5 13.5t-13.5 33.5q0 19 13.5 33
t31.5 14q19 0 32.5 -14t13.5 -33z" />
    <glyph glyph-name="dotlessi" unicode="&#x131;" horiz-adv-x="269" 
d="M248 0h-217q-1 0 -1 4t1 4h56q6 0 6 4v402q0 4 -6 4h-56q-1 0 -1 4t1 4h152q3 0 3 -3v-411q0 -4 7 -4h55q2 0 2 -4t-2 -4z" />
    <glyph glyph-name="OE" unicode="&#x152;" horiz-adv-x="980" 
d="M955 3q0 -3 -3 -3h-576q-135 0 -230.5 104t-95.5 250t94.5 250.5t231.5 104.5h523q3 0 3 -3v-195q0 -2 -4 -2t-4 2q0 77 -46.5 133.5t-134.5 56.5h-111q-6 0 -6 -4v-329h37q58 0 93.5 36t35.5 89q0 1 4 1t4 -1v-258q0 -1 -4 -1t-4 1q0 53 -35.5 89t-93.5 36h-37v-348
q0 -4 6 -4h114q115 0 173 62t58 148q0 2 4 2t4 -2v-215zM472 12v685q0 4 -6 4h-90q-76 0 -117 -36q-75 -69 -75 -311q0 -138 17.5 -205.5t57.5 -104.5q41 -36 117 -36h90q6 0 6 4z" />
    <glyph glyph-name="oe" unicode="&#x153;" horiz-adv-x="779" 
d="M744 240q0 -3 -3 -3h-287v-24q0 -87 9 -128.5t32 -62.5q26 -23 69 -23q104 0 165 91q1 1 3.5 -1t1.5 -3q-65 -95 -170 -95q-100 0 -155 85q-57 -85 -158 -85q-87 0 -148.5 65t-61.5 157t61.5 157t148.5 65q100 0 158 -84q56 84 155 84q44 0 80.5 -20t57 -50t31.5 -63
t11 -62zM655 245q-3 125 -34 159q-22 23 -57 23q-43 0 -69 -23q-38 -35 -41 -159h201zM365 213q0 150 -44 191q-24 23 -70 23q-44 0 -70 -23q-44 -41 -44 -191q0 -86 10.5 -127.5t33.5 -63.5q26 -23 70 -23q46 0 70 23q23 22 33.5 63.5t10.5 127.5z" />
    <glyph glyph-name="Ydieresis" unicode="&#x178;" horiz-adv-x="643" 
d="M674 701h-78q-9 0 -32 -49l-155 -330v-310q0 -4 7 -4h89q1 0 1 -4t-1 -4h-313q-2 0 -2 4t2 4h88q6 0 6 4v297l-199 388q-2 4 -8 4h-93q-2 0 -2 4t2 4h345q1 0 1 -4t-1 -4h-104q-6 0 -4 -4l184 -361l152 323q15 40 11 42h-97q-1 0 -1 4t1 4h201q2 0 2 -4t-2 -4zM528 846
q0 -20 -13 -33.5t-32 -13.5t-32 13.5t-13 33.5t13 33.5t32 13.5t32 -13.5t13 -33.5zM341 846q0 -20 -13.5 -33.5t-32.5 -13.5q-18 0 -31.5 13.5t-13.5 33.5q0 19 13.5 33t31.5 14q19 0 32.5 -14t13.5 -33z" />
    <glyph glyph-name="florin" unicode="&#x192;" horiz-adv-x="408" 
d="M507 666q0 -20 -14.5 -34.5t-35.5 -14.5q-42 0 -42 36q0 11 8.5 23t8.5 27q0 31 -31 31q-13 0 -25.5 -7.5t-29.5 -33t-30.5 -67t-26 -117t-19.5 -175.5q0 -3 7 -3h90q1 0 1 -4t-1 -4h-90q-6 0 -8 -4l-1 -20q-7 -105 -23 -200.5t-47.5 -195.5t-87 -160t-128.5 -60
q-41 0 -66.5 21t-25.5 57q0 19 14.5 34t34.5 15q43 0 43 -36q0 -12 -8 -24.5t-8 -25.5q0 -31 30 -31q31 0 54 20t39 59.5t27.5 89.5t19.5 120t13.5 141.5t11.5 162.5q1 22 2 33q0 4 -6 4h-91q-2 0 -2 4t2 4h91q5 0 7 3l1 20q11 173 88.5 281.5t166.5 108.5q36 0 61.5 -22
t25.5 -56z" />
    <glyph glyph-name="circumflex" unicode="&#x2c6;" horiz-adv-x="323" 
d="M302 529q1 -1 -1.5 -3.5t-3.5 -1.5l-132 86l-121 -86q-1 -1 -3 2q-2 2 -1 3q99 115 128 160q2 4 4 0q38 -57 130 -160z" />
    <glyph glyph-name="caron" unicode="&#x2c7;" horiz-adv-x="323" 
d="M291 673q-94 -107 -128 -160q-3 -3 -5 0q-34 53 -128 160q-1 1 0 3.5t3 1.5l133 -86l121 86q1 1 3 -2q2 -2 1 -3z" />
    <glyph glyph-name="breve" unicode="&#x2d8;" horiz-adv-x="376" 
d="M329 693q0 -36 -11.5 -69t-45 -59.5t-84.5 -26.5t-84.5 26.5t-45 59.5t-11.5 69q0 1 3.5 1t3.5 -1q0 -39 31 -69t103 -30t102.5 30t30.5 69q0 1 4 1t4 -1z" />
    <glyph glyph-name="dotaccent" unicode="&#x2d9;" horiz-adv-x="243" 
d="M167 591q0 -20 -13 -33.5t-32 -13.5t-32 13.5t-13 33.5t13 33.5t32 13.5t32 -13.5t13 -33.5z" />
    <glyph glyph-name="ring" unicode="&#x2da;" horiz-adv-x="281" 
d="M218 608q0 -32 -23 -54.5t-54 -22.5q-32 0 -55 22.5t-23 54.5t23 54.5t55 22.5q31 0 54 -22.5t23 -54.5zM209 608q0 28 -20 48.5t-48 20.5q-29 0 -49 -20.5t-20 -48.5t20 -48.5t49 -20.5q28 0 48 20.5t20 48.5z" />
    <glyph glyph-name="ogonek" unicode="&#x2db;" horiz-adv-x="271" 
d="M224 -163q-34 -49 -88 -49q-37 0 -57.5 21.5t-20.5 55.5q0 75 128 138q2 1 4 -3q1 -1 0 -2q-34 -19 -55.5 -50.5t-21.5 -68.5q0 -34 16.5 -49t40.5 -15q28 0 51 27q1 2 3 -2q1 -2 0 -3z" />
    <glyph glyph-name="tilde" unicode="&#x2dc;" horiz-adv-x="402" 
d="M369 667q0 -48 -32.5 -80t-78.5 -32q-37 0 -90 29t-73 29q-25 0 -40 -19t-15 -47q0 -2 -4 -2t-4 2q0 47 32 79t79 32q37 0 90 -29t73 -29q25 0 40 19t15 48q0 1 4 1t4 -1z" />
    <glyph glyph-name="hungarumlaut" unicode="&#x2dd;" horiz-adv-x="541" 
d="M458 666q0 -39 -50 -80t-177 -71l-2 4q0 3 1 3q40 9 69.5 31t45.5 46t27.5 47t24 38t27.5 15q16 0 25 -9.5t9 -23.5zM273 666q0 -39 -50 -80t-177 -71l-2 4q0 3 1 3q48 11 82 41.5t48 60t30 52.5t34 23q15 0 24.5 -9.5t9.5 -23.5z" />
    <glyph glyph-name="Omega" unicode="&#x3a9;" horiz-adv-x="571" 
d="M626 666q0 -20 -13.5 -34.5t-32.5 -14.5q-45 0 -45 36q0 11 6 23t6 27q0 31 -31 31q-56 0 -56 -118v-186q0 -4 7 -4h84q1 0 1 -4t-1 -4h-84q-7 0 -7 -4v-402q0 -4 7 -4h56q1 0 1 -4t-1 -4h-216q-1 0 -1 4t1 4h55q7 0 7 4v402q0 4 -7 4h-161q-6 0 -6 -4v-402q0 -4 6 -4h55
q2 0 2 -4t-2 -4h-215q-1 0 -1 4t1 4h55q6 0 6 4v402q0 4 -6 4h-69q-1 0 -1 4t1 4h69q6 0 6 4v12q0 295 168 295q36 0 63 -22t27 -56q0 -20 -13 -34.5t-33 -14.5q-45 0 -45 36q0 12 6.5 24t6.5 26q0 31 -32 31q-55 0 -55 -118v-179q0 -4 6 -4h161q7 0 7 4v19q0 295 168 295
q36 0 62.5 -22t26.5 -56z" />
    <glyph glyph-name="endash" unicode="&#x2013;" horiz-adv-x="562" 
d="M526 232h-490q-2 0 -2 4t2 4h490q2 0 2 -4t-2 -4z" />
    <glyph glyph-name="emdash" unicode="&#x2014;" horiz-adv-x="1053" 
d="M1017 232h-981q-2 0 -2 4t2 4h981q1 0 1 -4t-1 -4z" />
    <glyph glyph-name="quoteleft" unicode="&#x2018;" horiz-adv-x="179" 
d="M151 720q-16 -5 -30 -16q-34 -28 -34 -61q0 -32 32 -55q21 -14 21 -44q0 -22 -14.5 -38t-35.5 -16q-26 0 -40 18.5t-14 49.5q0 42 35 98.5t78 70.5l2 -6v-1z" />
    <glyph glyph-name="quoteright" unicode="&#x2019;" horiz-adv-x="179" 
d="M144 658q0 -42 -34.5 -98.5t-78.5 -69.5l-2 6q17 6 30 17q35 29 35 60t-32 55q-22 16 -22 44q0 22 15 38t36 16q25 0 39 -18t14 -50z" />
    <glyph glyph-name="quotesinglbase" unicode="&#x201a;" horiz-adv-x="179" 
d="M144 29q0 -42 -35 -99t-78 -70l-2 6q20 6 30 17q35 29 35 60t-33 56q-22 16 -22 43q0 22 15.5 38t36.5 16q25 0 39 -17.5t14 -49.5z" />
    <glyph glyph-name="quotedblleft" unicode="&#x201c;" horiz-adv-x="325" 
d="M295 720q-19 -7 -28 -16q-36 -28 -36 -61q0 -31 33 -55q22 -16 22 -44q0 -22 -15 -38t-36 -16q-26 0 -39.5 18.5t-13.5 49.5q0 42 34.5 98.5t77.5 70.5l2 -4zM151 720q-16 -5 -30 -16q-34 -28 -34 -61q0 -32 32 -55q21 -14 21 -44q0 -22 -14.5 -38t-35.5 -16
q-26 0 -40 18.5t-14 49.5q0 42 35 98.5t78 70.5l2 -6v-1z" />
    <glyph glyph-name="quotedblright" unicode="&#x201d;" horiz-adv-x="325" 
d="M288 658q0 -42 -34.5 -98.5t-77.5 -69.5l-1 6q15 5 29 17q35 29 35 60q0 32 -33 55q-21 17 -21 44q0 23 14.5 38.5t35.5 15.5q53 0 53 -68zM144 658q0 -42 -34.5 -98.5t-78.5 -69.5l-2 6q17 6 30 17q35 29 35 60t-32 55q-22 16 -22 44q0 22 15 38t36 16q25 0 39 -18
t14 -50z" />
    <glyph glyph-name="quotedblbase" unicode="&#x201e;" horiz-adv-x="325" 
d="M288 29q0 -43 -34.5 -99.5t-77.5 -69.5l-1 6q15 5 29 17q35 29 35 60q0 32 -33 56q-21 15 -21 43q0 22 14.5 38t35.5 16q53 0 53 -67zM144 29q0 -42 -35 -99t-78 -70l-2 6q20 6 30 17q35 29 35 60t-33 56q-22 16 -22 43q0 22 15.5 38t36.5 16q25 0 39 -17.5t14 -49.5z
" />
    <glyph glyph-name="dagger" unicode="&#x2020;" horiz-adv-x="595" 
d="M569 376q0 -19 -11 -32.5t-30 -13.5q-43 0 -43 36q0 8 4 20t4 21q0 24 -20 37t-42 13q-59 0 -86 -24.5t-27 -90.5q0 -55 38 -72q2 -1 -1 -7q-15 7 -26 -27q-29 -92 -29 -553q0 -1 -3 -1t-3 1q0 535 -41 577q-6 7 -14 3l-2 4q0 3 1 3q38 17 38 72q0 66 -27.5 90.5
t-85.5 24.5q-22 0 -42 -13t-20 -37q0 -9 4 -21t4 -20q0 -36 -43 -36q-19 0 -29.5 13.5t-10.5 32.5q0 31 41 60t96 29q84 0 106 -51q0 16 -5 47t-5 51q0 21 9.5 57t9.5 44t-16 31t-16 46t14.5 38.5t36.5 15.5t36.5 -15.5t14.5 -38.5t-15.5 -46t-15.5 -31t9 -44t9 -57
q0 -20 -5 -51t-5 -47q22 51 106 51q55 0 96.5 -29t41.5 -60z" />
    <glyph glyph-name="daggerdbl" unicode="&#x2021;" horiz-adv-x="589" 
d="M556 -6q0 -30 -38.5 -57t-93.5 -27q-40 0 -66.5 16.5t-34.5 44.5q0 -16 5 -40t5 -44q0 -21 -9.5 -43t-9.5 -30t16 -32t16 -45q0 -23 -15 -38.5t-37 -15.5t-37 15.5t-15 38.5q0 21 16 45t16 32t-9 30t-9 43q0 20 5 44t5 40q-20 -61 -102 -61q-55 0 -93.5 27t-38.5 57
q0 46 39 46q21 0 32 -10.5t11 -25.5q0 -8 -4 -19.5t-4 -20.5q0 -24 17.5 -35t40.5 -11q54 0 81.5 29t27.5 95q0 11 -1.5 20t-4 15t-5 10.5t-7 7.5t-6.5 4t-6.5 3t-5.5 2l1 7q7 -3 13 -3q39 0 39 105q0 106 -39 106q-5 0 -13 -3l-1 6v1q1 0 6.5 2.5t8 3.5t7.5 6t7.5 10.5
t4.5 15.5t2 23q0 125 -109 125q-23 0 -40.5 -11.5t-17.5 -35.5q0 -8 4 -20t4 -20q0 -35 -43 -35q-20 0 -29.5 13t-9.5 32q0 30 38.5 57.5t93.5 27.5q82 0 102 -61q0 16 -5 40t-5 44q0 21 9 43t9 30t-16 31.5t-16 45.5q0 23 15 38.5t37 15.5t37 -15.5t15 -38.5
q0 -22 -16 -45.5t-16 -31.5t9.5 -30t9.5 -43q0 -20 -5 -44t-5 -40q8 28 34.5 44.5t66.5 16.5q55 0 93.5 -27.5t38.5 -57.5q0 -19 -10 -32t-30 -13q-42 0 -42 35q0 8 4 20t4 20q0 24 -17.5 35.5t-40.5 11.5q-53 0 -80.5 -29t-27.5 -96q0 -13 2 -23t4.5 -15.5t7 -10t7 -6
t7.5 -4t6 -2.5q1 -2 -1 -7q-7 3 -12 3q-39 0 -39 -106q0 -105 39 -105q4 0 12 3l2 -4l-1 -3l-6 -2l-7.5 -4.5t-7 -6t-7 -10.5t-4.5 -16t-2 -23q0 -66 27.5 -95t80.5 -29q23 0 40.5 11t17.5 35q0 9 -4 20.5t-4 19.5q0 36 42 36q20 0 30 -13t10 -33z" />
    <glyph glyph-name="bullet" unicode="&#x2022;" horiz-adv-x="328" 
d="M277 354q0 -48 -33 -82t-80 -34t-80.5 34t-33.5 82t33.5 82t80.5 34t80 -34t33 -82z" />
    <glyph glyph-name="ellipsis" unicode="&#x2026;" horiz-adv-x="603" 
d="M553 41q0 -23 -15 -38.5t-37 -15.5q-20 0 -35 16t-15 38t15 38t35 16q22 0 37 -15.5t15 -38.5zM353 41q0 -22 -15 -38t-36 -16q-22 0 -36.5 15.5t-14.5 38.5t14.5 38.5t36.5 15.5q21 0 36 -16t15 -38zM153 41q0 -23 -15 -38.5t-37 -15.5q-21 0 -36 16t-15 38t15 38t36 16
q22 0 37 -15.5t15 -38.5z" />
    <glyph glyph-name="perthousand" unicode="&#x2030;" horiz-adv-x="1093" 
d="M1057 220q0 -82 -67 -155.5t-161 -73.5q-52 0 -85 34t-33 92q0 82 67.5 155.5t160.5 73.5q52 0 85 -34t33 -92zM382 587q0 -82 -67 -155.5t-161 -73.5q-52 0 -85 34t-33 92q0 83 67 156t161 73q52 0 85 -34t33 -92zM585 726l-446 -750q-1 -1 -2.5 0t-3 2.5t-1.5 2.5
l445 749q2 1 8 -4zM681 220q0 -82 -67.5 -155.5t-160.5 -73.5q-53 0 -86 34t-33 92q0 82 67.5 155.5t161.5 73.5q52 0 85 -34t33 -92zM992 270q0 37 -12 52.5t-41 15.5q-39 0 -63 -18q-43 -30 -70.5 -113.5t-27.5 -139.5q0 -37 11.5 -52.5t41.5 -15.5q37 0 63 18
q42 30 70 114t28 139zM316 637q0 37 -11.5 52.5t-40.5 15.5q-40 0 -64 -18q-42 -30 -70 -114t-28 -139q0 -36 12 -52t41 -16q37 0 64 18q41 30 69 114t28 139zM615 270q0 37 -11.5 52.5t-40.5 15.5q-40 0 -64 -18q-43 -30 -70.5 -113.5t-27.5 -139.5q0 -37 11.5 -52.5
t41.5 -15.5q37 0 63 18q42 30 70 114t28 139z" />
    <glyph glyph-name="guilsinglleft" unicode="&#x2039;" horiz-adv-x="226" 
d="M189 50q0 -3 -5 -3t-5 3q0 36 -31.5 74t-58.5 56.5t-50 30.5q-4 2 0 4q15 8 34 20.5t45.5 34t43.5 50t17 55.5q0 3 5 3t5 -3q0 -44 -22.5 -91t-48.5 -71q26 -24 48.5 -71.5t22.5 -91.5z" />
    <glyph glyph-name="guilsinglright" unicode="&#x203a;" horiz-adv-x="226" 
d="M187 211q-23 -12 -50 -30.5t-58.5 -56.5t-31.5 -74q0 -3 -5.5 -3t-5.5 3q0 43 23 91t48 72q-25 24 -48 71.5t-23 90.5q0 3 5.5 3t5.5 -3q0 -27 17 -55.5t43.5 -50t45.5 -34t34 -20.5q4 -2 0 -4z" />
    <glyph glyph-name="fraction" unicode="&#x2044;" horiz-adv-x="536" 
d="M494 724l-446 -750q-1 -2 -5 2q-1 2 -1 3l444 749q2 1 8 -4z" />
    <glyph glyph-name="trademark" unicode="&#x2122;" horiz-adv-x="419" 
d="M406 552h-76q-1 0 -1 3.5t1 3.5h21q1 0 1 1v135l-56 -146q0 -1 -2 -1t-2 1l-58 146v-135q0 -1 2 -1h21q1 0 1 -3.5t-1 -3.5h-53q-1 0 -1 3.5t1 3.5h22q1 0 1 1v140q0 1 -1 1h-22q-1 0 -1 4t1 4h55q3 0 4 -4l42 -112l43 112q1 4 3 4h55q1 0 1 -4t-1 -4h-21q-1 0 -1 -1
v-140q0 -1 1 -1h21q1 0 1 -3.5t-1 -3.5zM177 657q0 -1 -3.5 -1t-3.5 1q0 44 -48 44h-4q-1 0 -1 -1v-140q0 -1 1 -1h21q1 0 1 -3.5t-1 -3.5h-77q-1 0 -1 3.5t1 3.5h22q1 0 1 1v140q0 1 -1 1h-4q-47 0 -47 -44q0 -1 -4 -1t-4 1v51q0 1 1 1h151v-1v-51z" />
    <glyph glyph-name="radical" unicode="&#x221a;" horiz-adv-x="770" 
d="M760 0h-216q-2 0 -2 4t2 4h55q7 0 7 4v406h-154q-6 0 -6 -4v-402q0 -4 6 -4h56q2 0 2 -4t-2 -4h-215q-2 0 -2 4t2 4h54q7 0 7 4v402q0 4 -7 4h-146q-7 0 -7 -4v-402q0 -4 7 -4h55q2 0 2 -4t-2 -4h-216q-2 0 -2 4t2 4h55q7 0 7 4v402q0 4 -7 4h-69q-2 0 -2 4t2 4h69
q7 0 7 4v19q0 288 199 288q33 0 63 -17.5t43 -46.5q49 71 142 71q25 0 47 -9t23 -9q4 0 37 9t39 9q3 0 3 -3v-729q0 -4 6 -4h56q2 0 2 -4t-2 -4zM606 426v287q0 7 -18.5 14t-38.5 7q-45 0 -74 -28.5t-29 -89.5v-186q0 -4 6 -4h154zM401 664q-13 28 -41 45.5t-62 17.5
q-46 0 -75 -28.5t-29 -89.5v-179q0 -4 7 -4h146q7 0 7 4v19q0 142 47 215z" />
    <glyph glyph-name="approxequal" unicode="&#x2248;" horiz-adv-x="780" 
d="M760 0h-215q-1 0 -1 4t1 4h55q6 0 6 4v402q0 4 -6 4h-147q-6 0 -6 -4v-402q0 -4 6 -4h56q1 0 1 -4t-1 -4h-216q-1 0 -1 4t1 4h55q6 0 6 4v402q0 4 -6 4h-147q-7 0 -7 -4v-402q0 -4 7 -4h55q2 0 2 -4t-2 -4h-215q-1 0 -1 4t1 4h54q7 0 7 4v402q0 4 -7 4h-68q-1 0 -1 4t1 4
h68q7 0 7 4v19q0 288 199 288q32 0 62 -16.5t43 -44.5q51 68 160 68q65 0 104 -36.5t39 -81.5q0 -22 -15 -38.5t-37 -16.5q-24 0 -37 11.5t-13 28.5q0 13 8 28.5t8 30.5q0 32 -17.5 48t-59.5 16t-70.5 -28.5t-28.5 -89.5v-186q0 -4 6 -4h242q3 0 3 -3v-411q0 -4 6 -4h56
q2 0 2 -4t-2 -4zM400 666q-13 28 -40.5 44.5t-61.5 16.5q-46 0 -75 -28.5t-29 -89.5v-179q0 -4 7 -4h147q6 0 6 4v19q0 146 46 217z" />
    <glyph glyph-name="apple" unicode="&#xf8ff;" horiz-adv-x="967" 
d="M867 0h-767v750h767v-750zM820 520q0 2 -2 2q-8 2 -9 9l-8 33q-1 1 -1 4q0 4 8 5q1 0 1 1q0 2 -2 2q-3 0 -7 -0.5t-7 -0.5t-7 0.5t-6 0.5v-1q0 -2 1 -2q6 -1 9 -9l3 -14h-25l-4 14v4q0 4 7 5v1q0 2 -1 2q-3 0 -7 -0.5t-7 -0.5q-2 0 -6 0.5t-7 0.5v-1v-2q8 -1 11 -9l7 -33
q1 -1 1 -4q0 -4 -8 -5v-1q0 -2 1 -2q3 0 7.5 0.5t7.5 0.5t6.5 -0.5t5.5 -0.5v1v2q-9 2 -9 9l-4 15h25l3 -15q1 -1 1 -4q0 -4 -7 -5v-1q0 -2 1 -2q3 0 7 0.5t7 0.5t7 -0.5t6 -0.5q1 0 1 1zM559 686q-1 2 -2 6t-2 6q-2 -1 -15 -1t-16 1q0 -2 -2 -12h1h1q3 9 9 9q3 0 3 -3v-22
q0 -5 -5 -6q-1 0 -1 -1t1 -1h9h8q1 0 1 1t-1 1q-5 1 -5 6v22q0 3 3 3q8 0 11 -9h2zM694 540q0 15 -11 26.5t-25 11.5q-8 0 -15 -5.5t-7 -16.5q0 -15 11 -26.5t25 -11.5q8 0 15 5.5t7 16.5zM503 662v1v1q-6 1 -6 6v19q0 6 6 6v1v1h-9h-9v-1v-1q5 0 5 -6v-8h-17v8q0 6 5 6v1v1
h-9h-8q-1 0 -1 -1t1 -1q5 0 5 -6v-19q0 -5 -5 -6q-1 0 -1 -1t1 -1h8h9v1v1q-5 1 -5 6v9h17v-9q0 -5 -5 -6v-1v-1h9h9zM825 378v62h-147v-62h36v28h11v-65h-14v-33h81v33h-14v65h11v-28h36zM587 536q0 11 -13 18q4 4 4 9t-6 10t-14 5q-13 0 -13 -12q0 -6 5 -6q4 0 4 3
q0 2 -1.5 3.5t-1.5 2.5q0 6 7 6q10 0 10 -12q0 -4 -2 -6h-8q-8 0 -8 -6t8 -6q6 0 11 5q6 -4 6 -15q0 -14 -12 -14t-12 9q0 3 3 3l2 -1q1 -1 3 -1q4 0 4 5t-7 5q-9 0 -9 -10q0 -13 16 -13q24 0 24 18zM826 619v4h-685v-4h685zM439 663l-1 1q-5 1 -5 6v19q0 6 5 6q1 0 1 1
l-1 1h-16h-12q0 -6 -2 -10q1 -1 2 -1v1q3 8 9 8h3q4 0 4 -4v-10h-4q-6 0 -6 5q0 1 -1 1t-1 -1v-6v-6q0 -1 1 -1l1 1q0 6 6 6h4v-12q0 -3 -4 -3h-3q-7 0 -12 9l-1 -1q0 -2 1.5 -5.5t2.5 -5.5h12h16q1 0 1 1zM497 519v1q0 2 -1 2q-7 2 -10 9l-7 33q-1 1 -1 4q0 4 7 5q1 0 1 1
l-1 2q-2 0 -12 -0.5t-13 -0.5t-10 0.5t-10 0.5q1 -2 1 -7q0 -1 -0.5 -4.5t-0.5 -5.5q0 -1 2 -1q1 0 1 1q1 13 14 13h4q5 0 6 -6l3 -16h-4q-9 0 -12 9q0 1 -2 1q-1 0 -1 -1q1 -2 2 -5.5t1 -5.5q1 -2 1.5 -6t0.5 -6h2h1q-1 11 8 11h5l3 -16q1 -1 1 -4q0 -4 -8 -5q-1 0 -1 -1
q1 -2 2 -2q3 0 7 0.5t7 0.5t7 -0.5t7 -0.5zM823 173q-1 2 -2 2q-8 1 -9 9l-9 32v4q0 4 8 5l1 1q0 2 -2 2h-25h-19v-6v-11l1 -1l1 1q3 13 14 13h4q5 0 6 -6l4 -15h-5q-9 0 -12 9h-1h-2q1 -3 2 -6.5t1 -5.5q0 -1 1 -5t2 -7h1h1q-1 11 8 11h5l3 -15v-2l1 -2q0 -4 -8 -5v-2
q0 -2 1 -2q3 0 7.5 0.5t7.5 0.5t7 -0.5t6 -0.5q1 1 1 2zM826 476v4h-685v-4h685zM644 406v34h-81v-34h11l-15 -23l-15 23h10v34h-62v-34h12l37 -46v-19h-14v-33h81v33h-15v20l37 45h14zM399 521q0 8 -13 9q-3 4 -5 17t-7.5 22t-16.5 9q-5 0 -9 -3.5t-4 -6.5q0 -5 5 -5
q4 0 4 6t5 6q6 0 7.5 -7.5t3.5 -19t8 -18.5q-8 0 -12.5 -6.5t-8.5 -6.5q-5 0 -5 4q0 2 1 3t1 2q0 4 -5 4t-5 -6q0 -11 13 -11q10 0 16 6t11 6q5 -7 12 -7q4 0 4 3zM725 192q0 15 -11 26.5t-25 11.5q-8 0 -14.5 -5.5t-6.5 -16.5q0 -15 11 -26.5t24 -11.5q8 0 15 5.5t7 16.5z
M292 536q0 12 -13 18q4 4 4 9t-6 10t-14 5q-5 0 -9 -3.5t-4 -8.5q0 -6 5 -6t5 3q0 2 -1.5 3.5t-1.5 2.5q0 6 6 6q10 0 10 -12q0 -2 -1 -4v-2h-9q-7 0 -7 -6t7 -6t12 5q6 -6 6 -15q0 -14 -12 -14t-12 9q0 3 2 3l1 -1q2 -1 4 -1q5 0 5 5t-8 5q-9 0 -9 -10q0 -13 17 -13
q23 0 23 18zM620 225v1q0 2 -1 2h-15h-14v-1q0 -2 1 -2q9 -1 10 -9l5 -21q2 -8 2 -10q0 -10 -13 -10q-15 0 -20 22l-4 19q0 1 -1 2v2q0 4 8 5v2v1h-12h-11v-1q0 -2 1 -2q10 -1 11 -9l5 -20q7 -26 26 -26q21 0 21 16q0 2 -2 8l-5 22v2l-1 2q0 4 9 5zM455 308v33h-14v65h14v34
h-96q-21 0 -34 -11.5t-13 -28.5q0 -18 13 -29t34 -11h30v-19h-15v-33h81zM826 272v4h-685v-4h685zM694 47v1v1q-6 0 -6 5l-1 20q0 5 6 5v2v1q-1 0 -2.5 -0.5t-2.5 -0.5t-2.5 0.5t-2.5 0.5l-24 -25v17q0 5 6 5v2v1q-1 0 -4 -0.5t-4 -0.5t-3 0.5t-4 0.5v-1v-2q6 0 6 -5v-28h2
h1l25 27l1 -19q0 -5 -5 -5l-1 -1q0 -1 1 -1h6h8zM203 520l-1 2q-8 2 -11 9l-7 33q-1 1 -1 4q0 4 8 5v1v2q-3 0 -7 -0.5t-6 -0.5t-6.5 0.5t-7.5 0.5q-20 0 -20 -13t19 -17l-8 -16q-5 -8 -14 -9q-1 0 -1 -2q0 -1 2 -1t8 0.5t10 0.5l12 23q1 3 5 3l4 -14v-4q0 -4 -8 -5v-1
q0 -2 1 -2q2 0 7 0.5t8 0.5t7 -0.5t6 -0.5q1 0 1 1zM522 173l-1 2q-9 1 -9 9l-7 32q-1 1 -1 3q0 5 9 6l1 1q0 2 -2 2h-5h-9l-30 -40l-4 28q-2 8 7 9l1 1q0 2 -2 2q-1 0 -4.5 -0.5t-6.5 -0.5q-2 0 -5 0.5t-5 0.5v-1v-2q8 -1 10 -9l8 -45q0 -1 1 -1h2l31 44l5 -30q2 -8 -6 -9
q-1 0 -1 -2l1 -2q1 0 5 0.5t7 0.5q2 0 5 -0.5t4 -0.5t1 2zM632 46v2v1q-6 0 -6 5v20q0 5 6 5v2v1q-2 0 -8 -0.5t-8 -0.5q-3 0 -6.5 0.5t-5.5 0.5q-2 -8 -2 -10v-1q1 0 1 1q2 7 10 7h2q4 0 4 -4v-9h-4q-5 0 -6 5q0 1 -1 1v-1v-7v-6h1q1 6 6 6h4v-11q0 -4 -4 -4h-2q-9 0 -12 9
h-1q-1 0 -1 -1q3 -4 4 -11q4 1 12 1q13 0 17 -1zM582 81v1q-2 0 -4 -0.5t-3 -0.5t-3.5 0.5t-4.5 0.5v-1v-2q2 0 2 -3v-2l-9 -19l-6 9l5 9q1 6 6 6q1 1 1 2l-1 1q-2 0 -3.5 -0.5t-3.5 -0.5q-1 0 -3 0.5t-4 0.5q-1 0 -2.5 -0.5t-2.5 -0.5t-3 0.5t-4 0.5v-1q0 -2 1 -2q4 0 7 -6
l3 -5l-7 -13l-8 18v3q0 3 2 3q1 0 1 2q0 1 -1 1t-2.5 -0.5t-3.5 -0.5q-1 0 -2.5 0.5t-2.5 0.5v-1v-2q3 0 6 -6l12 -27h1h1l7 15l9 -15h1l12 27q4 6 6 6q1 0 1 2zM826 128v4h-685v-4h685zM277 308v33h-14v65h14v34h-141v-62h41v28h33v-20h-24v-24h24v-21h-33v28h-41v-61h141z
M413 171v2q0 2 -1 2q-9 1 -10 9l-8 32v4q0 4 7 5v1v2h-15q-3 0 -8 0.5t-7 0.5q-10 0 -17.5 -6t-7.5 -17q0 -15 10.5 -24.5t24.5 -9.5h15q13 0 17 -1zM479 79v2v1q-1 0 -3.5 -0.5t-4.5 -0.5t-4.5 0.5t-3.5 0.5l-1 -1q0 -2 1 -2q2 0 2 -2t-1 -3l-6 -9l-6 9l-1 2q0 3 4 3v2v1
q-1 0 -4 -0.5t-4 -0.5t-3 0.5t-3 0.5v-1v-2q4 0 8 -5l8 -12v-8q0 -5 -5 -5v-1v-2q1 0 3.5 0.5t5.5 0.5q1 0 4 -0.5t4 -0.5t1 2q0 1 -1 1q-5 0 -5 5v8l8 12q2 5 7 5zM306 173l-1 2q-9 1 -10 9l-8 32v4q0 4 7 5l1 1q0 2 -2 2h-12h-14q-19 0 -19 -12q0 -6 5.5 -11t12.5 -6
l-9 -16q-3 -7 -12 -10q-1 0 -1 -1l1 -2q10 2 18 2l12 22q2 3 6 3l3 -13v-4q0 -4 -7 -5q-1 0 -1 -2l1 -2q3 0 7.5 0.5t7.5 0.5t7 -0.5t6 -0.5q1 1 1 2zM424 64q0 18 -20 18q-19 0 -19 -18t19 -18q20 0 20 18zM364 48q0 1 -1 1q-5 0 -5 5v20q0 5 5 5q1 0 1 2q0 1 -1 1t-4 -0.5
t-5 -0.5t-4.5 0.5t-4.5 0.5q-12 0 -12 -9q0 -6 8 -9l-8 -11q-2 -4 -7 -4v-1v-1h6h6l6 11q4 5 7 5v-9q0 -5 -5 -5l-1 -1q0 -2 1 -2t3.5 0.5t4.5 0.5q3 0 5.5 -0.5t3.5 -0.5t1 2zM202 215q2 2 0 2q-7 13 -18 13q-14 0 -14 -18v-5q-7 23 -24 23q-9 0 -9 -12v-1h3q0 6 8 6
q15 0 24 -33l1 -6v-4q0 -4 -7 -5v-2q0 -2 1 -2q3 0 7.5 0.5t7.5 0.5q2 0 6 -0.5t6 -0.5q1 1 1 2l-1 2q-9 1 -10 9l-2 8q-3 9 -3 17q0 13 9 13q5 0 12 -7h2zM308 46v2v1q-6 0 -6 5v20q0 5 6 5v2v1q-1 0 -4 -0.5t-5 -0.5t-4.5 0.5t-4.5 0.5v-1v-2q6 0 6 -5v-10q-2 0 -4 3l-8 8
q-2 2 -2 3t3 1v2v1q-1 0 -3 -0.5t-4 -0.5t-3.5 0.5t-2.5 0.5v-1v-2q4 0 8 -4l9 -9l-13 -13q-4 -4 -7 -4l-1 -1q0 -2 1 -2t3.5 0.5t4.5 0.5q1 0 4.5 -0.5t5.5 -0.5v2v1q-3 0 -3 2q0 1 1 2l7 8q2 2 4 2v-9q0 -5 -6 -5v-1v-2q2 0 4.5 0.5t4.5 0.5t5 -0.5t4 -0.5zM683 535
q0 -14 -12 -14q-9 0 -16.5 12t-7.5 27t12 15q9 0 16.5 -12t7.5 -28zM565 553q-3 -4 -7 -4t-4 2q0 3 4 3q5 0 7 -1zM713 188q0 -15 -10 -15t-17 12t-7 28q0 14 10 14t17 -12t7 -27zM270 553q-3 -4 -7 -4q-3 0 -3 2q0 3 3 3q5 0 7 -1zM389 384h-11q-13 0 -13 11t13 11h11v-22z
M176 548h-5q-15 0 -15 15q0 9 8 9q7 0 9 -6zM554 77q0 -1 -3 -6l-2 5q0 3 2 3q3 0 3 -2zM392 182q0 -6 -4 -6h-5q-11 0 -18.5 9.5t-7.5 21.5q0 18 14 18l6 -1q4 0 6 -6zM280 201h-5q-15 0 -15 14q0 10 8 10q7 0 7 -7zM416 64q0 -16 -12 -16t-12 16q0 17 12 17t12 -17z
M351 65h-3q-8 0 -8 8q0 6 7 6q4 0 4 -4v-10z" />
    <glyph glyph-name="fi" unicode="&#xfb01;" horiz-adv-x="528" 
d="M508 0h-215q-1 0 -1 4t1 4h55q6 0 6 4v402q0 4 -6 4h-146q-7 0 -7 -4v-402q0 -4 7 -4h55q1 0 1 -4t-1 -4h-217q-2 0 -2 4t2 4h56q6 0 6 4v402q0 4 -6 4h-70q-2 0 -2 4t2 4h70q6 0 6 4v19q0 160 52.5 227.5t159.5 67.5q65 0 103.5 -36.5t38.5 -81.5q0 -22 -14.5 -38.5
t-36.5 -16.5q-24 0 -37 11.5t-13 29.5q0 12 8 27t8 31q0 32 -17.5 48t-60.5 16q-41 0 -69.5 -28.5t-28.5 -89.5v-186q0 -4 7 -4h242q2 0 2 -3v-411q0 -4 7 -4h55q2 0 2 -4t-2 -4z" />
    <glyph glyph-name="fl" unicode="&#xfb02;" horiz-adv-x="518" 
d="M508 0h-215q-1 0 -1 4t1 4h55q6 0 6 4v406h-152q-7 0 -7 -4v-402q0 -4 7 -4h55q1 0 1 -4t-1 -4h-217q-2 0 -2 4t2 4h56q6 0 6 4v402q0 4 -6 4h-70q-2 0 -2 4t2 4h70q6 0 6 4v19q0 86 17 146.5t46.5 91.5t62 44t70.5 13q25 0 47 -9l22 -9q5 0 37 9t40 9q2 0 2 -3v-729
q0 -4 7 -4h55q2 0 2 -4t-2 -4zM354 426v287q0 8 -18 14.5t-38 6.5q-45 0 -74 -28.5t-29 -89.5v-186q0 -4 7 -4h152z" />
    </font>
</defs>
</svg>
