<svg xmlns="http://www.w3.org/2000/svg" width="633" height="301" viewBox="0 0 633 301"><path fill="none" stroke="#fbfbfb" stroke-miterlimit="20" d="M631.779 9.042c.078 1.446.23 2.892.22 4.338-.134 20.963-.278 41.927-.439 62.89-.25 32.22-.519 64.44-.768 96.66-.305 39.41-9.886 127.075-12.23 127.07-48.786-.09-97.57-.203-146.355-.285-8.902-.015-17.802.2-26.703.109-18.591-.19-37.183-.613-55.775-.753-24.077-.184-48.154-.162-72.23-.274-46.749-.217-93.497-.492-140.245-.69-33.773-.143-67.548-.14-101.321-.315-21.888-.114-43.776-.43-65.664-.674-1.76-.02-3.517-.179-5.269-.722 2.05-1.596 4.403-1.67 6.612-1.672 9.999-.014 19.998.173 29.998.271 7.974.08 15.949.161 23.924.196 26.428.119 52.857.156 79.286.345 18.601.131 37.2.58 55.8.667 20.948.1 41.896-.086 62.845-.08 23.92.006 47.84.1 71.76.129 20.639.025 41.277-.063 61.916.05 12.029.065 24.056.541 36.085.624 20.634.142 41.27.074 61.904.18 24.39.123 48.78.32 73.169.517 17.969.144 35.938.337 53.907.51.311.002 6.032-12.56 6.052-16.472.115-23.607.744-139.013 1.009-173.108.246-31.908.57-63.813.886-95.719.013-1.28.295-2.556.454-3.834l1.172.042z"/><path fill="none" stroke="#fbfbfb" stroke-miterlimit="20" d="M626 7.686c-11.556 0-23.112.044-34.668-.009-21.116-.098-42.233-.249-63.35-.386-43.172-.278-86.345-.529-129.517-.855-35.346-.267-70.689-.615-106.034-.947-33.316-.313-66.631-.6-99.947-1-21.887-.261-43.772-.807-65.66-1.025-15.013-.15-30.03.167-45.043.058-18.454-.136-36.908-.52-55.361-.744-5.631-.069-21.628.66-21.568 4.931.132 9.204-.07 18.41-.06 27.616.004 4.686.267 9.37.244 14.056-.08 16.886-.274 33.771-.344 50.658-.135 33.009-.155 66.019-.346 99.027-.094 16.26-.504 32.517-.694 48.776-.151 12.985-.133 25.97-.31 38.955-.042 3.07-.564 6.134-1.453 9.203-1.23-2.22-.823-4.57-.829-6.868-.006-2.503-.024-5.007-.026-7.51-.003-2.503.002-5.006.015-7.509.014-2.661-.001-5.321.077-7.98.072-2.499.309-4.993.364-7.491.056-2.498-.042-4.998-.033-7.497.006-2.497.064-4.992.096-7.488.032-2.504.069-5.007.084-7.51.015-2.504.004-5.006.009-7.51.004-2.503.011-5.006.022-7.51.009-2.503.021-5.007.037-7.51.016-2.66.02-5.32.062-7.978.04-2.503.149-5.004.18-7.507.03-2.504-.003-5.007.004-7.51.008-2.504-.05-5.011.068-7.51.118-2.493.474-4.971.627-7.464.15-2.49.227-4.988.249-7.483.022-2.501-.049-5.004-.108-7.505-.058-2.498-.195-4.996-.222-7.494-.03-2.66.038-5.32.049-7.98.01-2.502-.01-5.006.003-7.509.013-2.502.053-5.006.075-7.51.023-2.502.043-5.003.057-7.506.015-2.503.03-5.006.03-7.508 0-2.504-.039-5.007-.024-7.51.015-2.504.091-5.007.114-7.51.025-2.502.02-5.006.018-7.509-.001-2.66-.02-5.319-.018-7.979.001-2.502.005-5.006.035-7.51.028-2.502.117-5.005.128-7.507.01-2.503-.064-5.006-.068-7.509-.004-2.502.005-5.006.064-7.51.059-2.5.189-4.998.282-7.499.094-2.495.218-4.99.262-7.486.045-2.502.004-5.006.007-7.51.001-2.658.002-5.318.015-7.978.014-2.504.04-5.007.065-7.511.025-2.503.067-5.006.082-7.508C3.754 6.652 29.053.98 33.114 1c22.841.101 45.682.137 68.522.254 44.89.232 89.781.381 134.67.81 20.625.198 41.244 1.054 61.87 1.445 6.243.12 12.5-.524 18.745-.457 17.668.187 35.333.695 53 .838 52.712.424 105.424.693 158.134 1.113 19.853.159 39.704.494 59.552.893 12.8.257 25.593.775 38.39 1.177.002.204.003.409.003.613z"/></svg>